<?xml version="1.0" encoding="UTF-8" standalone="no"?>
<!-- Created with Inkscape (http://www.inkscape.org/) -->

<svg
   xmlns:dc="http://purl.org/dc/elements/1.1/"
   xmlns:cc="http://creativecommons.org/ns#"
   xmlns:rdf="http://www.w3.org/1999/02/22-rdf-syntax-ns#"
   xmlns:svg="http://www.w3.org/2000/svg"
   xmlns="http://www.w3.org/2000/svg"
   xmlns:xlink="http://www.w3.org/1999/xlink"
   xmlns:sodipodi="http://sodipodi.sourceforge.net/DTD/sodipodi-0.dtd"
   xmlns:inkscape="http://www.inkscape.org/namespaces/inkscape"
   version="1.0"
   width="96"
   height="96"
   id="svg2408"
   style="display:inline"
   inkscape:version="0.48.0 r9654"
   sodipodi:docname="import.svg">
  <metadata
     id="metadata3371">
    <rdf:RDF>
      <cc:Work
         rdf:about="">
        <dc:format>image/svg+xml</dc:format>
        <dc:type
           rdf:resource="http://purl.org/dc/dcmitype/StillImage" />
        <dc:title></dc:title>
      </cc:Work>
    </rdf:RDF>
  </metadata>
  <sodipodi:namedview
     pagecolor="#ffffff"
     bordercolor="#666666"
     borderopacity="1"
     objecttolerance="10"
     gridtolerance="10"
     guidetolerance="10"
     inkscape:pageopacity="0"
     inkscape:pageshadow="2"
     inkscape:window-width="1067"
     inkscape:window-height="777"
     id="namedview3369"
     showgrid="false"
     inkscape:zoom="1.34375"
     inkscape:cx="114.11715"
     inkscape:cy="90.850482"
     inkscape:window-x="476"
     inkscape:window-y="162"
     inkscape:window-maximized="0"
     inkscape:current-layer="svg2408" />
  <defs
     id="defs2410">
    <linearGradient
       id="linearGradient3637">
      <stop
         id="stop3639"
         style="stop-color:#f0f0f0;stop-opacity:1"
         offset="0" />
      <stop
         id="stop3641"
         style="stop-color:#dcdcdc;stop-opacity:1"
         offset="1" />
    </linearGradient>
    <linearGradient
       x1="45.447727"
       y1="92.539597"
       x2="45.447727"
       y2="7.0165396"
       id="ButtonShadow"
       gradientUnits="userSpaceOnUse"
       gradientTransform="scale(1.0058652,0.994169)">
      <stop
         id="stop3750"
         style="stop-color:#000000;stop-opacity:1"
         offset="0" />
      <stop
         id="stop3752"
         style="stop-color:#000000;stop-opacity:0.58823532"
         offset="1" />
    </linearGradient>
    <linearGradient
       id="linearGradient3737">
      <stop
         id="stop3739"
         style="stop-color:#ffffff;stop-opacity:1"
         offset="0" />
      <stop
         id="stop3741"
         style="stop-color:#ffffff;stop-opacity:0"
         offset="1" />
    </linearGradient>
    <linearGradient
       id="linearGradient3700">
      <stop
         id="stop3702"
         style="stop-color:#2276c5;stop-opacity:1"
         offset="0" />
      <stop
         id="stop3704"
         style="stop-color:#68baf4;stop-opacity:1"
         offset="1" />
    </linearGradient>
    <filter
       color-interpolation-filters="sRGB"
       id="filter3174">
      <feGaussianBlur
         id="feGaussianBlur3176"
         stdDeviation="1.71" />
    </filter>
    <linearGradient
       x1="36.357143"
       y1="6"
       x2="36.357143"
       y2="63.893143"
       id="linearGradient3188"
       xlink:href="#linearGradient3737"
       gradientUnits="userSpaceOnUse" />
    <radialGradient
       cx="48"
       cy="90.171875"
       r="42"
       fx="48"
       fy="90.171875"
       id="radialGradient3619"
       xlink:href="#linearGradient3737"
       gradientUnits="userSpaceOnUse"
       gradientTransform="matrix(1.1573129,0,0,0.99590774,-7.5510206,0.19713193)" />
    <linearGradient
       x1="48"
       y1="90"
       x2="48"
       y2="5.9877172"
       id="linearGradient2843"
       xlink:href="#linearGradient3700"
       gradientUnits="userSpaceOnUse"
       gradientTransform="translate(0,100)" />
    <clipPath
       id="clipPath3625">
      <path
         d="M 0,0 0,96 96,96 96,0 0,0 z m 12,6 72,0 c 3.324,0 6,2.676 6,6 l 0,72 c 0,3.324 -2.676,6 -6,6 L 12,90 C 8.676,90 6,87.324 6,84 L 6,12 C 6,8.676 8.676,6 12,6 z"
         id="path3627"
         style="fill:#ffffff;fill-opacity:1;stroke:none" />
    </clipPath>
    <linearGradient
       x1="44.512066"
       y1="6"
       x2="44.512066"
       y2="90.015434"
       id="linearGradient3643"
       xlink:href="#linearGradient3637"
       gradientUnits="userSpaceOnUse" />
    <clipPath
       id="clipPath3649">
      <rect
         width="76"
         height="76"
         rx="4"
         ry="4"
         x="10"
         y="10"
         id="rect3651"
         style="fill:#ffffff;fill-opacity:1;fill-rule:nonzero;stroke:none" />
    </clipPath>
    <filter
       color-interpolation-filters="sRGB"
       id="filter3657">
      <feGaussianBlur
         id="feGaussianBlur3659"
         stdDeviation="1.14" />
    </filter>
    <linearGradient
       id="linearGradient4081">
      <stop
         id="stop4083"
         style="stop-color:#aaaaaa;stop-opacity:1"
         offset="0" />
      <stop
         id="stop4085"
         style="stop-color:#f0f0f0;stop-opacity:1"
         offset="1" />
    </linearGradient>
    <linearGradient
       x1="19.530235"
       y1="20.237455"
       x2="19.530235"
       y2="1.8417403"
       id="linearGradient2862"
       xlink:href="#linearGradient4081"
       gradientUnits="userSpaceOnUse"
       gradientTransform="matrix(2.219335,0,0,2.6093033,4.655865,19.194341)" />
    <linearGradient
       inkscape:collect="always"
       xlink:href="#linearGradient4012"
       id="linearGradient3452"
       gradientUnits="userSpaceOnUse"
       gradientTransform="matrix(1.3690757,0,0,-1.3690757,55.734049,-38.91297)"
       x1="17.506266"
       y1="-42.696442"
       x2="17.506266"
       y2="-84.79258" />
    <linearGradient
       x1="7.1904788"
       y1="6.9551144"
       x2="7.1904788"
       y2="18.319494"
       id="linearGradient4012"
       gradientUnits="userSpaceOnUse"
       gradientTransform="scale(1.1467263,0.8720476)">
      <stop
         id="stop4014"
         style="stop-color:#323232;stop-opacity:1"
         offset="0" />
      <stop
         id="stop4016"
         style="stop-color:#787878;stop-opacity:1"
         offset="1" />
    </linearGradient>
    <linearGradient
       inkscape:collect="always"
       xlink:href="#linearGradient4081"
       id="linearGradient3518"
       gradientUnits="userSpaceOnUse"
       gradientTransform="matrix(3.1471963,0,0,3.8646986,-10.609171,16.810673)"
       x1="19.530235"
       y1="20.237455"
       x2="19.530235"
       y2="1.8417403" />
  </defs>
  <g
     id="g3508"
     transform="matrix(1.4674924,0,0,1.3545317,-14.90636,-25.352052)">
    <path
       sodipodi:nodetypes="ssssssssssscsssssscc"
       d="m 21.927466,23.928444 c -2.828221,0 -5.105091,2.378091 -5.105091,5.332042 l 0,39.766817 c 0,2.95395 2.27687,5.332041 5.105091,5.332041 l 29.571654,0 c 2.82822,0 5.105091,-2.378091 5.105091,-5.332041 l 0,-39.766817 c 0,-2.953951 -2.276871,-5.332042 -5.105091,-5.332042 z m 5.076219,8.854879 19.459129,0 c 0.94274,0 1.701697,0.792697 1.701697,1.777348 0,0 0,18.518401 0,29.182485 0,0.984651 -0.758957,1.777348 -1.701697,1.777348 l -19.459129,0 c -0.942741,0 -1.701697,-0.792697 -1.701697,-1.777348 l 0,-29.182485 c 0,-0.984651 0.758956,-1.777348 1.701697,-1.777348 z m 42.52411,62.239016 c -46.45269,0.47529 -23.226345,0.237645 0,0 z"
       id="Symbol"
       style="fill:url(#linearGradient3518);fill-opacity:1;stroke:none;display:inline"
       inkscape:connector-curvature="0" />
    <g
       transform="matrix(1.009818,0,0,0.9963269,-0.15123961,0.08789162)"
       id="g3500">
      <g
         id="g3493">
        <path
           sodipodi:nodetypes="ccccc"
           d="m 27.999051,37.261237 17.027057,0 0,26.94432 -17.027057,0 z"
           id="path3752"
           style="opacity:0.1;fill:#000000;fill-opacity:1;stroke:none;display:inline"
           inkscape:connector-curvature="0" />
        <path
           sodipodi:nodetypes="ssssssssssssssssss"
           d="m 21.855267,23.928444 c -3.550159,0 -6.450973,3.070798 -6.450973,6.828991 l 0,39.905468 c 0,3.758194 2.88617,6.875447 6.450973,6.875447 l 29.314625,0 c 3.564803,0 6.450973,-3.117253 6.450973,-6.875447 l 0,-39.905468 c 0,-3.758193 -2.900814,-6.828991 -6.450973,-6.828991 z m 5.046679,11.84621 19.26515,0 c 0.154852,0 0.263306,0.114764 0.263306,0.32519 l 0,29.267107 c 0,0.210428 -0.108454,0.32519 -0.263306,0.32519 l -19.26515,0 c -0.154851,0 -0.307189,-0.161265 -0.307189,-0.32519 l 0,-29.267107 c 0,-0.163926 0.152338,-0.32519 0.307189,-0.32519 z"
           id="path3748"
           style="opacity:0.15;fill:#000000;fill-opacity:1;stroke:none;display:inline"
           inkscape:connector-curvature="0" />
        <path
           sodipodi:nodetypes="ssssssssssscssssss"
           d="m 21.864044,25.415027 c -2.800723,0 -5.055456,2.386858 -5.055456,5.3517 l 0,39.913422 c 0,2.964842 2.254733,5.3517 5.055456,5.3517 l 29.284142,0 c 2.800722,0 5.055456,-2.386858 5.055456,-5.3517 l 0,-39.913422 c 0,-2.964842 -2.254734,-5.3517 -5.055456,-5.3517 z m 5.026865,8.887524 19.269937,0 c 0.933574,0 1.685152,0.79562 1.685152,1.7839 0,0 0,18.586673 0,29.290072 0,0.98828 -0.751578,1.783899 -1.685152,1.783899 l -19.269937,0 c -0.933575,0 -1.685152,-0.795619 -1.685152,-1.783899 l 0,-29.290072 c 0,-0.98828 0.751577,-1.7839 1.685152,-1.7839 z"
           id="path3744"
           style="opacity:0.3;fill:#000000;fill-opacity:1;stroke:none;display:inline"
           inkscape:connector-curvature="0" />
        <path
           sodipodi:nodetypes="sscsscssscsssscssc"
           d="m 21.855267,23.928444 c -2.800723,0 -5.046679,2.377567 -5.046679,5.342408 l 0,1.486583 c 0,-2.964841 2.245956,-5.342408 5.046679,-5.342408 l 29.314625,0 c 2.800722,0 5.046679,2.377567 5.046679,5.342408 l 0,-1.486583 c 0,-2.964841 -2.245957,-5.342408 -5.046679,-5.342408 z m 3.335197,39.951923 0,1.486584 c 0,0.98828 0.777908,1.811773 1.711482,1.811773 l 19.26515,0 c 0.933575,0 1.667599,-0.823493 1.667599,-1.811773 l 0,-1.486584 c 0,0.988281 -0.734024,1.811774 -1.667599,1.811774 l -19.26515,0 c -0.933574,0 -1.711482,-0.823493 -1.711482,-1.811774 z"
           id="path3719"
           style="opacity:0.75;fill:#ffffff;fill-opacity:1;stroke:none;display:inline"
           inkscape:connector-curvature="0" />
        <path
           sodipodi:nodetypes="sscsscssscsssscssc"
           d="m 26.901946,31.314904 c -0.933574,0 -1.711482,0.823493 -1.711482,1.811773 l 0,1.486584 c 0,-0.988281 0.777908,-1.811774 1.711482,-1.811774 l 19.26515,0 c 0.933575,0 1.667599,0.823493 1.667599,1.811774 l 0,-1.486584 c 0,-0.98828 -0.734024,-1.811773 -1.667599,-1.811773 z m -10.093358,36.374833 0,1.486583 c 0,2.964841 2.245956,5.388864 5.046679,5.388864 l 29.314625,0 c 2.800722,0 5.046679,-2.424023 5.046679,-5.388864 l 0,-1.486583 c 0,2.964841 -2.245957,5.388864 -5.046679,5.388864 l -29.314625,0 c -2.800723,0 -5.046679,-2.424023 -5.046679,-5.388864 z"
           id="path3735"
           style="opacity:0.15;fill:#000000;fill-opacity:1;stroke:none;display:inline"
           inkscape:connector-curvature="0" />
      </g>
    </g>
  </g>
  <g
     style="display:inline"
     id="g3447"
     transform="matrix(-0.73032298,0,0,0.75412503,121.2591,35.765964)">
    <path
       d="m 55.849056,19.828865 14.09736,14.097373 C 55.90286,45.52702 50.883599,62.986336 60.48955,77.39526 63.045772,67.855308 70.4701,55.726376 85.437512,49.415964 L 99.534884,63.514696 99.488292,20 55.849056,19.828865 z"
       inkscape:connector-curvature="0"
       id="path28"
       style="fill:url(#linearGradient3452);fill-opacity:1;display:inline" />
    <path
       d="m 55.909884,19.875 4,4 39.625,0.125 0,-4 -43.625,-0.125 z m 11.875,15.875 c -8.231264,7.674532 -12.674255,17.526752 -12.125,27.25 0.785141,-9.175564 5.8927,-18.221392 14.25,-25.125 l -2.125,-2.125 z"
       inkscape:connector-curvature="0"
       id="path3713"
       style="opacity:0.3;fill:#000000;fill-opacity:1;display:inline" />
    <path
       d="m 55.847384,19.84375 14.09375,14.09375 c -14.043556,11.600782 -19.043451,29.059826 -9.4375,43.46875 2.556222,-9.539952 9.970088,-21.689588 24.9375,-28 L 99.534884,63.5 99.503634,20 55.847384,19.84375 z m 5.03125,2.09375 36.5625,0.125 0.03125,36.4375 -10.5625,-10.5625 A 2.0722699,2.0722699 0 0 0 84.628634,47.5 C 71.191431,53.16526 63.789207,63.279726 60.191134,72.4375 54.269506,59.810991 59.053051,45.609631 71.253634,35.53125 a 2.0722699,2.0722699 0 0 0 0.15625,-3.0625 L 60.878634,21.9375 z"
       inkscape:connector-curvature="0"
       id="path3711"
       style="opacity:0.3;fill:#000000;fill-opacity:1;display:inline" />
  </g>
</svg>
