<?xml version="1.0" encoding="UTF-8" standalone="no"?>
<!-- Created with Inkscape (http://www.inkscape.org/) -->

<svg
   xmlns:dc="http://purl.org/dc/elements/1.1/"
   xmlns:cc="http://creativecommons.org/ns#"
   xmlns:rdf="http://www.w3.org/1999/02/22-rdf-syntax-ns#"
   xmlns:svg="http://www.w3.org/2000/svg"
   xmlns="http://www.w3.org/2000/svg"
   xmlns:xlink="http://www.w3.org/1999/xlink"
   xmlns:sodipodi="http://sodipodi.sourceforge.net/DTD/sodipodi-0.dtd"
   xmlns:inkscape="http://www.inkscape.org/namespaces/inkscape"
   width="96"
   height="96"
   id="svg2408"
   sodipodi:version="0.32"
   inkscape:version="0.48.0 r9654"
   version="1.0"
   sodipodi:docname="document-save.svg"
   inkscape:output_extension="org.inkscape.output.svg.inkscape"
   style="display:inline">
  <defs
     id="defs2410">
    <linearGradient
       id="linearGradient3637">
      <stop
         style="stop-color:#f0f0f0;stop-opacity:1;"
         offset="0"
         id="stop3639" />
      <stop
         style="stop-color:#dcdcdc;stop-opacity:1;"
         offset="1"
         id="stop3641" />
    </linearGradient>
    <linearGradient
       id="ButtonShadow"
       gradientTransform="scale(1.0058652,0.994169)"
       x1="45.447727"
       y1="92.539597"
       x2="45.447727"
       y2="7.0165396"
       gradientUnits="userSpaceOnUse">
      <stop
         style="stop-color:#000000;stop-opacity:1;"
         offset="0"
         id="stop3750" />
      <stop
         style="stop-color:#000000;stop-opacity:0.58823532;"
         offset="1"
         id="stop3752" />
    </linearGradient>
    <linearGradient
       inkscape:collect="always"
       id="linearGradient3737">
      <stop
         style="stop-color:#ffffff;stop-opacity:1;"
         offset="0"
         id="stop3739" />
      <stop
         style="stop-color:#ffffff;stop-opacity:0;"
         offset="1"
         id="stop3741" />
    </linearGradient>
    <linearGradient
       id="linearGradient3700">
      <stop
         style="stop-color:#2276c5;stop-opacity:1;"
         offset="0"
         id="stop3702" />
      <stop
         style="stop-color:#68baf4;stop-opacity:1;"
         offset="1"
         id="stop3704" />
    </linearGradient>
    <inkscape:perspective
       sodipodi:type="inkscape:persp3d"
       inkscape:vp_x="0 : 526.18109 : 1"
       inkscape:vp_y="0 : 1000 : 0"
       inkscape:vp_z="744.09448 : 526.18109 : 1"
       inkscape:persp3d-origin="372.04724 : 350.78739 : 1"
       id="perspective2416" />
    <linearGradient
       inkscape:collect="always"
       xlink:href="#linearGradient3700"
       id="linearGradient3706"
       x1="48"
       y1="90"
       x2="48"
       y2="5.9877172"
       gradientUnits="userSpaceOnUse" />
    <linearGradient
       inkscape:collect="always"
       xlink:href="#linearGradient3737"
       id="linearGradient3743"
       x1="36.357143"
       y1="6"
       x2="36.357143"
       y2="63.893143"
       gradientUnits="userSpaceOnUse" />
    <filter
       inkscape:collect="always"
       id="filter3174"
       color-interpolation-filters="sRGB">
      <feGaussianBlur
         inkscape:collect="always"
         stdDeviation="1.71"
         id="feGaussianBlur3176" />
    </filter>
    <linearGradient
       inkscape:collect="always"
       xlink:href="#linearGradient3737"
       id="linearGradient3188"
       gradientUnits="userSpaceOnUse"
       x1="36.357143"
       y1="6"
       x2="36.357143"
       y2="63.893143" />
    <linearGradient
       inkscape:collect="always"
       xlink:href="#linearGradient3737"
       id="linearGradient3613"
       x1="48"
       y1="20.220806"
       x2="48"
       y2="138.66119"
       gradientUnits="userSpaceOnUse" />
    <radialGradient
       inkscape:collect="always"
       xlink:href="#linearGradient3737"
       id="radialGradient3619"
       cx="48"
       cy="90.171875"
       fx="48"
       fy="90.171875"
       r="42"
       gradientTransform="matrix(1.1573129,0,0,0.99590774,-7.5510206,0.19713193)"
       gradientUnits="userSpaceOnUse" />
    <clipPath
       clipPathUnits="userSpaceOnUse"
       id="clipPath3613">
      <rect
         ry="6"
         rx="6"
         y="6"
         x="6"
         height="84"
         width="84"
         id="rect3615"
         style="fill:#ffffff;fill-opacity:1;fill-rule:nonzero;stroke:none" />
    </clipPath>
    <linearGradient
       inkscape:collect="always"
       xlink:href="#linearGradient3700"
       id="linearGradient2843"
       gradientUnits="userSpaceOnUse"
       x1="48"
       y1="90"
       x2="48"
       y2="5.9877172"
       gradientTransform="translate(0,100)" />
    <linearGradient
       inkscape:collect="always"
       xlink:href="#linearGradient3700"
       id="linearGradient2848"
       gradientUnits="userSpaceOnUse"
       x1="48"
       y1="90"
       x2="48"
       y2="5.9877172" />
    <clipPath
       clipPathUnits="userSpaceOnUse"
       id="clipPath3625">
      <path
         style="fill:#ffffff;fill-opacity:1;stroke:none"
         d="M 0,0 0,96 96,96 96,0 0,0 z m 12,6 72,0 c 3.324,0 6,2.676 6,6 l 0,72 c 0,3.324 -2.676,6 -6,6 L 12,90 C 8.676,90 6,87.324 6,84 L 6,12 C 6,8.676 8.676,6 12,6 z"
         id="path3627" />
    </clipPath>
    <linearGradient
       inkscape:collect="always"
       xlink:href="#linearGradient3637"
       id="linearGradient3643"
       x1="44.512066"
       y1="6"
       x2="44.512066"
       y2="90.015434"
       gradientUnits="userSpaceOnUse" />
    <clipPath
       clipPathUnits="userSpaceOnUse"
       id="clipPath3649">
      <rect
         style="fill:#ffffff;fill-opacity:1;fill-rule:nonzero;stroke:none"
         id="rect3651"
         width="76"
         height="76"
         x="10"
         y="10"
         rx="4"
         ry="4" />
    </clipPath>
    <filter
       inkscape:collect="always"
       id="filter3657"
       color-interpolation-filters="sRGB">
      <feGaussianBlur
         inkscape:collect="always"
         stdDeviation="1.14"
         id="feGaussianBlur3659" />
    </filter>
    <clipPath
       clipPathUnits="userSpaceOnUse"
       id="clipPath3697">
      <rect
         style="fill:#ff0000;fill-opacity:1;fill-rule:nonzero;stroke:none"
         id="rect3699"
         width="76"
         height="76"
         x="10"
         y="10"
         rx="4"
         ry="4" />
    </clipPath>
    <inkscape:perspective
       id="perspective2927"
       inkscape:persp3d-origin="0.5 : 0.33333333 : 1"
       inkscape:vp_z="1 : 0.5 : 1"
       inkscape:vp_y="0 : 1000 : 0"
       inkscape:vp_x="0 : 0.5 : 1"
       sodipodi:type="inkscape:persp3d" />
    <linearGradient
       inkscape:collect="always"
       xlink:href="#linearGradient3309"
       id="linearGradient3804"
       gradientUnits="userSpaceOnUse"
       gradientTransform="matrix(1.2790652,0,0,1.2790652,17.302433,18.5815)"
       x1="20.758585"
       y1="1"
       x2="20.758585"
       y2="45.017357" />
    <linearGradient
       gradientUnits="userSpaceOnUse"
       id="linearGradient3309"
       y2="122.8994"
       x2="63.9995"
       y1="3.1001"
       x1="63.9995">
      <stop
         offset="0"
         style="stop-color:#f6f6f6;stop-opacity:1"
         id="stop3311" />
      <stop
         offset="1"
         style="stop-color:#d2d2d2;stop-opacity:1"
         id="stop3313" />
    </linearGradient>
    <linearGradient
       inkscape:collect="always"
       xlink:href="#linearGradient3397"
       id="linearGradient3806"
       gradientUnits="userSpaceOnUse"
       gradientTransform="matrix(1.2790652,0,0,1.2790652,17.302433,18.5815)"
       x1="37.201294"
       y1="1"
       x2="37.201294"
       y2="45" />
    <linearGradient
       id="linearGradient3397">
      <stop
         offset="0"
         style="stop-color:#aaa;stop-opacity:1"
         id="stop3399" />
      <stop
         offset="1"
         style="stop-color:#8c8c8c;stop-opacity:1"
         id="stop3401" />
    </linearGradient>
    <linearGradient
       y2="45.017357"
       x2="20.758585"
       y1="1"
       x1="20.758585"
       gradientTransform="matrix(1.2790652,0,0,1.2790652,17.302433,18.5815)"
       gradientUnits="userSpaceOnUse"
       id="linearGradient2940"
       xlink:href="#linearGradient3309"
       inkscape:collect="always" />
    <linearGradient
       inkscape:collect="always"
       xlink:href="#linearGradient4081"
       id="linearGradient3665"
       gradientUnits="userSpaceOnUse"
       gradientTransform="matrix(0.93022994,0,0,-0.93022994,23.674475,61.395341)"
       x1="20.758585"
       y1="1"
       x2="20.758585"
       y2="45.017357" />
    <linearGradient
       inkscape:collect="always"
       xlink:href="#linearGradient4081"
       id="linearGradient3669"
       gradientUnits="userSpaceOnUse"
       gradientTransform="matrix(0.47268421,0.12665535,0.12665535,-0.47268421,44.47921,74.733655)"
       x1="20.758585"
       y1="1"
       x2="20.758585"
       y2="45.017357" />
    <inkscape:perspective
       id="perspective2842"
       inkscape:persp3d-origin="0.5 : 0.33333333 : 1"
       inkscape:vp_z="1 : 0.5 : 1"
       inkscape:vp_y="0 : 1000 : 0"
       inkscape:vp_x="0 : 0.5 : 1"
       sodipodi:type="inkscape:persp3d" />
    <linearGradient
       inkscape:collect="always"
       xlink:href="#linearGradient4081"
       id="linearGradient3180"
       x1="-13"
       y1="17.008953"
       x2="-13"
       y2="-0.70032859"
       gradientUnits="userSpaceOnUse" />
    <linearGradient
       id="linearGradient4081">
      <stop
         style="stop-color:#aaaaaa;stop-opacity:1;"
         offset="0"
         id="stop4083" />
      <stop
         style="stop-color:#f0f0f0;stop-opacity:1;"
         offset="1"
         id="stop4085" />
    </linearGradient>
    <linearGradient
       y2="-0.70032859"
       x2="-13"
       y1="17.008953"
       x1="-13"
       gradientUnits="userSpaceOnUse"
       id="linearGradient2851"
       xlink:href="#linearGradient4081"
       inkscape:collect="always" />
    <linearGradient
       inkscape:collect="always"
       xlink:href="#linearGradient4081"
       id="linearGradient3692"
       gradientUnits="userSpaceOnUse"
       gradientTransform="matrix(0.93022994,0,0,-0.93022994,23.674475,61.395341)"
       x1="20.758585"
       y1="1"
       x2="20.758585"
       y2="45.017357" />
    <linearGradient
       inkscape:collect="always"
       xlink:href="#linearGradient4081"
       id="linearGradient3697"
       gradientUnits="userSpaceOnUse"
       gradientTransform="matrix(0.93022994,0,0,-0.93022994,23.674475,61.395341)"
       x1="20.758585"
       y1="1"
       x2="20.758585"
       y2="45.017357" />
    <linearGradient
       inkscape:collect="always"
       xlink:href="#linearGradient4081"
       id="linearGradient3701"
       gradientUnits="userSpaceOnUse"
       gradientTransform="matrix(0.93022994,0,0,-0.93022994,23.674475,61.395341)"
       x1="20.758585"
       y1="1"
       x2="20.758585"
       y2="45.017357" />
    <linearGradient
       inkscape:collect="always"
       xlink:href="#linearGradient4081"
       id="linearGradient3720"
       gradientUnits="userSpaceOnUse"
       gradientTransform="matrix(0.93022994,0,0,-0.93022994,23.674475,61.395341)"
       x1="20.758585"
       y1="1"
       x2="20.758585"
       y2="45.017357" />
    <linearGradient
       inkscape:collect="always"
       xlink:href="#linearGradient4081"
       id="linearGradient3725"
       gradientUnits="userSpaceOnUse"
       gradientTransform="matrix(0.93022994,0,0,-0.93022994,23.674475,62.395341)"
       x1="20.758585"
       y1="1"
       x2="20.758585"
       y2="45.017357" />
    <linearGradient
       inkscape:collect="always"
       xlink:href="#linearGradient4081"
       id="linearGradient3727"
       gradientUnits="userSpaceOnUse"
       gradientTransform="matrix(0.93022994,0,0,-0.93022994,23.674475,61.395341)"
       x1="20.758585"
       y1="1"
       x2="20.758585"
       y2="45.017357" />
    <inkscape:perspective
       id="perspective3025"
       inkscape:persp3d-origin="0.5 : 0.33333333 : 1"
       inkscape:vp_z="1 : 0.5 : 1"
       inkscape:vp_y="0 : 1000 : 0"
       inkscape:vp_x="0 : 0.5 : 1"
       sodipodi:type="inkscape:persp3d" />
    <linearGradient
       inkscape:collect="always"
       xlink:href="#StandardGradient"
       id="linearGradient3708"
       gradientUnits="userSpaceOnUse"
       gradientTransform="matrix(0,1,-1,0,96,0)"
       x1="29.826593"
       y1="51.954468"
       x2="65.693901"
       y2="51.954468" />
    <linearGradient
       id="StandardGradient"
       x1="11.347495"
       y1="5.999567"
       x2="11.347495"
       y2="16.013096"
       gradientUnits="userSpaceOnUse"
       gradientTransform="translate(-3,-2.9995677)">
      <stop
         id="stop3177"
         offset="0"
         style="stop-color:#000000;stop-opacity:0.86274511;" />
      <stop
         id="stop3179"
         offset="1"
         style="stop-color:#000000;stop-opacity:0.47058824;" />
    </linearGradient>
    <linearGradient
       y2="51.954468"
       x2="65.693901"
       y1="51.954468"
       x1="29.826593"
       gradientTransform="matrix(0,-1,-1,0,96,16)"
       gradientUnits="userSpaceOnUse"
       id="linearGradient3034"
       xlink:href="#linearGradient4081"
       inkscape:collect="always" />
    <linearGradient
       inkscape:collect="always"
       xlink:href="#linearGradient4081"
       id="linearGradient3831"
       gradientUnits="userSpaceOnUse"
       gradientTransform="matrix(0,-1,-1,0,96,97)"
       x1="29.826593"
       y1="51.954468"
       x2="65.693901"
       y2="51.954468" />
    <linearGradient
       inkscape:collect="always"
       xlink:href="#linearGradient4081"
       id="linearGradient3833"
       gradientUnits="userSpaceOnUse"
       gradientTransform="matrix(0,-1,-1,0,96,96)"
       x1="29.826593"
       y1="51.954468"
       x2="65.693901"
       y2="51.954468" />
    <linearGradient
       inkscape:collect="always"
       xlink:href="#linearGradient4081"
       id="linearGradient3682"
       gradientUnits="userSpaceOnUse"
       gradientTransform="matrix(0,-1,-1,0,96,96)"
       x1="29.826593"
       y1="51.954468"
       x2="65.693901"
       y2="51.954468" />
    <linearGradient
       inkscape:collect="always"
       xlink:href="#linearGradient4081"
       id="linearGradient3699"
       gradientUnits="userSpaceOnUse"
       gradientTransform="matrix(0,-1,-1,0,96,96)"
       x1="29.826593"
       y1="51.954468"
       x2="65.693901"
       y2="51.954468" />
    <linearGradient
       inkscape:collect="always"
       xlink:href="#linearGradient4081"
       id="linearGradient3705"
       gradientUnits="userSpaceOnUse"
       gradientTransform="matrix(0,-1,-1,0,36,16)"
       x1="29.826593"
       y1="51.954468"
       x2="65.693901"
       y2="51.954468" />
    <linearGradient
       inkscape:collect="always"
       xlink:href="#linearGradient4081"
       id="linearGradient3712"
       gradientUnits="userSpaceOnUse"
       gradientTransform="matrix(0,-1,-1,0,96,97)"
       x1="29.826593"
       y1="51.954468"
       x2="65.693901"
       y2="51.954468" />
    <linearGradient
       inkscape:collect="always"
       xlink:href="#linearGradient4081"
       id="linearGradient3714"
       gradientUnits="userSpaceOnUse"
       gradientTransform="matrix(0,-1,-1,0,96,96)"
       x1="29.826593"
       y1="51.954468"
       x2="65.693901"
       y2="51.954468" />
    <inkscape:perspective
       id="perspective2941"
       inkscape:persp3d-origin="0.5 : 0.33333333 : 1"
       inkscape:vp_z="1 : 0.5 : 1"
       inkscape:vp_y="0 : 1000 : 0"
       inkscape:vp_x="0 : 0.5 : 1"
       sodipodi:type="inkscape:persp3d" />
    <linearGradient
       inkscape:collect="always"
       xlink:href="#StandardGradient-8"
       id="linearGradient3708-7"
       gradientUnits="userSpaceOnUse"
       gradientTransform="matrix(0,1,-1,0,96,0)"
       x1="29.826593"
       y1="51.954468"
       x2="65.693901"
       y2="51.954468" />
    <linearGradient
       id="StandardGradient-8"
       x1="11.347495"
       y1="5.999567"
       x2="11.347495"
       y2="16.013096"
       gradientUnits="userSpaceOnUse"
       gradientTransform="translate(-3,-2.9995677)">
      <stop
         id="stop3177-6"
         offset="0"
         style="stop-color:#000000;stop-opacity:0.86274511;" />
      <stop
         id="stop3179-8"
         offset="1"
         style="stop-color:#000000;stop-opacity:0.47058824;" />
    </linearGradient>
    <linearGradient
       inkscape:collect="always"
       xlink:href="#StandardGradient-8"
       id="linearGradient2947"
       gradientUnits="userSpaceOnUse"
       gradientTransform="matrix(0,1,-1,0,183,0)"
       x1="29.826593"
       y1="51.954468"
       x2="65.693901"
       y2="51.954468" />
    <linearGradient
       inkscape:collect="always"
       xlink:href="#linearGradient4081"
       id="linearGradient3728"
       x1="56"
       y1="72"
       x2="56"
       y2="24"
       gradientUnits="userSpaceOnUse" />
    <linearGradient
       inkscape:collect="always"
       xlink:href="#linearGradient4081"
       id="linearGradient3710"
       x1="24"
       y1="48"
       x2="72"
       y2="48"
       gradientUnits="userSpaceOnUse"
       gradientTransform="matrix(0,-1,1,0,0,96)" />
    <linearGradient
       inkscape:collect="always"
       xlink:href="#linearGradient4081"
       id="linearGradient3716"
       gradientUnits="userSpaceOnUse"
       gradientTransform="matrix(0,-1,1,0,0,97)"
       x1="24"
       y1="48"
       x2="72"
       y2="48" />
    <linearGradient
       inkscape:collect="always"
       xlink:href="#linearGradient4081"
       id="linearGradient3718"
       gradientUnits="userSpaceOnUse"
       gradientTransform="matrix(0,-1,1,0,0,96)"
       x1="24"
       y1="48"
       x2="72"
       y2="48" />
    <linearGradient
       inkscape:collect="always"
       xlink:href="#linearGradient4081"
       id="linearGradient3723"
       gradientUnits="userSpaceOnUse"
       gradientTransform="matrix(0,-1,1,0,0,96)"
       x1="24"
       y1="48"
       x2="72"
       y2="48" />
    <linearGradient
       inkscape:collect="always"
       xlink:href="#linearGradient4081"
       id="linearGradient3729"
       gradientUnits="userSpaceOnUse"
       gradientTransform="matrix(0,-1,1,0,0,95)"
       x1="24"
       y1="48"
       x2="72"
       y2="48" />
    <linearGradient
       inkscape:collect="always"
       xlink:href="#linearGradient4081"
       id="linearGradient3702"
       x1="27"
       y1="48"
       x2="69"
       y2="48"
       gradientUnits="userSpaceOnUse"
       gradientTransform="matrix(0,-1,1,0,80,96)" />
    <linearGradient
       inkscape:collect="always"
       xlink:href="#linearGradient4081"
       id="linearGradient3709"
       gradientUnits="userSpaceOnUse"
       gradientTransform="matrix(0,-1,1,0,0,97)"
       x1="27"
       y1="48"
       x2="69"
       y2="48" />
    <linearGradient
       inkscape:collect="always"
       xlink:href="#linearGradient4081"
       id="linearGradient3711"
       gradientUnits="userSpaceOnUse"
       gradientTransform="matrix(0,-1,1,0,0,96)"
       x1="27"
       y1="48"
       x2="69"
       y2="48" />
    <linearGradient
       inkscape:collect="always"
       xlink:href="#linearGradient4081"
       id="linearGradient3719"
       gradientUnits="userSpaceOnUse"
       gradientTransform="matrix(0,-1,1,0,0,95)"
       x1="27"
       y1="48"
       x2="69"
       y2="48" />
    <linearGradient
       inkscape:collect="always"
       xlink:href="#linearGradient4081"
       id="linearGradient3721"
       gradientUnits="userSpaceOnUse"
       gradientTransform="matrix(0,-1,1,0,0,96)"
       x1="27"
       y1="48"
       x2="69"
       y2="48" />
    <inkscape:perspective
       id="perspective2860"
       inkscape:persp3d-origin="0.5 : 0.33333333 : 1"
       inkscape:vp_z="1 : 0.5 : 1"
       inkscape:vp_y="0 : 1000 : 0"
       inkscape:vp_x="0 : 0.5 : 1"
       sodipodi:type="inkscape:persp3d" />
    <linearGradient
       inkscape:collect="always"
       xlink:href="#StandardGradient-7"
       id="linearGradient2428"
       gradientUnits="userSpaceOnUse"
       gradientTransform="matrix(0.9247229,0,0,1.0872097,-3.0600562,0.9976422)"
       x1="11.998966"
       y1="0.92195445"
       x2="11.998966"
       y2="17.478098" />
    <linearGradient
       id="StandardGradient-7"
       gradientTransform="scale(0.9219544,1.0846523)"
       x1="11.998966"
       y1="0.92195445"
       x2="11.998966"
       y2="19.387045"
       gradientUnits="userSpaceOnUse">
      <stop
         style="stop-color:#000000;stop-opacity:0.86274511;"
         offset="0"
         id="stop3283" />
      <stop
         style="stop-color:#000000;stop-opacity:0.47058824;"
         offset="1"
         id="stop2651" />
    </linearGradient>
    <linearGradient
       y2="0.92195439"
       x2="18.44883"
       y1="17.478098"
       x1="18.44883"
       gradientTransform="matrix(2.4659278,0,0,2.8992258,10.506518,21.327046)"
       gradientUnits="userSpaceOnUse"
       id="linearGradient2869"
       xlink:href="#linearGradient4081"
       inkscape:collect="always" />
    <linearGradient
       inkscape:collect="always"
       xlink:href="#linearGradient4081"
       id="linearGradient3724"
       gradientUnits="userSpaceOnUse"
       gradientTransform="matrix(2.4659278,0,0,2.8992258,10.506518,22.327046)"
       x1="18.44883"
       y1="17.478098"
       x2="18.44883"
       y2="0.92195439" />
    <linearGradient
       inkscape:collect="always"
       xlink:href="#linearGradient4081"
       id="linearGradient3726"
       gradientUnits="userSpaceOnUse"
       gradientTransform="matrix(2.4659278,0,0,2.8992258,10.506518,21.327046)"
       x1="18.44883"
       y1="17.478098"
       x2="18.44883"
       y2="0.92195439" />
    <linearGradient
       inkscape:collect="always"
       xlink:href="#linearGradient4081"
       id="linearGradient3733"
       gradientUnits="userSpaceOnUse"
       gradientTransform="matrix(2.4659278,0,0,2.8992258,10.506518,20.327046)"
       x1="18.44883"
       y1="17.478098"
       x2="18.44883"
       y2="0.92195439" />
    <linearGradient
       inkscape:collect="always"
       xlink:href="#linearGradient4081"
       id="linearGradient3735"
       gradientUnits="userSpaceOnUse"
       gradientTransform="matrix(2.4659278,0,0,2.8992258,10.506518,21.327046)"
       x1="18.44883"
       y1="17.478098"
       x2="18.44883"
       y2="0.92195439" />
    <inkscape:perspective
       id="perspective2853"
       inkscape:persp3d-origin="0.5 : 0.33333333 : 1"
       inkscape:vp_z="1 : 0.5 : 1"
       inkscape:vp_y="0 : 1000 : 0"
       inkscape:vp_x="0 : 0.5 : 1"
       sodipodi:type="inkscape:persp3d" />
    <linearGradient
       inkscape:collect="always"
       xlink:href="#StandardGradient-78"
       id="linearGradient2410"
       gradientUnits="userSpaceOnUse"
       gradientTransform="matrix(0.9247229,0,0,1.0872097,-7.0600562,-1.0023578)"
       x1="11.998966"
       y1="1.8417401"
       x2="11.998966"
       y2="20.238579" />
    <linearGradient
       id="StandardGradient-78"
       gradientTransform="scale(0.9219544,1.0846523)"
       x1="11.998966"
       y1="0.92195445"
       x2="11.998966"
       y2="19.387045"
       gradientUnits="userSpaceOnUse">
      <stop
         style="stop-color:#000000;stop-opacity:0.86274511;"
         offset="0"
         id="stop3283-6" />
      <stop
         style="stop-color:#000000;stop-opacity:0.47058824;"
         offset="1"
         id="stop2651-8" />
    </linearGradient>
    <linearGradient
       y2="1.8417403"
       x2="19.530235"
       y1="20.237455"
       x1="19.530235"
       gradientTransform="matrix(2.219335,0,0,2.6093033,4.655865,19.194341)"
       gradientUnits="userSpaceOnUse"
       id="linearGradient2862"
       xlink:href="#linearGradient4081"
       inkscape:collect="always" />
    <linearGradient
       inkscape:collect="always"
       xlink:href="#linearGradient4081"
       id="linearGradient3730"
       gradientUnits="userSpaceOnUse"
       gradientTransform="matrix(2.219335,0,0,2.6093033,4.655865,20.194341)"
       x1="19.530235"
       y1="20.237455"
       x2="19.530235"
       y2="1.8417403" />
    <linearGradient
       inkscape:collect="always"
       xlink:href="#linearGradient4081"
       id="linearGradient3732"
       gradientUnits="userSpaceOnUse"
       gradientTransform="matrix(2.219335,0,0,2.6093033,4.655865,19.194341)"
       x1="19.530235"
       y1="20.237455"
       x2="19.530235"
       y2="1.8417403" />
    <linearGradient
       inkscape:collect="always"
       xlink:href="#linearGradient4081"
       id="linearGradient3739"
       gradientUnits="userSpaceOnUse"
       gradientTransform="matrix(2.219335,0,0,2.6093033,4.655865,18.194341)"
       x1="19.530235"
       y1="20.237455"
       x2="19.530235"
       y2="1.8417403" />
    <linearGradient
       inkscape:collect="always"
       xlink:href="#linearGradient4081"
       id="linearGradient3741"
       gradientUnits="userSpaceOnUse"
       gradientTransform="matrix(2.219335,0,0,2.6093033,4.655865,19.194341)"
       x1="19.530235"
       y1="20.237455"
       x2="19.530235"
       y2="1.8417403" />
    <linearGradient
       y2="90.238609"
       x2="32.251034"
       y1="6.1317081"
       x1="32.251034"
       gradientTransform="matrix(1.0238095,0,0,-1.0119048,-1.1428571,98.071429)"
       gradientUnits="userSpaceOnUse"
       id="linearGradient3016"
       xlink:href="#ButtonShadow-0"
       inkscape:collect="always" />
    <linearGradient
       id="ButtonShadow-0"
       gradientTransform="matrix(1.0058652,0,0,0.994169,100,0)"
       x1="45.447727"
       y1="92.539597"
       x2="45.447727"
       y2="7.0165396"
       gradientUnits="userSpaceOnUse">
      <stop
         style="stop-color:#000000;stop-opacity:1;"
         offset="0"
         id="stop3750-8" />
      <stop
         style="stop-color:#000000;stop-opacity:0.58823532;"
         offset="1"
         id="stop3752-5" />
    </linearGradient>
    <linearGradient
       inkscape:collect="always"
       xlink:href="#ButtonShadow-0"
       id="linearGradient3780"
       gradientUnits="userSpaceOnUse"
       gradientTransform="matrix(1.0238095,0,0,-1.0119048,-1.1428571,98.071429)"
       x1="32.251034"
       y1="6.1317081"
       x2="32.251034"
       y2="90.238609" />
    <linearGradient
       id="linearGradient3184"
       gradientTransform="matrix(1.0058652,0,0,0.994169,100,0)"
       x1="45.447727"
       y1="92.539597"
       x2="45.447727"
       y2="7.0165396"
       gradientUnits="userSpaceOnUse">
      <stop
         style="stop-color:#000000;stop-opacity:1;"
         offset="0"
         id="stop3186" />
      <stop
         style="stop-color:#000000;stop-opacity:0.58823532;"
         offset="1"
         id="stop3188" />
    </linearGradient>
    <linearGradient
       inkscape:collect="always"
       xlink:href="#ButtonShadow-0"
       id="linearGradient3772"
       gradientUnits="userSpaceOnUse"
       gradientTransform="matrix(1.0238095,0,0,-1.0119048,-1.1428571,98.071429)"
       x1="32.251034"
       y1="6.1317081"
       x2="32.251034"
       y2="90.238609" />
    <linearGradient
       id="linearGradient3191"
       gradientTransform="matrix(1.0058652,0,0,0.994169,100,0)"
       x1="45.447727"
       y1="92.539597"
       x2="45.447727"
       y2="7.0165396"
       gradientUnits="userSpaceOnUse">
      <stop
         style="stop-color:#000000;stop-opacity:1;"
         offset="0"
         id="stop3193" />
      <stop
         style="stop-color:#000000;stop-opacity:0.58823532;"
         offset="1"
         id="stop3195" />
    </linearGradient>
    <linearGradient
       inkscape:collect="always"
       xlink:href="#ButtonShadow-0"
       id="linearGradient3725-9"
       gradientUnits="userSpaceOnUse"
       gradientTransform="matrix(1.0238095,0,0,-1.0119048,-1.1428571,98.071429)"
       x1="32.251034"
       y1="6.1317081"
       x2="32.251034"
       y2="90.238609" />
    <linearGradient
       id="linearGradient3198"
       gradientTransform="matrix(1.0058652,0,0,0.994169,100,0)"
       x1="45.447727"
       y1="92.539597"
       x2="45.447727"
       y2="7.0165396"
       gradientUnits="userSpaceOnUse">
      <stop
         style="stop-color:#000000;stop-opacity:1;"
         offset="0"
         id="stop3200" />
      <stop
         style="stop-color:#000000;stop-opacity:0.58823532;"
         offset="1"
         id="stop3202" />
    </linearGradient>
    <linearGradient
       inkscape:collect="always"
       xlink:href="#ButtonShadow-0"
       id="linearGradient3721-7"
       gradientUnits="userSpaceOnUse"
       gradientTransform="matrix(1,0,0,-1,0,97)"
       x1="32.251034"
       y1="6.1317081"
       x2="32.251034"
       y2="90.238609" />
    <linearGradient
       id="linearGradient3205"
       gradientTransform="matrix(1.0058652,0,0,0.994169,100,0)"
       x1="45.447727"
       y1="92.539597"
       x2="45.447727"
       y2="7.0165396"
       gradientUnits="userSpaceOnUse">
      <stop
         style="stop-color:#000000;stop-opacity:1;"
         offset="0"
         id="stop3207" />
      <stop
         style="stop-color:#000000;stop-opacity:0.58823532;"
         offset="1"
         id="stop3209" />
    </linearGradient>
    <linearGradient
       y2="90.238609"
       x2="32.251034"
       y1="6.1317081"
       x1="32.251034"
       gradientTransform="matrix(1.0238095,0,0,-1.0119048,-1.1428571,98.071429)"
       gradientUnits="userSpaceOnUse"
       id="linearGradient3216"
       xlink:href="#ButtonShadow-0"
       inkscape:collect="always" />
    <linearGradient
       inkscape:collect="always"
       xlink:href="#linearGradient3737-5"
       id="linearGradient3188-4"
       gradientUnits="userSpaceOnUse"
       x1="36.357143"
       y1="6"
       x2="36.357143"
       y2="63.893143" />
    <linearGradient
       inkscape:collect="always"
       id="linearGradient3737-5">
      <stop
         style="stop-color:#ffffff;stop-opacity:1;"
         offset="0"
         id="stop3739-0" />
      <stop
         style="stop-color:#ffffff;stop-opacity:0;"
         offset="1"
         id="stop3741-0" />
    </linearGradient>
    <radialGradient
       inkscape:collect="always"
       xlink:href="#linearGradient3737-5"
       id="radialGradient3619-2"
       cx="48"
       cy="90.171875"
       fx="48"
       fy="90.171875"
       r="42"
       gradientTransform="matrix(1.1573129,0,0,0.99590774,-7.551021,0.1971319)"
       gradientUnits="userSpaceOnUse" />
  </defs>
  <sodipodi:namedview
     id="base"
     pagecolor="#ffffff"
     bordercolor="#666666"
     borderopacity="1.0"
     inkscape:pageopacity="0.0"
     inkscape:pageshadow="2"
     inkscape:zoom="5.7892197"
     inkscape:cx="39.144787"
     inkscape:cy="59.396811"
     inkscape:document-units="px"
     inkscape:current-layer="layer11"
     showgrid="true"
     showborder="true"
     inkscape:showpageshadow="false"
     inkscape:window-width="1920"
     inkscape:window-height="1029"
     inkscape:window-x="0"
     inkscape:window-y="25"
     inkscape:window-maximized="1"
     inkscape:snap-global="false"
     showguides="true"
     inkscape:guide-bbox="true">
    <inkscape:grid
       type="xygrid"
       id="grid3732"
       visible="true"
       enabled="true" />
  </sodipodi:namedview>
  <metadata
     id="metadata2413">
    <rdf:RDF>
      <cc:Work
         rdf:about="">
        <dc:format>image/svg+xml</dc:format>
        <dc:type
           rdf:resource="http://purl.org/dc/dcmitype/StillImage" />
      </cc:Work>
    </rdf:RDF>
  </metadata>
  <g
     inkscape:groupmode="layer"
     id="layer2"
     inkscape:label="Blur Shadow"
     style="display:none"
     sodipodi:insensitive="true">
    <rect
       style="opacity:0.9;fill:url(#ButtonShadow);fill-opacity:1;fill-rule:nonzero;stroke:none;filter:url(#filter3174)"
       id="rect3745"
       width="86"
       height="85"
       x="5"
       y="7"
       rx="6"
       ry="6"
       clip-path="url(#clipPath3625)" />
  </g>
  <g
     inkscape:groupmode="layer"
     id="layer4"
     inkscape:label="Shadow"
     style="display:inline"
     sodipodi:insensitive="true">
    <path
       style="opacity:0.07999998;fill:url(#linearGradient3216);fill-opacity:1;fill-rule:nonzero;stroke:none;display:inline"
       d="M 12,3.96875 C 6.4889098,3.96875 1.96875,8.4889098 1.96875,14 l 0,71 c 0,5.51109 4.5201597,10.03125 10.03125,10.03125 l 72,0 c 5.51109,0 10.03125,-4.52016 10.03125,-10.03125 l 0,-71 C 94.03125,8.4889097 89.51109,3.96875 84,3.96875 l -72,0 z M 12,6 84,6 c 3.324,0 6,2.676 6,6 l 0,72 c 0,3.324 -2.676,6 -6,6 L 12,90 C 8.676,90 6,87.324 6,84 L 6,12 C 6,8.676 8.676,6 12,6 z"
       id="path3786"
       inkscape:connector-curvature="0" />
    <path
       style="opacity:0.1;fill:url(#linearGradient3780);fill-opacity:1;fill-rule:nonzero;stroke:none;display:inline"
       d="M 12,4.96875 C 7.0283671,4.96875 2.96875,9.0283671 2.96875,14 l 0,71 c 0,4.971633 4.059617,9.03125 9.03125,9.03125 l 72,0 c 4.971633,0 9.03125,-4.059617 9.03125,-9.03125 l 0,-71 C 93.03125,9.028367 88.971633,4.96875 84,4.96875 l -72,0 z M 12,6 84,6 c 3.324,0 6,2.676 6,6 l 0,72 c 0,3.324 -2.676,6 -6,6 L 12,90 C 8.676,90 6,87.324 6,84 L 6,12 C 6,8.676 8.676,6 12,6 z"
       id="path3778"
       inkscape:connector-curvature="0" />
    <path
       style="opacity:0.2;fill:url(#linearGradient3772);fill-opacity:1;fill-rule:nonzero;stroke:none;display:inline"
       d="M 11.1875,6.03125 C 7.159982,6.4419011 4,9.8664375 4,14 l 0,71 c 0,4.409133 3.590867,8 8,8 l 72,0 c 4.409133,0 8,-3.590867 8,-8 L 92,14 C 92,9.8029382 88.741028,6.3539584 84.625,6.03125 87.657886,6.337417 90,8.88375 90,12 l 0,72 c 0,3.324 -2.676,6 -6,6 L 12,90 C 8.676,90 6,87.324 6,84 L 6,12 c 0,-3.11625 2.342114,-5.662583 5.375,-5.96875 -0.06227,0.00488 -0.12563,-0.00631 -0.1875,0 z"
       id="path3770"
       inkscape:connector-curvature="0" />
    <path
       style="opacity:0.3;fill:url(#linearGradient3725-9);fill-opacity:1;fill-rule:nonzero;stroke:none;display:inline"
       d="M 6.4375,9.75 C 5.5380109,10.927446 5,12.397277 5,14 l 0,71 c 0,3.878 3.122,7 7,7 l 72,0 c 3.878,0 7,-3.122 7,-7 L 91,14 C 91,12.397277 90.461989,10.927446 89.5625,9.75 89.841816,10.444095 90,11.203625 90,12 l 0,72 c 0,3.324 -2.676,6 -6,6 L 12,90 C 8.676,90 6,87.324 6,84 L 6,12 C 6,11.203625 6.1581836,10.444095 6.4375,9.75 z"
       id="rect3723"
       inkscape:connector-curvature="0" />
    <path
       style="opacity:0.45;fill:url(#linearGradient3721-7);fill-opacity:1;fill-rule:nonzero;stroke:none;display:inline"
       d="m 6,84 0,1 c 0,3.324 2.676,6 6,6 l 72,0 c 3.324,0 6,-2.676 6,-6 l 0,-1 c 0,3.324 -2.676,6 -6,6 L 12,90 C 8.676,90 6,87.324 6,84 z"
       id="rect3716"
       inkscape:connector-curvature="0" />
  </g>
  <g
     inkscape:label="Button with border"
     inkscape:groupmode="layer"
     id="layer1"
     sodipodi:insensitive="true"
     style="display:none">
    <rect
       style="opacity:0.7;fill:#000000;fill-opacity:1;fill-rule:nonzero;stroke:none"
       id="rect2419"
       width="84"
       height="84"
       x="6"
       y="6"
       rx="6"
       ry="6" />
    <path
       style="opacity:0.07999998;fill:#000000;fill-opacity:1;fill-rule:nonzero;stroke:none"
       d="m 14,10 c -2.216,0 -4,1.784 -4,4 l 0,68 c 0,2.216 1.784,4 4,4 l 68,0 c 2.216,0 4,-1.784 4,-4 l 0,-68 c 0,-2.216 -1.784,-4 -4,-4 l -68,0 z m 0,3.0625 68,0 c 0.578769,0 0.9375,0.358731 0.9375,0.9375 l 0,68 c 0,0.578769 -0.358731,0.9375 -0.9375,0.9375 l -68,0 c -0.578769,0 -0.9375,-0.358731 -0.9375,-0.9375 l 0,-68 c 0,-0.578769 0.358731,-0.9375 0.9375,-0.9375 z"
       id="rect3726"
       inkscape:connector-curvature="0" />
    <path
       style="fill:url(#linearGradient3643);fill-opacity:1;fill-rule:nonzero;stroke:none"
       d="M 12,6 C 8.676,6 6,8.676 6,12 l 0,72 c 0,3.324 2.676,6 6,6 l 72,0 c 3.324,0 6,-2.676 6,-6 L 90,12 C 90,8.676 87.324,6 84,6 L 12,6 z m 2,4 68,0 c 2.216,0 4,1.784 4,4 l 0,68 c 0,2.216 -1.784,4 -4,4 l -68,0 c -2.216,0 -4,-1.784 -4,-4 l 0,-68 c 0,-2.216 1.784,-4 4,-4 z"
       id="rect3629"
       inkscape:connector-curvature="0" />
    <path
       style="fill:url(#linearGradient3188);fill-opacity:1;fill-rule:nonzero;stroke:none"
       d="M 12,6 C 8.676,6 6,8.676 6,12 l 0,2 0,68 0,2 c 0,0.334721 0.04135,0.6507 0.09375,0.96875 0.0487,0.295596 0.09704,0.596915 0.1875,0.875 0.00988,0.03038 0.020892,0.0636 0.03125,0.09375 0.098865,0.287771 0.2348802,0.547452 0.375,0.8125 0.1445918,0.273507 0.3156161,0.535615 0.5,0.78125 0.1843839,0.245635 0.3737765,0.473472 0.59375,0.6875 0.439947,0.428056 0.94291,0.814526 1.5,1.09375 0.278545,0.139612 0.5734731,0.246947 0.875,0.34375 -0.2562018,-0.100222 -0.4867109,-0.236272 -0.71875,-0.375 -0.00741,-0.0044 -0.023866,0.0045 -0.03125,0 -0.031933,-0.0193 -0.062293,-0.04251 -0.09375,-0.0625 -0.120395,-0.0767 -0.2310226,-0.163513 -0.34375,-0.25 -0.1061728,-0.0808 -0.2132809,-0.161112 -0.3125,-0.25 C 8.4783201,88.557317 8.3087904,88.373362 8.15625,88.1875 8.0486711,88.057245 7.9378561,87.922215 7.84375,87.78125 7.818661,87.74287 7.805304,87.69538 7.78125,87.65625 7.716487,87.553218 7.6510225,87.451733 7.59375,87.34375 7.4927417,87.149044 7.3880752,86.928049 7.3125,86.71875 7.30454,86.69694 7.288911,86.6782 7.28125,86.65625 7.2494249,86.5643 7.2454455,86.469419 7.21875,86.375 7.1884177,86.268382 7.1483606,86.171969 7.125,86.0625 7.0521214,85.720988 7,85.364295 7,85 L 7,83 7,15 7,13 C 7,10.218152 9.2181517,8 12,8 l 2,0 68,0 2,0 c 2.781848,0 5,2.218152 5,5 l 0,2 0,68 0,2 c 0,0.364295 -0.05212,0.720988 -0.125,1.0625 -0.04415,0.206893 -0.08838,0.397658 -0.15625,0.59375 -0.0077,0.02195 -0.0233,0.04069 -0.03125,0.0625 -0.06274,0.173739 -0.138383,0.367449 -0.21875,0.53125 -0.04158,0.0828 -0.07904,0.169954 -0.125,0.25 -0.0546,0.09721 -0.126774,0.18835 -0.1875,0.28125 -0.09411,0.140965 -0.204921,0.275995 -0.3125,0.40625 -0.143174,0.17445 -0.303141,0.346998 -0.46875,0.5 -0.01117,0.0102 -0.01998,0.02115 -0.03125,0.03125 -0.138386,0.125556 -0.285091,0.234436 -0.4375,0.34375 -0.102571,0.07315 -0.204318,0.153364 -0.3125,0.21875 -0.0074,0.0045 -0.02384,-0.0044 -0.03125,0 -0.232039,0.138728 -0.462548,0.274778 -0.71875,0.375 0.301527,-0.0968 0.596455,-0.204138 0.875,-0.34375 0.55709,-0.279224 1.060053,-0.665694 1.5,-1.09375 0.219973,-0.214028 0.409366,-0.441865 0.59375,-0.6875 0.184384,-0.245635 0.355408,-0.507743 0.5,-0.78125 0.14012,-0.265048 0.276135,-0.524729 0.375,-0.8125 0.01041,-0.03078 0.02133,-0.06274 0.03125,-0.09375 0.09046,-0.278085 0.1388,-0.579404 0.1875,-0.875 C 89.95865,84.6507 90,84.334721 90,84 l 0,-2 0,-68 0,-2 C 90,8.676 87.324,6 84,6 L 12,6 z"
       id="rect3728"
       inkscape:connector-curvature="0" />
    <path
       id="path3615"
       d="M 12,90 C 8.676,90 6,87.324 6,84 L 6,82 6,14 6,12 c 0,-0.334721 0.04135,-0.6507 0.09375,-0.96875 0.0487,-0.295596 0.09704,-0.596915 0.1875,-0.875 C 6.29113,10.12587 6.302142,10.09265 6.3125,10.0625 6.411365,9.774729 6.5473802,9.515048 6.6875,9.25 6.8320918,8.976493 7.0031161,8.714385 7.1875,8.46875 7.3718839,8.223115 7.5612765,7.995278 7.78125,7.78125 8.221197,7.353194 8.72416,6.966724 9.28125,6.6875 9.559795,6.547888 9.8547231,6.440553 10.15625,6.34375 9.9000482,6.443972 9.6695391,6.580022 9.4375,6.71875 c -0.00741,0.0044 -0.023866,-0.0045 -0.03125,0 -0.031933,0.0193 -0.062293,0.04251 -0.09375,0.0625 -0.120395,0.0767 -0.2310226,0.163513 -0.34375,0.25 -0.1061728,0.0808 -0.2132809,0.161112 -0.3125,0.25 C 8.4783201,7.442683 8.3087904,7.626638 8.15625,7.8125 8.0486711,7.942755 7.9378561,8.077785 7.84375,8.21875 7.818661,8.25713 7.805304,8.30462 7.78125,8.34375 7.716487,8.446782 7.6510225,8.548267 7.59375,8.65625 7.4927417,8.850956 7.3880752,9.071951 7.3125,9.28125 7.30454,9.30306 7.288911,9.3218 7.28125,9.34375 7.2494249,9.4357 7.2454455,9.530581 7.21875,9.625 7.1884177,9.731618 7.1483606,9.828031 7.125,9.9375 7.0521214,10.279012 7,10.635705 7,11 l 0,2 0,68 0,2 c 0,2.781848 2.2181517,5 5,5 l 2,0 68,0 2,0 c 2.781848,0 5,-2.218152 5,-5 l 0,-2 0,-68 0,-2 C 89,10.635705 88.94788,10.279012 88.875,9.9375 88.83085,9.730607 88.78662,9.539842 88.71875,9.34375 88.71105,9.3218 88.69545,9.30306 88.6875,9.28125 88.62476,9.107511 88.549117,8.913801 88.46875,8.75 88.42717,8.6672 88.38971,8.580046 88.34375,8.5 88.28915,8.40279 88.216976,8.31165 88.15625,8.21875 88.06214,8.077785 87.951329,7.942755 87.84375,7.8125 87.700576,7.63805 87.540609,7.465502 87.375,7.3125 87.36383,7.3023 87.35502,7.29135 87.34375,7.28125 87.205364,7.155694 87.058659,7.046814 86.90625,6.9375 86.803679,6.86435 86.701932,6.784136 86.59375,6.71875 c -0.0074,-0.0045 -0.02384,0.0044 -0.03125,0 -0.232039,-0.138728 -0.462548,-0.274778 -0.71875,-0.375 0.301527,0.0968 0.596455,0.204138 0.875,0.34375 0.55709,0.279224 1.060053,0.665694 1.5,1.09375 0.219973,0.214028 0.409366,0.441865 0.59375,0.6875 0.184384,0.245635 0.355408,0.507743 0.5,0.78125 0.14012,0.265048 0.276135,0.524729 0.375,0.8125 0.01041,0.03078 0.02133,0.06274 0.03125,0.09375 0.09046,0.278085 0.1388,0.579404 0.1875,0.875 C 89.95865,11.3493 90,11.665279 90,12 l 0,2 0,68 0,2 c 0,3.324 -2.676,6 -6,6 l -72,0 z"
       style="opacity:0.6;fill:url(#radialGradient3619);fill-opacity:1;fill-rule:nonzero;stroke:none"
       inkscape:connector-curvature="0" />
    <rect
       ry="6"
       rx="6"
       y="106"
       x="6"
       height="84"
       width="84"
       id="rect2841"
       style="fill:url(#linearGradient2843);fill-opacity:1;fill-rule:nonzero;stroke:none" />
    <rect
       ry="4"
       rx="4"
       y="110"
       x="10"
       height="76"
       width="76"
       id="rect3634"
       style="fill:#ff0000;fill-opacity:1;fill-rule:nonzero;stroke:none" />
    <path
       style="font-size:medium;font-style:normal;font-variant:normal;font-weight:normal;font-stretch:normal;text-indent:0;text-align:start;text-decoration:none;line-height:normal;letter-spacing:normal;word-spacing:normal;text-transform:none;direction:ltr;block-progression:tb;writing-mode:lr-tb;text-anchor:start;color:#000000;fill:#000000;fill-opacity:1;stroke:none;stroke-width:2;marker:none;visibility:visible;display:inline;overflow:visible;filter:url(#filter3657);enable-background:accumulate;font-family:Abandoned Bitplane;-inkscape-font-specification:Abandoned Bitplane"
       d="m 14,9 c -2.752703,0 -5,2.247297 -5,5 l 0,68 c 0,2.752703 2.247297,5 5,5 l 68,0 c 2.752703,0 5,-2.247297 5,-5 L 87,14 C 87,11.247297 84.752703,9 82,9 L 14,9 z m 0,2 68,0 c 1.679297,0 3,1.320703 3,3 l 0,68 c 0,1.679297 -1.320703,3 -3,3 l -68,0 c -1.679297,0 -3,-1.320703 -3,-3 l 0,-68 c 0,-1.679297 1.320703,-3 3,-3 z"
       clip-path="url(#clipPath3649)"
       id="rect3647"
       transform="translate(-110,0)"
       inkscape:connector-curvature="0" />
    <path
       style="opacity:0.16000001;fill:#000000;fill-opacity:1;fill-rule:nonzero;stroke:none"
       d="m 14.089286,10 c -2.216,0 -4,1.784 -4,4 l 0,68 c 0,2.216 1.784,4 4,4 l 68,0 c 2.216,0 4,-1.784 4,-4 l 0,-68 c 0,-2.216 -1.784,-4 -4,-4 l -68,0 z m 0,2 68,0 c 1.140301,0 2,0.859699 2,2 l 0,68 c 0,1.140301 -0.859699,2 -2,2 l -68,0 c -1.140301,0 -2,-0.859699 -2,-2 l 0,-68 c 0,-1.140301 0.859699,-2 2,-2 z"
       id="path3709"
       inkscape:connector-curvature="0" />
    <path
       style="opacity:0.36000001;fill:#000000;fill-opacity:1;fill-rule:nonzero;stroke:none"
       d="m 14,10 c -2.216,0 -4,1.784 -4,4 l 0,68 c 0,2.216 1.784,4 4,4 l 68,0 c 2.216,0 4,-1.784 4,-4 l 0,-68 c 0,-2.216 -1.784,-4 -4,-4 l -68,0 z m 0,1 68,0 c 1.673848,0 3,1.326152 3,3 l 0,68 c 0,1.673848 -1.326152,3 -3,3 l -68,0 c -1.673848,0 -3,-1.326152 -3,-3 l 0,-68 c 0,-1.673848 1.326152,-3 3,-3 z"
       id="path3707"
       inkscape:connector-curvature="0" />
  </g>
  <g
     inkscape:groupmode="layer"
     id="layer11"
     inkscape:label="Button"
     style="display:inline">
    <rect
       style="opacity:0.6;fill:#000000;fill-opacity:1;fill-rule:nonzero;stroke:none;display:inline"
       id="rect2419-6"
       width="84"
       height="84"
       x="6"
       y="6"
       rx="6"
       ry="6" />
    <path
       style="opacity:0.01000001;fill:url(#linearGradient3188-4);fill-opacity:1;fill-rule:nonzero;stroke:none;display:inline"
       d="M 12,6 C 8.676,6 6,8.676 6,12 l 0,2 0,68 0,2 c 0,0.334721 0.04135,0.6507 0.09375,0.96875 0.0487,0.295596 0.09704,0.596915 0.1875,0.875 0.00988,0.03038 0.020892,0.0636 0.03125,0.09375 0.098865,0.287771 0.2348802,0.547452 0.375,0.8125 0.1445918,0.273507 0.3156161,0.535615 0.5,0.78125 0.1843839,0.245635 0.3737765,0.473472 0.59375,0.6875 0.439947,0.428056 0.94291,0.814526 1.5,1.09375 0.278545,0.139612 0.5734731,0.246947 0.875,0.34375 -0.2562018,-0.100222 -0.4867109,-0.236272 -0.71875,-0.375 -0.00741,-0.0044 -0.023866,0.0045 -0.03125,0 -0.031933,-0.0193 -0.062293,-0.04251 -0.09375,-0.0625 -0.120395,-0.0767 -0.2310226,-0.163513 -0.34375,-0.25 -0.1061728,-0.0808 -0.2132809,-0.161112 -0.3125,-0.25 C 8.4783201,88.557317 8.3087904,88.373362 8.15625,88.1875 8.0486711,88.057245 7.9378561,87.922215 7.84375,87.78125 7.818661,87.74287 7.805304,87.69538 7.78125,87.65625 7.716487,87.553218 7.6510225,87.451733 7.59375,87.34375 7.4927417,87.149044 7.3880752,86.928049 7.3125,86.71875 7.30454,86.69694 7.288911,86.6782 7.28125,86.65625 7.2494249,86.5643 7.2454455,86.469419 7.21875,86.375 7.1884177,86.268382 7.1483606,86.171969 7.125,86.0625 7.0521214,85.720988 7,85.364295 7,85 L 7,83 7,15 7,13 C 7,10.218152 9.2181517,8 12,8 l 2,0 68,0 2,0 c 2.781848,0 5,2.218152 5,5 l 0,2 0,68 0,2 c 0,0.364295 -0.05212,0.720988 -0.125,1.0625 -0.04415,0.206893 -0.08838,0.397658 -0.15625,0.59375 -0.0077,0.02195 -0.0233,0.04069 -0.03125,0.0625 -0.06274,0.173739 -0.138383,0.367449 -0.21875,0.53125 -0.04158,0.0828 -0.07904,0.169954 -0.125,0.25 -0.0546,0.09721 -0.126774,0.18835 -0.1875,0.28125 -0.09411,0.140965 -0.204921,0.275995 -0.3125,0.40625 -0.143174,0.17445 -0.303141,0.346998 -0.46875,0.5 -0.01117,0.0102 -0.01998,0.02115 -0.03125,0.03125 -0.138386,0.125556 -0.285091,0.234436 -0.4375,0.34375 -0.102571,0.07315 -0.204318,0.153364 -0.3125,0.21875 -0.0074,0.0045 -0.02384,-0.0044 -0.03125,0 -0.232039,0.138728 -0.462548,0.274778 -0.71875,0.375 0.301527,-0.0968 0.596455,-0.204138 0.875,-0.34375 0.55709,-0.279224 1.060053,-0.665694 1.5,-1.09375 0.219973,-0.214028 0.409366,-0.441865 0.59375,-0.6875 0.184384,-0.245635 0.355408,-0.507743 0.5,-0.78125 0.14012,-0.265048 0.276135,-0.524729 0.375,-0.8125 0.01041,-0.03078 0.02133,-0.06274 0.03125,-0.09375 0.09046,-0.278085 0.1388,-0.579404 0.1875,-0.875 C 89.95865,84.6507 90,84.334721 90,84 l 0,-2 0,-68 0,-2 C 90,8.676 87.324,6 84,6 L 12,6 z"
       id="rect3728-9"
       inkscape:connector-curvature="0" />
    <path
       id="path3615-4"
       d="M 12,90 C 8.676,90 6,87.324 6,84 L 6,82 6,14 6,12 c 0,-0.334721 0.04135,-0.6507 0.09375,-0.96875 0.0487,-0.295596 0.09704,-0.596915 0.1875,-0.875 C 6.29113,10.12587 6.302142,10.09265 6.3125,10.0625 6.411365,9.774729 6.5473802,9.515048 6.6875,9.25 6.8320918,8.976493 7.0031161,8.714385 7.1875,8.46875 7.3718839,8.223115 7.5612765,7.995278 7.78125,7.78125 8.221197,7.353194 8.72416,6.966724 9.28125,6.6875 9.559795,6.547888 9.8547231,6.440553 10.15625,6.34375 9.9000482,6.443972 9.6695391,6.580022 9.4375,6.71875 c -0.00741,0.0044 -0.023866,-0.0045 -0.03125,0 -0.031933,0.0193 -0.062293,0.04251 -0.09375,0.0625 -0.120395,0.0767 -0.2310226,0.163513 -0.34375,0.25 -0.1061728,0.0808 -0.2132809,0.161112 -0.3125,0.25 C 8.4783201,7.442683 8.3087904,7.626638 8.15625,7.8125 8.0486711,7.942755 7.9378561,8.077785 7.84375,8.21875 7.818661,8.25713 7.805304,8.30462 7.78125,8.34375 7.716487,8.446782 7.6510225,8.548267 7.59375,8.65625 7.4927417,8.850956 7.3880752,9.071951 7.3125,9.28125 7.30454,9.30306 7.288911,9.3218 7.28125,9.34375 7.2494249,9.4357 7.2454455,9.530581 7.21875,9.625 7.1884177,9.731618 7.1483606,9.828031 7.125,9.9375 7.0521214,10.279012 7,10.635705 7,11 l 0,2 0,68 0,2 c 0,2.781848 2.2181517,5 5,5 l 2,0 68,0 2,0 c 2.781848,0 5,-2.218152 5,-5 l 0,-2 0,-68 0,-2 C 89,10.635705 88.94788,10.279012 88.875,9.9375 88.83085,9.730607 88.78662,9.539842 88.71875,9.34375 88.71105,9.3218 88.69545,9.30306 88.6875,9.28125 88.62476,9.107511 88.549117,8.913801 88.46875,8.75 88.42717,8.6672 88.38971,8.580046 88.34375,8.5 88.28915,8.40279 88.216976,8.31165 88.15625,8.21875 88.06214,8.077785 87.951329,7.942755 87.84375,7.8125 87.700576,7.63805 87.540609,7.465502 87.375,7.3125 87.36383,7.3023 87.35502,7.29135 87.34375,7.28125 87.205364,7.155694 87.058659,7.046814 86.90625,6.9375 86.803679,6.86435 86.701932,6.784136 86.59375,6.71875 c -0.0074,-0.0045 -0.02384,0.0044 -0.03125,0 -0.232039,-0.138728 -0.462548,-0.274778 -0.71875,-0.375 0.301527,0.0968 0.596455,0.204138 0.875,0.34375 0.55709,0.279224 1.060053,0.665694 1.5,1.09375 0.219973,0.214028 0.409366,0.441865 0.59375,0.6875 0.184384,0.245635 0.355408,0.507743 0.5,0.78125 0.14012,0.265048 0.276135,0.524729 0.375,0.8125 0.01041,0.03078 0.02133,0.06274 0.03125,0.09375 0.09046,0.278085 0.1388,0.579404 0.1875,0.875 C 89.95865,11.3493 90,11.665279 90,12 l 0,2 0,68 0,2 c 0,3.324 -2.676,6 -6,6 l -72,0 z"
       style="opacity:0.15;fill:url(#radialGradient3619-2);fill-opacity:1;fill-rule:nonzero;stroke:none;display:inline"
       inkscape:connector-curvature="0" />
  </g>
  <g
     inkscape:groupmode="layer"
     id="layer3"
     inkscape:label="Symbol"
     style="display:inline">
    <path
       sodipodi:type="inkscape:offset"
       inkscape:radius="0.99824464"
       inkscape:original="M 27.59375 24 C 25.065675 24 23 26.065675 23 28.59375 L 23 55.4375 C 23 57.965575 25.055247 60.0625 27.59375 60.0625 L 48.46875 60.0625 C 51.007253 60.0625 53.0625 57.965575 53.0625 55.4375 L 53.0625 28.59375 C 53.0625 26.065675 50.996825 24 48.46875 24 L 27.59375 24 z M 31.1875 31.96875 L 44.90625 31.96875 C 45.01652 31.96875 45.09375 32.045948 45.09375 32.1875 L 45.09375 51.875 C 45.09375 52.016552 45.01652 52.09375 44.90625 52.09375 L 31.1875 52.09375 C 31.07723 52.09375 30.96875 51.98527 30.96875 51.875 L 30.96875 32.1875 C 30.96875 32.07723 31.07723 31.96875 31.1875 31.96875 z M 55.90625 44.03125 A 0.99834447 0.99834447 0 0 0 55.09375 45.03125 L 55.09375 46.9375 A 0.99834447 0.99834447 0 0 0 56.09375 47.9375 L 66 47.9375 A 0.99834447 0.99834447 0 0 0 67 46.9375 L 67 45.03125 A 0.99834447 0.99834447 0 0 0 66 44.03125 L 56.09375 44.03125 A 0.99834447 0.99834447 0 0 0 56 44.03125 A 0.99834447 0.99834447 0 0 0 55.90625 44.03125 z M 55.90625 48.09375 A 0.99834447 0.99834447 0 0 0 55.09375 49.09375 L 55.09375 52.9375 A 0.99834447 0.99834447 0 0 0 56.09375 53.9375 L 66 53.9375 A 0.99834447 0.99834447 0 0 0 67 52.9375 L 67 49.09375 A 0.99834447 0.99834447 0 0 0 66 48.09375 L 56.09375 48.09375 A 0.99834447 0.99834447 0 0 0 56 48.09375 A 0.99834447 0.99834447 0 0 0 55.90625 48.09375 z M 55.90625 54.15625 A 0.99834447 0.99834447 0 0 0 55.09375 55.15625 L 55.09375 60 L 50.40625 60 A 0.99834447 0.99834447 0 0 0 49.65625 61.65625 L 60.40625 73.65625 A 0.99834447 0.99834447 0 0 0 61.90625 73.65625 L 72.75 61.65625 A 0.99834447 0.99834447 0 0 0 72 60 L 67 60 L 67 55.15625 A 0.99834447 0.99834447 0 0 0 66 54.15625 L 56.09375 54.15625 A 0.99834447 0.99834447 0 0 0 56 54.15625 A 0.99834447 0.99834447 0 0 0 55.90625 54.15625 z "
       style="opacity:0.1;fill:#000000;fill-opacity:1;stroke:none;display:inline"
       id="path3752"
       d="M 27.59375,23 C 24.521902,23 22,25.521902 22,28.59375 l 0,26.84375 c 0,3.069103 2.505515,5.625 5.59375,5.625 l 20.8125,0 c 0.0016,0.0411 0,0.09375 0,0.09375 0,2e-6 0.03125,0.124998 0.03125,0.125 0,2e-6 0.03125,0.156248 0.03125,0.15625 10e-7,2e-6 0.03125,0.124998 0.03125,0.125 10e-7,2e-6 0.03125,0.156248 0.03125,0.15625 10e-7,2e-6 0.0625,0.124998 0.0625,0.125 10e-7,2e-6 0.0625,0.124998 0.0625,0.125 10e-7,2e-6 0.0625,0.124998 0.0625,0.125 10e-7,2e-6 0.09375,0.124998 0.09375,0.125 10e-7,2e-6 0.09375,0.09375 0.09375,0.09375 l 10.75,12 c 10e-7,10e-7 0.0625,0.09375 0.0625,0.09375 10e-7,10e-7 0.09375,0.0625 0.09375,0.0625 10e-7,10e-7 0.0625,0.0625 0.0625,0.0625 10e-7,10e-7 0.09375,0.0625 0.09375,0.0625 10e-7,10e-7 0.09375,0.0625 0.09375,0.0625 10e-7,10e-7 0.09375,0.0625 0.09375,0.0625 2e-6,10e-7 0.09375,0.0625 0.09375,0.0625 2e-6,10e-7 0.09375,0.03125 0.09375,0.03125 2e-6,10e-7 0.09375,0.03125 0.09375,0.03125 2e-6,10e-7 0.09375,0.0625 0.09375,0.0625 2e-6,10e-7 0.09375,0.03125 0.09375,0.03125 2e-6,0 0.124998,0 0.125,0 2e-6,0 0.09375,0.03125 0.09375,0.03125 2e-6,0 0.09375,0 0.09375,0 2e-6,0 0.124998,0.03125 0.125,0.03125 2e-6,0 0.09375,0 0.09375,0 2e-6,0 0.09375,0 0.09375,0 2e-6,0 0.124998,-0.03125 0.125,-0.03125 2e-6,0 0.09375,0 0.09375,0 2e-6,0 0.09375,-0.03125 0.09375,-0.03125 2e-6,0 0.124998,0 0.125,0 2e-6,0 0.09375,-0.03125 0.09375,-0.03125 2e-6,-10e-7 0.09375,-0.0625 0.09375,-0.0625 2e-6,-10e-7 0.09375,-0.03125 0.09375,-0.03125 2e-6,-10e-7 0.09375,-0.03125 0.09375,-0.03125 2e-6,-10e-7 0.09375,-0.0625 0.09375,-0.0625 2e-6,-10e-7 0.09375,-0.0625 0.09375,-0.0625 10e-7,-10e-7 0.09375,-0.0625 0.09375,-0.0625 10e-7,-10e-7 0.09375,-0.0625 0.09375,-0.0625 10e-7,-10e-7 0.0625,-0.0625 0.0625,-0.0625 10e-7,-10e-7 0.09375,-0.0625 0.09375,-0.0625 10e-7,-10e-7 0.0625,-0.09375 0.0625,-0.09375 l 10.84375,-12 c 2e-6,-2e-6 0.09375,-0.09375 0.09375,-0.09375 10e-7,-2e-6 0.09375,-0.124998 0.09375,-0.125 10e-7,-2e-6 0.0625,-0.124998 0.0625,-0.125 10e-7,-2e-6 0.0625,-0.124998 0.0625,-0.125 10e-7,-2e-6 0.0625,-0.124998 0.0625,-0.125 10e-7,-2e-6 0.03125,-0.156248 0.03125,-0.15625 10e-7,-2e-6 0.03125,-0.124998 0.03125,-0.125 10e-7,-2e-6 0.03125,-0.156248 0.03125,-0.15625 0,-2e-6 0.03125,-0.124998 0.03125,-0.125 0,-2e-6 0,-0.156248 0,-0.15625 0,-2e-6 0,-0.124998 0,-0.125 0,-2e-6 -0.03125,-0.156248 -0.03125,-0.15625 0,-2e-6 -0.03125,-0.124998 -0.03125,-0.125 0,-2e-6 -0.03125,-0.156248 -0.03125,-0.15625 -10e-7,-2e-6 -0.03125,-0.124998 -0.03125,-0.125 -10e-7,-2e-6 -0.0625,-0.124998 -0.0625,-0.125 -10e-7,-2e-6 -0.0625,-0.156248 -0.0625,-0.15625 -10e-7,-2e-6 -0.0625,-0.09375 -0.0625,-0.09375 -10e-7,-2e-6 -0.09375,-0.124998 -0.09375,-0.125 -10e-7,-2e-6 -0.09375,-0.124998 -0.09375,-0.125 -2e-6,-2e-6 -0.09375,-0.09375 -0.09375,-0.09375 -2e-6,-2e-6 -0.09375,-0.09375 -0.09375,-0.09375 -2e-6,-2e-6 -0.124998,-0.09375 -0.125,-0.09375 -2e-6,-10e-7 -0.09375,-0.09375 -0.09375,-0.09375 -2e-6,-10e-7 -0.124998,-0.0625 -0.125,-0.0625 -2e-6,-10e-7 -0.124998,-0.0625 -0.125,-0.0625 -2e-6,-10e-7 -0.156248,-0.0625 -0.15625,-0.0625 -2e-6,-10e-7 -0.124998,-0.03125 -0.125,-0.03125 -2e-6,-10e-7 -0.124998,-0.03125 -0.125,-0.03125 -2e-6,-10e-7 -0.156248,-0.03125 -0.15625,-0.03125 -2e-6,0 -0.124998,-0.03125 -0.125,-0.03125 -2e-6,0 -0.156248,0 -0.15625,0 l -4,0 0,-3.84375 c 0,-3e-6 0,-0.187497 0,-0.1875 0,-3e-6 -0.03125,-0.187497 -0.03125,-0.1875 -10e-7,-3e-6 -0.0625,-0.218747 -0.0625,-0.21875 -10e-7,-3e-6 -0.0625,-0.156247 -0.0625,-0.15625 -10e-7,-3e-6 -0.09375,-0.187497 -0.09375,-0.1875 -10e-7,-3e-6 -0.07355,-0.122506 -0.09375,-0.15625 -0.0031,-0.0052 0,-0.03125 0,-0.03125 0.0202,-0.03374 0.09375,-0.156247 0.09375,-0.15625 2e-6,-3e-6 0.09375,-0.187497 0.09375,-0.1875 10e-7,-3e-6 0.0625,-0.156247 0.0625,-0.15625 10e-7,-3e-6 0.0625,-0.218747 0.0625,-0.21875 10e-7,-3e-6 0.03125,-0.187497 0.03125,-0.1875 0,-3e-6 0,-0.187497 0,-0.1875 l 0,-3.84375 c 0,-3e-6 0,-0.187497 0,-0.1875 0,-3e-6 -0.03125,-0.187497 -0.03125,-0.1875 -10e-7,-3e-6 -0.0625,-0.218747 -0.0625,-0.21875 -10e-7,-3e-6 -0.0625,-0.156247 -0.0625,-0.15625 -10e-7,-3e-6 -0.09375,-0.187497 -0.09375,-0.1875 -10e-7,-2e-6 -0.03668,-0.113122 -0.0625,-0.15625 0.02988,-0.04992 0.0625,-0.124998 0.0625,-0.125 2e-6,-3e-6 0.09375,-0.187497 0.09375,-0.1875 10e-7,-3e-6 0.0625,-0.156247 0.0625,-0.15625 10e-7,-3e-6 0.0625,-0.218747 0.0625,-0.21875 10e-7,-3e-6 0.03125,-0.187497 0.03125,-0.1875 0,-3e-6 0,-0.187497 0,-0.1875 l 0,-1.90625 c 0,-3e-6 0,-0.187497 0,-0.1875 0,-3e-6 -0.03125,-0.187497 -0.03125,-0.1875 -10e-7,-3e-6 -0.0625,-0.218747 -0.0625,-0.21875 -10e-7,-3e-6 -0.0625,-0.156247 -0.0625,-0.15625 -10e-7,-3e-6 -0.09375,-0.187497 -0.09375,-0.1875 -2e-6,-3e-6 -0.09375,-0.187497 -0.09375,-0.1875 -2e-6,-3e-6 -0.124998,-0.156247 -0.125,-0.15625 -2e-6,-3e-6 -0.124998,-0.124998 -0.125,-0.125 -2e-6,-2e-6 -0.124997,-0.124998 -0.125,-0.125 -3e-6,-2e-6 -0.156247,-0.124998 -0.15625,-0.125 -3e-6,-2e-6 -0.187497,-0.09375 -0.1875,-0.09375 -3e-6,-2e-6 -0.187497,-0.09375 -0.1875,-0.09375 -3e-6,-10e-7 -0.156247,-0.0625 -0.15625,-0.0625 -3e-6,-10e-7 -0.218747,-0.0625 -0.21875,-0.0625 -3e-6,-10e-7 -0.187497,-0.03125 -0.1875,-0.03125 -3e-6,0 -0.187497,0 -0.1875,0 l -9.875,0 c -10e-7,0 -0.01925,0 -0.03125,0 -0.024,0 -0.0265,0 -0.0625,0 -10e-7,0 -0.0265,0 -0.0625,0 -0.054,0 -0.09375,0 -0.09375,0 a 0.99834447,0.99834447 0 0 0 -0.15625,0.03125 c -3e-6,10e-7 -0.156247,0.03125 -0.15625,0.03125 -3e-6,10e-7 -0.187497,0.0625 -0.1875,0.0625 -3e-6,10e-7 -0.156247,0.0625 -0.15625,0.0625 -3e-6,10e-7 -0.156247,0.09375 -0.15625,0.09375 -3e-6,10e-7 -0.124998,0.09375 -0.125,0.09375 -2e-6,2e-6 -0.156248,0.09375 -0.15625,0.09375 -2e-6,2e-6 -0.124998,0.124998 -0.125,0.125 -2e-6,2e-6 -0.124998,0.124998 -0.125,0.125 -2e-6,2e-6 -0.09375,0.156248 -0.09375,0.15625 -2e-6,2e-6 -0.09375,0.124997 -0.09375,0.125 -10e-7,3e-6 -0.0625,0.156247 -0.0625,0.15625 -10e-7,3e-6 -0.0625,0.187497 -0.0625,0.1875 -10e-7,3e-6 -0.0625,0.156247 -0.0625,0.15625 -10e-7,3e-6 -0.03125,0.156247 -0.03125,0.15625 0,3e-6 -0.03125,0.187497 -0.03125,0.1875 0,2e-6 0.001,0.115753 0,0.15625 -2e-4,0.0081 0,0.03125 0,0.03125 l 0,1.875 c 0,3e-6 0,0.187497 0,0.1875 0,3e-6 0.03125,0.187497 0.03125,0.1875 10e-7,3e-6 0.0625,0.218747 0.0625,0.21875 10e-7,3e-6 0.0625,0.156247 0.0625,0.15625 10e-7,3e-6 0.09375,0.187497 0.09375,0.1875 10e-7,2e-6 0.03262,0.07508 0.0625,0.125 -0.02659,0.04329 -0.0625,0.09375 -0.0625,0.09375 -10e-7,3e-6 -0.0625,0.156247 -0.0625,0.15625 -10e-7,3e-6 -0.0625,0.187497 -0.0625,0.1875 -10e-7,3e-6 -0.0625,0.156247 -0.0625,0.15625 -10e-7,3e-6 -0.03125,0.156247 -0.03125,0.15625 0,3e-6 -0.03125,0.187497 -0.03125,0.1875 0,2e-6 0.001,0.115753 0,0.15625 -2e-4,0.0081 0,0.03125 0,0.03125 l 0,3.8125 c 0,3e-6 0,0.187497 0,0.1875 0,3e-6 0.03125,0.187497 0.03125,0.1875 10e-7,3e-6 0.0625,0.218747 0.0625,0.21875 10e-7,3e-6 0.0625,0.156247 0.0625,0.15625 10e-7,3e-6 0.09375,0.187497 0.09375,0.1875 10e-7,3e-6 0.07355,0.122506 0.09375,0.15625 0.0031,0.0052 0,0.03125 0,0.03125 -0.02068,0.03367 -0.09375,0.09375 -0.09375,0.09375 -10e-7,3e-6 -0.0625,0.156247 -0.0625,0.15625 -10e-7,3e-6 -0.0625,0.187497 -0.0625,0.1875 -10e-7,3e-6 -0.0625,0.156247 -0.0625,0.15625 -10e-7,3e-6 -0.03125,0.156247 -0.03125,0.15625 0,3e-6 -0.03125,0.187497 -0.03125,0.1875 0,2e-6 0.001,0.115753 0,0.15625 -2e-4,0.0081 0,0.03125 0,0.03125 l 0,3.8125 -1.375,0 c 0.813573,-0.979545 1.34375,-2.205012 1.34375,-3.5625 l 0,-26.84375 C 54.0625,25.521902 51.540598,23 48.46875,23 l -20.875,0 z m 4.375,9.96875 12.125,0 0,18.125 -12.125,0 0,-18.125 z" />
    <path
       sodipodi:type="inkscape:offset"
       inkscape:radius="0.99824464"
       inkscape:original="M 27.59375 25 C 25.59935 25 24 26.59935 24 28.59375 L 24 55.4375 C 24 57.4319 25.59935 59.0625 27.59375 59.0625 L 48.46875 59.0625 C 50.46315 59.0625 52.0625 57.4319 52.0625 55.4375 L 52.0625 28.59375 C 52.0625 26.59935 50.46315 25 48.46875 25 L 27.59375 25 z M 31.1875 30.96875 L 44.90625 30.96875 C 45.57105 30.96875 46.09375 31.5227 46.09375 32.1875 L 46.09375 51.875 C 46.09375 52.5398 45.57105 53.09375 44.90625 53.09375 L 31.1875 53.09375 C 30.5227 53.09375 29.96875 52.5398 29.96875 51.875 L 29.96875 32.1875 C 29.96875 31.5227 30.5227 30.96875 31.1875 30.96875 z M 56.09375 45.03125 L 56.09375 46.9375 L 66 46.9375 L 66 45.03125 L 56.09375 45.03125 z M 56.09375 49.09375 L 56.09375 52.9375 L 66 52.9375 L 66 49.09375 L 56.09375 49.09375 z M 56.09375 55.15625 L 56.09375 61 L 50.40625 61 L 61.15625 73 L 72 61 L 66 61 L 66 55.15625 L 56.09375 55.15625 z "
       style="opacity:0.15;fill:#000000;fill-opacity:1;stroke:none;display:inline"
       id="path3748"
       d="M 27.59375,24 C 25.065675,24 23,26.065675 23,28.59375 l 0,26.84375 c 0,2.528075 2.055247,4.625 4.59375,4.625 l 20.875,0 c 2.538503,0 4.59375,-2.096925 4.59375,-4.625 l 0,-26.84375 C 53.0625,26.065675 50.996825,24 48.46875,24 l -20.875,0 z m 3.59375,7.96875 13.71875,0 c 0.11027,0 0.1875,0.0772 0.1875,0.21875 l 0,19.6875 c 0,0.141552 -0.07723,0.21875 -0.1875,0.21875 l -13.71875,0 c -0.11027,0 -0.21875,-0.10848 -0.21875,-0.21875 l 0,-19.6875 c 0,-0.11027 0.10848,-0.21875 0.21875,-0.21875 z M 56,44.03125 a 0.99834447,0.99834447 0 0 0 -0.90625,1 l 0,1.90625 a 0.99834447,0.99834447 0 0 0 1,1 l 9.90625,0 a 0.99834447,0.99834447 0 0 0 1,-1 l 0,-1.90625 a 0.99834447,0.99834447 0 0 0 -1,-1 l -9.90625,0 a 0.99834447,0.99834447 0 0 0 -0.09375,0 z m 0,4.0625 a 0.99834447,0.99834447 0 0 0 -0.90625,1 l 0,3.84375 a 0.99834447,0.99834447 0 0 0 1,1 l 9.90625,0 a 0.99834447,0.99834447 0 0 0 1,-1 l 0,-3.84375 a 0.99834447,0.99834447 0 0 0 -1,-1 l -9.90625,0 a 0.99834447,0.99834447 0 0 0 -0.09375,0 z m 0,6.0625 a 0.99834447,0.99834447 0 0 0 -0.90625,1 l 0,4.84375 -4.6875,0 a 0.99834447,0.99834447 0 0 0 -0.75,1.65625 l 10.75,12 a 0.99834447,0.99834447 0 0 0 1.5,0 l 10.84375,-12 A 0.99834447,0.99834447 0 0 0 72,60 l -5,0 0,-4.84375 a 0.99834447,0.99834447 0 0 0 -1,-1 l -9.90625,0 a 0.99834447,0.99834447 0 0 0 -0.09375,0 z" />
    <path
       sodipodi:nodetypes="ccccccccccccsccccccccccccccccccccccc"
       id="path3744"
       d="M 27.6,25 C 25.6056,25 24,26.6056 24,28.6 l 0,26.849101 c 0,1.9944 1.6056,3.6 3.6,3.6 l 20.853293,0 c 1.9944,0 3.6,-1.6056 3.6,-3.6 l 0,-26.849101 c 0,-1.9944 -1.6056,-3.6 -3.6,-3.6 L 27.6,25 z m 3.57964,5.978491 13.722159,0 c 0.6648,0 1.2,0.5352 1.2,1.2 0,0 0,12.502948 0,19.702948 0,0.6648 -0.5352,1.2 -1.2,1.2 l -13.722159,0 c -0.6648,0 -1.2,-0.5352 -1.2,-1.2 l 0,-19.702948 c 0,-0.6648 0.5352,-1.2 1.2,-1.2 z m 24.906885,14.062669 0,1.893414 9.910334,0 0,-1.893414 -9.910334,0 z m 0,4.040122 0,3.850152 9.910334,0 0,-3.850152 -9.910334,0 z m 0,6.060182 0,5.858536 L 50.4,61 61.166726,73 72,61 l -6.003141,0 0,-5.858536 -9.910334,0 z"
       style="fill:#000000;fill-opacity:1;stroke:none;display:inline;opacity:0.3" />
    <path
       style="fill:url(#linearGradient2862);fill-opacity:1;stroke:none;display:inline"
       d="M 27.6,24 C 25.6056,24 24,25.6056 24,27.6 l 0,26.849101 c 0,1.9944 1.6056,3.6 3.6,3.6 l 20.853293,0 c 1.9944,0 3.6,-1.6056 3.6,-3.6 l 0,-26.849101 c 0,-1.9944 -1.6056,-3.6 -3.6,-3.6 L 27.6,24 z m 3.57964,5.978491 13.722159,0 c 0.6648,0 1.2,0.5352 1.2,1.2 0,0 0,12.502948 0,19.702948 0,0.6648 -0.5352,1.2 -1.2,1.2 l -13.722159,0 c -0.6648,0 -1.2,-0.5352 -1.2,-1.2 l 0,-19.702948 c 0,-0.6648 0.5352,-1.2 1.2,-1.2 z m 24.906885,14.062669 0,1.893414 9.910334,0 0,-1.893414 -9.910334,0 z m 0,4.040122 0,3.850152 9.910334,0 0,-3.850152 -9.910334,0 z m 0,6.060182 0,5.858536 L 50.4,60 61.166726,72 72,60 l -6.003141,0 0,-5.858536 -9.910334,0 z"
       id="Symbol"
       sodipodi:nodetypes="ccccccccccccsccccccccccccccccccccccc" />
    <path
       style="fill:#ffffff;fill-opacity:1;stroke:none;display:inline;opacity:0.75"
       d="M 27.59375 24 C 25.59935 24 24 25.59935 24 27.59375 L 24 28.59375 C 24 26.59935 25.59935 25 27.59375 25 L 48.46875 25 C 50.46315 25 52.0625 26.59935 52.0625 28.59375 L 52.0625 27.59375 C 52.0625 25.59935 50.46315 24 48.46875 24 L 27.59375 24 z M 56.09375 44.03125 L 56.09375 45.03125 L 66 45.03125 L 66 44.03125 L 56.09375 44.03125 z M 56.09375 48.09375 L 56.09375 49.09375 L 66 49.09375 L 66 48.09375 L 56.09375 48.09375 z M 29.96875 50.875 L 29.96875 51.875 C 29.96875 52.5398 30.5227 53.09375 31.1875 53.09375 L 44.90625 53.09375 C 45.57105 53.09375 46.09375 52.5398 46.09375 51.875 L 46.09375 50.875 C 46.09375 51.5398 45.57105 52.09375 44.90625 52.09375 L 31.1875 52.09375 C 30.5227 52.09375 29.96875 51.5398 29.96875 50.875 z M 56.09375 54.15625 L 56.09375 55.15625 L 66 55.15625 L 66 54.15625 L 56.09375 54.15625 z M 50.40625 60 L 51.3125 61 L 56.09375 61 L 56.09375 60 L 50.40625 60 z M 66 60 L 66 61 L 71.09375 61 L 72 60 L 66 60 z "
       id="path3719" />
    <path
       style="fill:#000000;fill-opacity:1;stroke:none;display:inline;opacity:0.15"
       d="M 31.1875 28.96875 C 30.5227 28.96875 29.96875 29.5227 29.96875 30.1875 L 29.96875 31.1875 C 29.96875 30.5227 30.5227 29.96875 31.1875 29.96875 L 44.90625 29.96875 C 45.57105 29.96875 46.09375 30.5227 46.09375 31.1875 L 46.09375 30.1875 C 46.09375 29.5227 45.57105 28.96875 44.90625 28.96875 L 31.1875 28.96875 z M 56.09375 44.9375 L 56.09375 45.9375 L 66 45.9375 L 66 44.9375 L 56.09375 44.9375 z M 56.09375 50.9375 L 56.09375 51.9375 L 66 51.9375 L 66 50.9375 L 56.09375 50.9375 z M 24 53.4375 L 24 54.4375 C 24 56.4319 25.59935 58.0625 27.59375 58.0625 L 48.46875 58.0625 C 50.46315 58.0625 52.0625 56.4319 52.0625 54.4375 L 52.0625 53.4375 C 52.0625 55.4319 50.46315 57.0625 48.46875 57.0625 L 27.59375 57.0625 C 25.59935 57.0625 24 55.4319 24 53.4375 z M 50.40625 60 L 61.15625 72 L 72 60 L 71.09375 60 L 61.15625 71 L 51.3125 60 L 50.40625 60 z "
       id="path3735" />
  </g>
</svg>
