<?xml version="1.0" encoding="UTF-8" standalone="no"?>
<!-- Created with Inkscape (http://www.inkscape.org/) -->

<svg
   xmlns:dc="http://purl.org/dc/elements/1.1/"
   xmlns:cc="http://creativecommons.org/ns#"
   xmlns:rdf="http://www.w3.org/1999/02/22-rdf-syntax-ns#"
   xmlns:svg="http://www.w3.org/2000/svg"
   xmlns="http://www.w3.org/2000/svg"
   xmlns:xlink="http://www.w3.org/1999/xlink"
   xmlns:sodipodi="http://sodipodi.sourceforge.net/DTD/sodipodi-0.dtd"
   xmlns:inkscape="http://www.inkscape.org/namespaces/inkscape"
   width="96"
   height="96"
   id="svg2408"
   sodipodi:version="0.32"
   inkscape:version="0.48.0 r9654"
   version="1.0"
   sodipodi:docname="format-text-italic.svg"
   inkscape:output_extension="org.inkscape.output.svg.inkscape">
  <defs
     id="defs2410">
    <linearGradient
       id="linearGradient3637">
      <stop
         style="stop-color:#f0f0f0;stop-opacity:1;"
         offset="0"
         id="stop3639" />
      <stop
         style="stop-color:#aaaaaa;stop-opacity:1;"
         offset="1"
         id="stop3641" />
    </linearGradient>
    <linearGradient
       id="ButtonShadow"
       gradientTransform="scale(1.0058652,0.994169)"
       x1="45.447727"
       y1="92.539597"
       x2="45.447727"
       y2="7.0165396"
       gradientUnits="userSpaceOnUse">
      <stop
         style="stop-color:#000000;stop-opacity:1;"
         offset="0"
         id="stop3750" />
      <stop
         style="stop-color:#000000;stop-opacity:0.58823532;"
         offset="1"
         id="stop3752" />
    </linearGradient>
    <linearGradient
       inkscape:collect="always"
       id="linearGradient3737">
      <stop
         style="stop-color:#ffffff;stop-opacity:1;"
         offset="0"
         id="stop3739" />
      <stop
         style="stop-color:#ffffff;stop-opacity:0;"
         offset="1"
         id="stop3741" />
    </linearGradient>
    <linearGradient
       id="linearGradient3700">
      <stop
         style="stop-color:#2276c5;stop-opacity:1;"
         offset="0"
         id="stop3702" />
      <stop
         style="stop-color:#68baf4;stop-opacity:1;"
         offset="1"
         id="stop3704" />
    </linearGradient>
    <filter
       inkscape:collect="always"
       id="filter3174">
      <feGaussianBlur
         inkscape:collect="always"
         stdDeviation="1.71"
         id="feGaussianBlur3176" />
    </filter>
    <linearGradient
       inkscape:collect="always"
       xlink:href="#linearGradient3737"
       id="linearGradient3188"
       gradientUnits="userSpaceOnUse"
       x1="36.357143"
       y1="6"
       x2="36.357143"
       y2="63.893143" />
    <filter
       inkscape:collect="always"
       id="filter3794"
       x="-0.192"
       width="1.384"
       y="-0.192"
       height="1.384">
      <feGaussianBlur
         inkscape:collect="always"
         stdDeviation="5.28"
         id="feGaussianBlur3796" />
    </filter>
    <linearGradient
       inkscape:collect="always"
       xlink:href="#linearGradient3737"
       id="linearGradient3613"
       x1="48"
       y1="20.220806"
       x2="48"
       y2="138.66119"
       gradientUnits="userSpaceOnUse" />
    <radialGradient
       inkscape:collect="always"
       xlink:href="#linearGradient3737"
       id="radialGradient3619"
       cx="48"
       cy="90.171875"
       fx="48"
       fy="90.171875"
       r="42"
       gradientTransform="matrix(1.1573129,0,0,0.99590774,-7.5510206,0.19713193)"
       gradientUnits="userSpaceOnUse" />
    <clipPath
       clipPathUnits="userSpaceOnUse"
       id="clipPath3613">
      <rect
         ry="6"
         rx="6"
         y="6"
         x="6"
         height="84"
         width="84"
         id="rect3615"
         style="fill:#ffffff;fill-opacity:1;fill-rule:nonzero;stroke:none" />
    </clipPath>
    <linearGradient
       inkscape:collect="always"
       xlink:href="#linearGradient3700"
       id="linearGradient2843"
       gradientUnits="userSpaceOnUse"
       x1="48"
       y1="90"
       x2="48"
       y2="5.9877172"
       gradientTransform="translate(0,100)" />
    <clipPath
       clipPathUnits="userSpaceOnUse"
       id="clipPath3625">
      <path
         style="fill:#ffffff;fill-opacity:1;stroke:none"
         d="M 0,0 0,96 96,96 96,0 0,0 z m 12,6 72,0 c 3.324,0 6,2.676 6,6 l 0,72 c 0,3.324 -2.676,6 -6,6 L 12,90 C 8.676,90 6,87.324 6,84 L 6,12 C 6,8.676 8.676,6 12,6 z"
         id="path3627" />
    </clipPath>
    <linearGradient
       inkscape:collect="always"
       xlink:href="#linearGradient3637"
       id="linearGradient3643"
       x1="44.512066"
       y1="6"
       x2="44.512066"
       y2="90.015434"
       gradientUnits="userSpaceOnUse" />
    <clipPath
       clipPathUnits="userSpaceOnUse"
       id="clipPath3649">
      <rect
         style="fill:#ffffff;fill-opacity:1;fill-rule:nonzero;stroke:none"
         id="rect3651"
         width="76"
         height="76"
         x="10"
         y="10"
         rx="4"
         ry="4" />
    </clipPath>
    <filter
       inkscape:collect="always"
       id="filter3657">
      <feGaussianBlur
         inkscape:collect="always"
         stdDeviation="1.14"
         id="feGaussianBlur3659" />
    </filter>
    <linearGradient
       id="ButtonShadow-0"
       gradientTransform="matrix(1.0058652,0,0,0.994169,100,0)"
       x1="45.447727"
       y1="92.539597"
       x2="45.447727"
       y2="7.0165396"
       gradientUnits="userSpaceOnUse">
      <stop
         style="stop-color:#000000;stop-opacity:1;"
         offset="0"
         id="stop3750-8" />
      <stop
         style="stop-color:#000000;stop-opacity:0.58823532;"
         offset="1"
         id="stop3752-5" />
    </linearGradient>
    <linearGradient
       inkscape:collect="always"
       xlink:href="#ButtonShadow-0"
       id="linearGradient3780"
       gradientUnits="userSpaceOnUse"
       gradientTransform="matrix(1.0238095,0,0,-1.0119048,-1.1428571,98.071429)"
       x1="32.251034"
       y1="6.1317081"
       x2="32.251034"
       y2="90.238609" />
    <linearGradient
       inkscape:collect="always"
       xlink:href="#ButtonShadow-0"
       id="linearGradient3772"
       gradientUnits="userSpaceOnUse"
       gradientTransform="matrix(1.0238095,0,0,-1.0119048,-1.1428571,98.071429)"
       x1="32.251034"
       y1="6.1317081"
       x2="32.251034"
       y2="90.238609" />
    <linearGradient
       inkscape:collect="always"
       xlink:href="#ButtonShadow-0"
       id="linearGradient3725"
       gradientUnits="userSpaceOnUse"
       gradientTransform="matrix(1.0238095,0,0,-1.0119048,-1.1428571,98.071429)"
       x1="32.251034"
       y1="6.1317081"
       x2="32.251034"
       y2="90.238609" />
    <linearGradient
       inkscape:collect="always"
       xlink:href="#ButtonShadow-0"
       id="linearGradient3721"
       gradientUnits="userSpaceOnUse"
       gradientTransform="matrix(1,0,0,-1,0,97)"
       x1="32.251034"
       y1="6.1317081"
       x2="32.251034"
       y2="90.238609" />
    <linearGradient
       y2="90.238609"
       x2="32.251034"
       y1="6.1317081"
       x1="32.251034"
       gradientTransform="matrix(1.0238095,0,0,-1.0119048,-1.1428571,98.071429)"
       gradientUnits="userSpaceOnUse"
       id="linearGradient3199"
       xlink:href="#ButtonShadow-0"
       inkscape:collect="always" />
    <linearGradient
       inkscape:collect="always"
       xlink:href="#linearGradient3737-3"
       id="linearGradient3188-8"
       gradientUnits="userSpaceOnUse"
       x1="36.357143"
       y1="6"
       x2="36.357143"
       y2="63.893143" />
    <linearGradient
       inkscape:collect="always"
       id="linearGradient3737-3">
      <stop
         style="stop-color:#ffffff;stop-opacity:1;"
         offset="0"
         id="stop3739-6" />
      <stop
         style="stop-color:#ffffff;stop-opacity:0;"
         offset="1"
         id="stop3741-1" />
    </linearGradient>
    <radialGradient
       inkscape:collect="always"
       xlink:href="#linearGradient3737-3"
       id="radialGradient3619-3"
       cx="48"
       cy="90.171875"
       fx="48"
       fy="90.171875"
       r="42"
       gradientTransform="matrix(1.1573129,0,0,0.99590774,-7.551021,0.1971319)"
       gradientUnits="userSpaceOnUse" />
    <linearGradient
       inkscape:collect="always"
       xlink:href="#linearGradient3637"
       id="linearGradient3905"
       x1="104"
       y1="8"
       x2="120"
       y2="8"
       gradientUnits="userSpaceOnUse"
       gradientTransform="translate(-104,104)" />
    <linearGradient
       inkscape:collect="always"
       xlink:href="#linearGradient3183-0"
       id="linearGradient3913"
       gradientUnits="userSpaceOnUse"
       gradientTransform="translate(-144,104)"
       x1="104"
       y1="8"
       x2="120"
       y2="8" />
    <linearGradient
       y2="11.015625"
       x2="19"
       y1="11.015625"
       x1="11"
       gradientTransform="matrix(0,-3.0000004,2.9652505,0,33.335916,111.00001)"
       gradientUnits="userSpaceOnUse"
       id="linearGradient2927-4"
       xlink:href="#linearGradient3183-0"
       inkscape:collect="always" />
    <linearGradient
       id="linearGradient3183-0">
      <stop
         style="stop-color:#c80000;stop-opacity:1;"
         offset="0"
         id="stop3185-9" />
      <stop
         style="stop-color:#f3604d;stop-opacity:1;"
         offset="1"
         id="stop3187-6" />
    </linearGradient>
    <linearGradient
       inkscape:collect="always"
       xlink:href="#StandardGradient"
       id="linearGradient3660"
       gradientUnits="userSpaceOnUse"
       x1="12.028171"
       y1="4.5631547"
       x2="12.028171"
       y2="11.477665"
       gradientTransform="matrix(1.7414965,0,0,1.7414965,-8.9470177,-1.9467179)" />
    <linearGradient
       id="StandardGradient"
       gradientTransform="matrix(0.9984539,0,0,0.9984539,-0.0459776,0.05767558)"
       x1="10.710332"
       y1="1.9963325"
       x2="10.710332"
       y2="18.974037"
       gradientUnits="userSpaceOnUse">
      <stop
         style="stop-color:#000000;stop-opacity:0.86274511;"
         offset="0"
         id="stop3277" />
      <stop
         style="stop-color:#000000;stop-opacity:0.47058824;"
         offset="1"
         id="stop3279" />
    </linearGradient>
    <linearGradient
       inkscape:collect="always"
       xlink:href="#StandardGradient-1"
       id="linearGradient3683"
       gradientUnits="userSpaceOnUse"
       x1="10.467128"
       y1="5.8862238"
       x2="10.467128"
       y2="17.767334" />
    <linearGradient
       id="StandardGradient-1"
       gradientTransform="matrix(0.9984539,0,0,0.9984539,-0.0459776,0.05767558)"
       x1="10.710332"
       y1="1.9963325"
       x2="10.710332"
       y2="18.974037"
       gradientUnits="userSpaceOnUse">
      <stop
         style="stop-color:#000000;stop-opacity:0.86274511;"
         offset="0"
         id="stop3277-4" />
      <stop
         style="stop-color:#000000;stop-opacity:0.47058824;"
         offset="1"
         id="stop3279-3" />
    </linearGradient>
    <linearGradient
       gradientTransform="matrix(2.9999998,0,0,2.9999998,15.155636,12.000004)"
       y2="17.767334"
       x2="10.467128"
       y1="5.8862238"
       x1="10.467128"
       gradientUnits="userSpaceOnUse"
       id="linearGradient3047"
       xlink:href="#linearGradient3637"
       inkscape:collect="always" />
  </defs>
  <sodipodi:namedview
     id="base"
     pagecolor="#ffffff"
     bordercolor="#666666"
     borderopacity="1.0"
     inkscape:pageopacity="0.0"
     inkscape:pageshadow="2"
     inkscape:zoom="12.914346"
     inkscape:cx="64.986229"
     inkscape:cy="53.52424"
     inkscape:document-units="px"
     inkscape:current-layer="layer6"
     showgrid="true"
     showborder="true"
     inkscape:showpageshadow="false"
     inkscape:window-width="1920"
     inkscape:window-height="1029"
     inkscape:window-x="0"
     inkscape:window-y="25"
     inkscape:window-maximized="1"
     inkscape:snap-global="true">
    <inkscape:grid
       type="xygrid"
       id="grid3732"
       visible="true"
       enabled="true" />
  </sodipodi:namedview>
  <metadata
     id="metadata2413">
    <rdf:RDF>
      <cc:Work
         rdf:about="">
        <dc:format>image/svg+xml</dc:format>
        <dc:type
           rdf:resource="http://purl.org/dc/dcmitype/StillImage" />
        <dc:title></dc:title>
      </cc:Work>
    </rdf:RDF>
  </metadata>
  <g
     inkscape:groupmode="layer"
     id="layer2"
     inkscape:label="Blur Shadow"
     style="display:none"
     sodipodi:insensitive="true">
    <rect
       style="opacity:0.9;fill:url(#ButtonShadow);fill-opacity:1;fill-rule:nonzero;stroke:none;filter:url(#filter3174)"
       id="rect3745"
       width="86"
       height="85"
       x="5"
       y="7"
       rx="6"
       ry="6"
       clip-path="url(#clipPath3625)" />
  </g>
  <g
     inkscape:groupmode="layer"
     id="layer3"
     inkscape:label="Shadow"
     sodipodi:insensitive="true">
    <path
       style="opacity:0.07999998;fill:url(#linearGradient3199);fill-opacity:1;fill-rule:nonzero;stroke:none;display:inline"
       d="M 12,3.96875 C 6.4889098,3.96875 1.96875,8.4889098 1.96875,14 l 0,71 c 0,5.51109 4.5201597,10.03125 10.03125,10.03125 l 72,0 c 5.51109,0 10.03125,-4.52016 10.03125,-10.03125 l 0,-71 C 94.03125,8.4889097 89.51109,3.96875 84,3.96875 l -72,0 z M 12,6 84,6 c 3.324,0 6,2.676 6,6 l 0,72 c 0,3.324 -2.676,6 -6,6 L 12,90 C 8.676,90 6,87.324 6,84 L 6,12 C 6,8.676 8.676,6 12,6 z"
       id="path3786"
       inkscape:connector-curvature="0" />
    <path
       style="opacity:0.1;fill:url(#linearGradient3780);fill-opacity:1;fill-rule:nonzero;stroke:none;display:inline"
       d="M 12,4.96875 C 7.0283671,4.96875 2.96875,9.0283671 2.96875,14 l 0,71 c 0,4.971633 4.059617,9.03125 9.03125,9.03125 l 72,0 c 4.971633,0 9.03125,-4.059617 9.03125,-9.03125 l 0,-71 C 93.03125,9.028367 88.971633,4.96875 84,4.96875 l -72,0 z M 12,6 84,6 c 3.324,0 6,2.676 6,6 l 0,72 c 0,3.324 -2.676,6 -6,6 L 12,90 C 8.676,90 6,87.324 6,84 L 6,12 C 6,8.676 8.676,6 12,6 z"
       id="path3778"
       inkscape:connector-curvature="0" />
    <path
       style="opacity:0.2;fill:url(#linearGradient3772);fill-opacity:1;fill-rule:nonzero;stroke:none;display:inline"
       d="M 11.1875,6.03125 C 7.159982,6.4419011 4,9.8664375 4,14 l 0,71 c 0,4.409133 3.590867,8 8,8 l 72,0 c 4.409133,0 8,-3.590867 8,-8 L 92,14 C 92,9.8029382 88.741028,6.3539584 84.625,6.03125 87.657886,6.337417 90,8.88375 90,12 l 0,72 c 0,3.324 -2.676,6 -6,6 L 12,90 C 8.676,90 6,87.324 6,84 L 6,12 c 0,-3.11625 2.342114,-5.662583 5.375,-5.96875 -0.06227,0.00488 -0.12563,-0.00631 -0.1875,0 z"
       id="path3770"
       inkscape:connector-curvature="0" />
    <path
       style="opacity:0.3;fill:url(#linearGradient3725);fill-opacity:1;fill-rule:nonzero;stroke:none;display:inline"
       d="M 6.4375,9.75 C 5.5380109,10.927446 5,12.397277 5,14 l 0,71 c 0,3.878 3.122,7 7,7 l 72,0 c 3.878,0 7,-3.122 7,-7 L 91,14 C 91,12.397277 90.461989,10.927446 89.5625,9.75 89.841816,10.444095 90,11.203625 90,12 l 0,72 c 0,3.324 -2.676,6 -6,6 L 12,90 C 8.676,90 6,87.324 6,84 L 6,12 C 6,11.203625 6.1581836,10.444095 6.4375,9.75 z"
       id="rect3723"
       inkscape:connector-curvature="0" />
    <path
       style="opacity:0.45;fill:url(#linearGradient3721);fill-opacity:1;fill-rule:nonzero;stroke:none;display:inline"
       d="m 6,84 0,1 c 0,3.324 2.676,6 6,6 l 72,0 c 3.324,0 6,-2.676 6,-6 l 0,-1 c 0,3.324 -2.676,6 -6,6 L 12,90 C 8.676,90 6,87.324 6,84 z"
       id="rect3716"
       inkscape:connector-curvature="0" />
  </g>
  <g
     inkscape:label="Button with border"
     inkscape:groupmode="layer"
     id="layer1"
     sodipodi:insensitive="true"
     style="display:none">
    <rect
       style="opacity:0.8;fill:#000000;fill-opacity:1;fill-rule:nonzero;stroke:none"
       id="rect2419"
       width="84"
       height="84"
       x="6"
       y="6"
       rx="6"
       ry="6" />
    <path
       style="opacity:0.07999998;fill:#000000;fill-opacity:1;fill-rule:nonzero;stroke:none"
       d="m 14,10 c -2.216,0 -4,1.784 -4,4 l 0,68 c 0,2.216 1.784,4 4,4 l 68,0 c 2.216,0 4,-1.784 4,-4 l 0,-68 c 0,-2.216 -1.784,-4 -4,-4 l -68,0 z m 0,3.0625 68,0 c 0.578769,0 0.9375,0.358731 0.9375,0.9375 l 0,68 c 0,0.578769 -0.358731,0.9375 -0.9375,0.9375 l -68,0 c -0.578769,0 -0.9375,-0.358731 -0.9375,-0.9375 l 0,-68 c 0,-0.578769 0.358731,-0.9375 0.9375,-0.9375 z"
       id="rect3726"
       inkscape:connector-curvature="0" />
    <path
       style="fill:url(#linearGradient3643);fill-opacity:1;fill-rule:nonzero;stroke:none"
       d="M 12,6 C 8.676,6 6,8.676 6,12 l 0,72 c 0,3.324 2.676,6 6,6 l 72,0 c 3.324,0 6,-2.676 6,-6 L 90,12 C 90,8.676 87.324,6 84,6 L 12,6 z m 2,4 68,0 c 2.216,0 4,1.784 4,4 l 0,68 c 0,2.216 -1.784,4 -4,4 l -68,0 c -2.216,0 -4,-1.784 -4,-4 l 0,-68 c 0,-2.216 1.784,-4 4,-4 z"
       id="rect3629"
       inkscape:connector-curvature="0" />
    <path
       style="fill:url(#linearGradient3188);fill-opacity:1;fill-rule:nonzero;stroke:none"
       d="M 12,6 C 8.676,6 6,8.676 6,12 l 0,2 0,68 0,2 c 0,0.334721 0.04135,0.6507 0.09375,0.96875 0.0487,0.295596 0.09704,0.596915 0.1875,0.875 0.00988,0.03038 0.020892,0.0636 0.03125,0.09375 0.098865,0.287771 0.2348802,0.547452 0.375,0.8125 0.1445918,0.273507 0.3156161,0.535615 0.5,0.78125 0.1843839,0.245635 0.3737765,0.473472 0.59375,0.6875 0.439947,0.428056 0.94291,0.814526 1.5,1.09375 0.278545,0.139612 0.5734731,0.246947 0.875,0.34375 -0.2562018,-0.100222 -0.4867109,-0.236272 -0.71875,-0.375 -0.00741,-0.0044 -0.023866,0.0045 -0.03125,0 -0.031933,-0.0193 -0.062293,-0.04251 -0.09375,-0.0625 -0.120395,-0.0767 -0.2310226,-0.163513 -0.34375,-0.25 -0.1061728,-0.0808 -0.2132809,-0.161112 -0.3125,-0.25 C 8.4783201,88.557317 8.3087904,88.373362 8.15625,88.1875 8.0486711,88.057245 7.9378561,87.922215 7.84375,87.78125 7.818661,87.74287 7.805304,87.69538 7.78125,87.65625 7.716487,87.553218 7.6510225,87.451733 7.59375,87.34375 7.4927417,87.149044 7.3880752,86.928049 7.3125,86.71875 7.30454,86.69694 7.288911,86.6782 7.28125,86.65625 7.2494249,86.5643 7.2454455,86.469419 7.21875,86.375 7.1884177,86.268382 7.1483606,86.171969 7.125,86.0625 7.0521214,85.720988 7,85.364295 7,85 L 7,83 7,15 7,13 C 7,10.218152 9.2181517,8 12,8 l 2,0 68,0 2,0 c 2.781848,0 5,2.218152 5,5 l 0,2 0,68 0,2 c 0,0.364295 -0.05212,0.720988 -0.125,1.0625 -0.04415,0.206893 -0.08838,0.397658 -0.15625,0.59375 -0.0077,0.02195 -0.0233,0.04069 -0.03125,0.0625 -0.06274,0.173739 -0.138383,0.367449 -0.21875,0.53125 -0.04158,0.0828 -0.07904,0.169954 -0.125,0.25 -0.0546,0.09721 -0.126774,0.18835 -0.1875,0.28125 -0.09411,0.140965 -0.204921,0.275995 -0.3125,0.40625 -0.143174,0.17445 -0.303141,0.346998 -0.46875,0.5 -0.01117,0.0102 -0.01998,0.02115 -0.03125,0.03125 -0.138386,0.125556 -0.285091,0.234436 -0.4375,0.34375 -0.102571,0.07315 -0.204318,0.153364 -0.3125,0.21875 -0.0074,0.0045 -0.02384,-0.0044 -0.03125,0 -0.232039,0.138728 -0.462548,0.274778 -0.71875,0.375 0.301527,-0.0968 0.596455,-0.204138 0.875,-0.34375 0.55709,-0.279224 1.060053,-0.665694 1.5,-1.09375 0.219973,-0.214028 0.409366,-0.441865 0.59375,-0.6875 0.184384,-0.245635 0.355408,-0.507743 0.5,-0.78125 0.14012,-0.265048 0.276135,-0.524729 0.375,-0.8125 0.01041,-0.03078 0.02133,-0.06274 0.03125,-0.09375 0.09046,-0.278085 0.1388,-0.579404 0.1875,-0.875 C 89.95865,84.6507 90,84.334721 90,84 l 0,-2 0,-68 0,-2 C 90,8.676 87.324,6 84,6 L 12,6 z"
       id="rect3728"
       inkscape:connector-curvature="0" />
    <path
       id="path3615"
       d="M 12,90 C 8.676,90 6,87.324 6,84 L 6,82 6,14 6,12 c 0,-0.334721 0.04135,-0.6507 0.09375,-0.96875 0.0487,-0.295596 0.09704,-0.596915 0.1875,-0.875 C 6.29113,10.12587 6.302142,10.09265 6.3125,10.0625 6.411365,9.774729 6.5473802,9.515048 6.6875,9.25 6.8320918,8.976493 7.0031161,8.714385 7.1875,8.46875 7.3718839,8.223115 7.5612765,7.995278 7.78125,7.78125 8.221197,7.353194 8.72416,6.966724 9.28125,6.6875 9.559795,6.547888 9.8547231,6.440553 10.15625,6.34375 9.9000482,6.443972 9.6695391,6.580022 9.4375,6.71875 c -0.00741,0.0044 -0.023866,-0.0045 -0.03125,0 -0.031933,0.0193 -0.062293,0.04251 -0.09375,0.0625 -0.120395,0.0767 -0.2310226,0.163513 -0.34375,0.25 -0.1061728,0.0808 -0.2132809,0.161112 -0.3125,0.25 C 8.4783201,7.442683 8.3087904,7.626638 8.15625,7.8125 8.0486711,7.942755 7.9378561,8.077785 7.84375,8.21875 7.818661,8.25713 7.805304,8.30462 7.78125,8.34375 7.716487,8.446782 7.6510225,8.548267 7.59375,8.65625 7.4927417,8.850956 7.3880752,9.071951 7.3125,9.28125 7.30454,9.30306 7.288911,9.3218 7.28125,9.34375 7.2494249,9.4357 7.2454455,9.530581 7.21875,9.625 7.1884177,9.731618 7.1483606,9.828031 7.125,9.9375 7.0521214,10.279012 7,10.635705 7,11 l 0,2 0,68 0,2 c 0,2.781848 2.2181517,5 5,5 l 2,0 68,0 2,0 c 2.781848,0 5,-2.218152 5,-5 l 0,-2 0,-68 0,-2 C 89,10.635705 88.94788,10.279012 88.875,9.9375 88.83085,9.730607 88.78662,9.539842 88.71875,9.34375 88.71105,9.3218 88.69545,9.30306 88.6875,9.28125 88.62476,9.107511 88.549117,8.913801 88.46875,8.75 88.42717,8.6672 88.38971,8.580046 88.34375,8.5 88.28915,8.40279 88.216976,8.31165 88.15625,8.21875 88.06214,8.077785 87.951329,7.942755 87.84375,7.8125 87.700576,7.63805 87.540609,7.465502 87.375,7.3125 87.36383,7.3023 87.35502,7.29135 87.34375,7.28125 87.205364,7.155694 87.058659,7.046814 86.90625,6.9375 86.803679,6.86435 86.701932,6.784136 86.59375,6.71875 c -0.0074,-0.0045 -0.02384,0.0044 -0.03125,0 -0.232039,-0.138728 -0.462548,-0.274778 -0.71875,-0.375 0.301527,0.0968 0.596455,0.204138 0.875,0.34375 0.55709,0.279224 1.060053,0.665694 1.5,1.09375 0.219973,0.214028 0.409366,0.441865 0.59375,0.6875 0.184384,0.245635 0.355408,0.507743 0.5,0.78125 0.14012,0.265048 0.276135,0.524729 0.375,0.8125 0.01041,0.03078 0.02133,0.06274 0.03125,0.09375 0.09046,0.278085 0.1388,0.579404 0.1875,0.875 C 89.95865,11.3493 90,11.665279 90,12 l 0,2 0,68 0,2 c 0,3.324 -2.676,6 -6,6 l -72,0 z"
       style="opacity:0.6;fill:url(#radialGradient3619);fill-opacity:1;fill-rule:nonzero;stroke:none"
       inkscape:connector-curvature="0" />
    <rect
       ry="6"
       rx="6"
       y="106"
       x="6"
       height="84"
       width="84"
       id="rect2841"
       style="fill:url(#linearGradient2843);fill-opacity:1;fill-rule:nonzero;stroke:none" />
    <rect
       ry="4"
       rx="4"
       y="110"
       x="10"
       height="76"
       width="76"
       id="rect3634"
       style="fill:#ff0000;fill-opacity:1;fill-rule:nonzero;stroke:none" />
    <path
       style="font-size:medium;font-style:normal;font-variant:normal;font-weight:normal;font-stretch:normal;text-indent:0;text-align:start;text-decoration:none;line-height:normal;letter-spacing:normal;word-spacing:normal;text-transform:none;direction:ltr;block-progression:tb;writing-mode:lr-tb;text-anchor:start;color:#000000;fill:#000000;fill-opacity:1;stroke:none;stroke-width:2;marker:none;visibility:visible;display:inline;overflow:visible;filter:url(#filter3657);enable-background:accumulate;font-family:Abandoned Bitplane;-inkscape-font-specification:Abandoned Bitplane"
       d="m 14,9 c -2.752703,0 -5,2.247297 -5,5 l 0,68 c 0,2.752703 2.247297,5 5,5 l 68,0 c 2.752703,0 5,-2.247297 5,-5 L 87,14 C 87,11.247297 84.752703,9 82,9 L 14,9 z m 0,2 68,0 c 1.679297,0 3,1.320703 3,3 l 0,68 c 0,1.679297 -1.320703,3 -3,3 l -68,0 c -1.679297,0 -3,-1.320703 -3,-3 l 0,-68 c 0,-1.679297 1.320703,-3 3,-3 z"
       clip-path="url(#clipPath3649)"
       id="rect3647"
       transform="translate(-110,0)"
       inkscape:connector-curvature="0" />
    <path
       style="opacity:0.16000001;fill:#000000;fill-opacity:1;fill-rule:nonzero;stroke:none"
       d="m 14.089286,10 c -2.216,0 -4,1.784 -4,4 l 0,68 c 0,2.216 1.784,4 4,4 l 68,0 c 2.216,0 4,-1.784 4,-4 l 0,-68 c 0,-2.216 -1.784,-4 -4,-4 l -68,0 z m 0,2 68,0 c 1.140301,0 2,0.859699 2,2 l 0,68 c 0,1.140301 -0.859699,2 -2,2 l -68,0 c -1.140301,0 -2,-0.859699 -2,-2 l 0,-68 c 0,-1.140301 0.859699,-2 2,-2 z"
       id="path3709"
       inkscape:connector-curvature="0" />
    <path
       style="opacity:0.36000001;fill:#000000;fill-opacity:1;fill-rule:nonzero;stroke:none"
       d="m 14,10 c -2.216,0 -4,1.784 -4,4 l 0,68 c 0,2.216 1.784,4 4,4 l 68,0 c 2.216,0 4,-1.784 4,-4 l 0,-68 c 0,-2.216 -1.784,-4 -4,-4 l -68,0 z m 0,1 68,0 c 1.673848,0 3,1.326152 3,3 l 0,68 c 0,1.673848 -1.326152,3 -3,3 l -68,0 c -1.673848,0 -3,-1.326152 -3,-3 l 0,-68 c 0,-1.673848 1.326152,-3 3,-3 z"
       id="path3707"
       inkscape:connector-curvature="0" />
  </g>
  <g
     inkscape:groupmode="layer"
     id="layer4"
     inkscape:label="Button"
     style="display:inline"
     sodipodi:insensitive="true">
    <rect
       style="opacity:0.6;fill:#000000;fill-opacity:1;fill-rule:nonzero;stroke:none;display:inline"
       id="rect2419-9"
       width="84"
       height="84"
       x="6"
       y="6"
       rx="6"
       ry="6" />
    <path
       style="opacity:0.01000001;fill:url(#linearGradient3188-8);fill-opacity:1;fill-rule:nonzero;stroke:none;display:inline"
       d="M 12,6 C 8.676,6 6,8.676 6,12 l 0,2 0,68 0,2 c 0,0.334721 0.04135,0.6507 0.09375,0.96875 0.0487,0.295596 0.09704,0.596915 0.1875,0.875 0.00988,0.03038 0.020892,0.0636 0.03125,0.09375 0.098865,0.287771 0.2348802,0.547452 0.375,0.8125 0.1445918,0.273507 0.3156161,0.535615 0.5,0.78125 0.1843839,0.245635 0.3737765,0.473472 0.59375,0.6875 0.439947,0.428056 0.94291,0.814526 1.5,1.09375 0.278545,0.139612 0.5734731,0.246947 0.875,0.34375 -0.2562018,-0.100222 -0.4867109,-0.236272 -0.71875,-0.375 -0.00741,-0.0044 -0.023866,0.0045 -0.03125,0 -0.031933,-0.0193 -0.062293,-0.04251 -0.09375,-0.0625 -0.120395,-0.0767 -0.2310226,-0.163513 -0.34375,-0.25 -0.1061728,-0.0808 -0.2132809,-0.161112 -0.3125,-0.25 C 8.4783201,88.557317 8.3087904,88.373362 8.15625,88.1875 8.0486711,88.057245 7.9378561,87.922215 7.84375,87.78125 7.818661,87.74287 7.805304,87.69538 7.78125,87.65625 7.716487,87.553218 7.6510225,87.451733 7.59375,87.34375 7.4927417,87.149044 7.3880752,86.928049 7.3125,86.71875 7.30454,86.69694 7.288911,86.6782 7.28125,86.65625 7.2494249,86.5643 7.2454455,86.469419 7.21875,86.375 7.1884177,86.268382 7.1483606,86.171969 7.125,86.0625 7.0521214,85.720988 7,85.364295 7,85 L 7,83 7,15 7,13 C 7,10.218152 9.2181517,8 12,8 l 2,0 68,0 2,0 c 2.781848,0 5,2.218152 5,5 l 0,2 0,68 0,2 c 0,0.364295 -0.05212,0.720988 -0.125,1.0625 -0.04415,0.206893 -0.08838,0.397658 -0.15625,0.59375 -0.0077,0.02195 -0.0233,0.04069 -0.03125,0.0625 -0.06274,0.173739 -0.138383,0.367449 -0.21875,0.53125 -0.04158,0.0828 -0.07904,0.169954 -0.125,0.25 -0.0546,0.09721 -0.126774,0.18835 -0.1875,0.28125 -0.09411,0.140965 -0.204921,0.275995 -0.3125,0.40625 -0.143174,0.17445 -0.303141,0.346998 -0.46875,0.5 -0.01117,0.0102 -0.01998,0.02115 -0.03125,0.03125 -0.138386,0.125556 -0.285091,0.234436 -0.4375,0.34375 -0.102571,0.07315 -0.204318,0.153364 -0.3125,0.21875 -0.0074,0.0045 -0.02384,-0.0044 -0.03125,0 -0.232039,0.138728 -0.462548,0.274778 -0.71875,0.375 0.301527,-0.0968 0.596455,-0.204138 0.875,-0.34375 0.55709,-0.279224 1.060053,-0.665694 1.5,-1.09375 0.219973,-0.214028 0.409366,-0.441865 0.59375,-0.6875 0.184384,-0.245635 0.355408,-0.507743 0.5,-0.78125 0.14012,-0.265048 0.276135,-0.524729 0.375,-0.8125 0.01041,-0.03078 0.02133,-0.06274 0.03125,-0.09375 0.09046,-0.278085 0.1388,-0.579404 0.1875,-0.875 C 89.95865,84.6507 90,84.334721 90,84 l 0,-2 0,-68 0,-2 C 90,8.676 87.324,6 84,6 L 12,6 z"
       id="rect3728-4"
       inkscape:connector-curvature="0" />
    <path
       id="path3615-6"
       d="M 12,90 C 8.676,90 6,87.324 6,84 L 6,82 6,14 6,12 c 0,-0.334721 0.04135,-0.6507 0.09375,-0.96875 0.0487,-0.295596 0.09704,-0.596915 0.1875,-0.875 C 6.29113,10.12587 6.302142,10.09265 6.3125,10.0625 6.411365,9.774729 6.5473802,9.515048 6.6875,9.25 6.8320918,8.976493 7.0031161,8.714385 7.1875,8.46875 7.3718839,8.223115 7.5612765,7.995278 7.78125,7.78125 8.221197,7.353194 8.72416,6.966724 9.28125,6.6875 9.559795,6.547888 9.8547231,6.440553 10.15625,6.34375 9.9000482,6.443972 9.6695391,6.580022 9.4375,6.71875 c -0.00741,0.0044 -0.023866,-0.0045 -0.03125,0 -0.031933,0.0193 -0.062293,0.04251 -0.09375,0.0625 -0.120395,0.0767 -0.2310226,0.163513 -0.34375,0.25 -0.1061728,0.0808 -0.2132809,0.161112 -0.3125,0.25 C 8.4783201,7.442683 8.3087904,7.626638 8.15625,7.8125 8.0486711,7.942755 7.9378561,8.077785 7.84375,8.21875 7.818661,8.25713 7.805304,8.30462 7.78125,8.34375 7.716487,8.446782 7.6510225,8.548267 7.59375,8.65625 7.4927417,8.850956 7.3880752,9.071951 7.3125,9.28125 7.30454,9.30306 7.288911,9.3218 7.28125,9.34375 7.2494249,9.4357 7.2454455,9.530581 7.21875,9.625 7.1884177,9.731618 7.1483606,9.828031 7.125,9.9375 7.0521214,10.279012 7,10.635705 7,11 l 0,2 0,68 0,2 c 0,2.781848 2.2181517,5 5,5 l 2,0 68,0 2,0 c 2.781848,0 5,-2.218152 5,-5 l 0,-2 0,-68 0,-2 C 89,10.635705 88.94788,10.279012 88.875,9.9375 88.83085,9.730607 88.78662,9.539842 88.71875,9.34375 88.71105,9.3218 88.69545,9.30306 88.6875,9.28125 88.62476,9.107511 88.549117,8.913801 88.46875,8.75 88.42717,8.6672 88.38971,8.580046 88.34375,8.5 88.28915,8.40279 88.216976,8.31165 88.15625,8.21875 88.06214,8.077785 87.951329,7.942755 87.84375,7.8125 87.700576,7.63805 87.540609,7.465502 87.375,7.3125 87.36383,7.3023 87.35502,7.29135 87.34375,7.28125 87.205364,7.155694 87.058659,7.046814 86.90625,6.9375 86.803679,6.86435 86.701932,6.784136 86.59375,6.71875 c -0.0074,-0.0045 -0.02384,0.0044 -0.03125,0 -0.232039,-0.138728 -0.462548,-0.274778 -0.71875,-0.375 0.301527,0.0968 0.596455,0.204138 0.875,0.34375 0.55709,0.279224 1.060053,0.665694 1.5,1.09375 0.219973,0.214028 0.409366,0.441865 0.59375,0.6875 0.184384,0.245635 0.355408,0.507743 0.5,0.78125 0.14012,0.265048 0.276135,0.524729 0.375,0.8125 0.01041,0.03078 0.02133,0.06274 0.03125,0.09375 0.09046,0.278085 0.1388,0.579404 0.1875,0.875 C 89.95865,11.3493 90,11.665279 90,12 l 0,2 0,68 0,2 c 0,3.324 -2.676,6 -6,6 l -72,0 z"
       style="opacity:0.15;fill:url(#radialGradient3619-3);fill-opacity:1;fill-rule:nonzero;stroke:none;display:inline"
       inkscape:connector-curvature="0" />
  </g>
  <g
     inkscape:groupmode="layer"
     id="layer5"
     inkscape:label="Highlight"
     sodipodi:insensitive="true"
     style="display:none">
    <rect
       style="opacity:0.1;fill:url(#linearGradient3613);fill-opacity:1;fill-rule:nonzero;stroke:#ffffff;stroke-width:0.5;stroke-linecap:round;stroke-linejoin:miter;stroke-miterlimit:4;stroke-opacity:1;stroke-dasharray:none;stroke-dashoffset:0;filter:url(#filter3794)"
       id="rect3171"
       width="66"
       height="66"
       x="15"
       y="15"
       rx="12"
       ry="12"
       clip-path="url(#clipPath3613)" />
  </g>
  <g
     inkscape:groupmode="layer"
     id="layer6"
     inkscape:label="Symbol"
     style="display:inline">
    <path
       sodipodi:type="inkscape:offset"
       inkscape:radius="0.97440898"
       inkscape:original="M 51.625 29.96875 C 49.707916 29.968788 47.73115 30.205859 45.65625 30.625 C 43.606197 31.022491 41.429734 31.59283 39.15625 32.40625 A 1.020933 1.020933 0 0 0 38.5 33.15625 L 37.4375 38.375 A 1.020933 1.020933 0 0 0 38.875 39.5 C 40.709693 38.59254 42.60925 37.918968 44.46875 37.46875 C 46.347837 37.018572 48.210298 36.812529 50.09375 36.8125 C 53.021558 36.812529 54.947186 37.461868 56.09375 38.625 C 57.201163 39.716639 57.557093 41.24149 57.1875 43.4375 L 50.1875 43.4375 C 44.93506 43.437522 40.673163 44.455501 37.46875 46.5625 C 34.289459 48.667422 32.225435 51.863112 31.40625 55.9375 C 30.713461 59.444725 31.258727 62.474133 33.15625 64.71875 C 35.059537 66.947 38.018861 68.03125 41.71875 68.03125 C 44.614184 68.03125 47.22401 67.519199 49.5 66.46875 C 50.66123 65.921626 51.772499 65.187074 52.8125 64.34375 L 52.15625 66.71875 A 1.020933 1.020933 0 0 0 53.125 68.03125 L 58.75 68.03125 A 1.020933 1.020933 0 0 0 59.75 67.21875 L 64.3125 46.78125 A 1.020933 1.020933 0 0 0 64.3125 46.75 C 65.38332 41.374731 64.975146 37.128639 62.78125 34.21875 C 60.589851 31.312354 56.758752 29.968787 51.625 29.96875 z M 51.625 49.90625 L 55.9375 49.90625 A 1.020933 1.020933 0 0 0 55.9375 49.9375 C 55.235733 53.446203 53.787983 56.150617 51.625 58.21875 C 49.466686 60.2553 47.059281 61.250006 44.1875 61.25 C 42.09845 61.250006 40.744566 60.745348 39.90625 59.84375 C 39.064147 58.922217 38.790703 57.759886 39.15625 55.96875 A 1.020933 1.020933 0 0 0 39.15625 55.9375 C 39.602841 53.648678 40.590029 52.242219 42.28125 51.34375 C 43.973839 50.453839 47.151971 49.906265 51.625 49.90625 z "
       style="font-size:20.89795876000000163px;font-style:italic;font-variant:normal;font-weight:normal;font-stretch:normal;text-align:start;line-height:125%;writing-mode:lr-tb;text-anchor:start;opacity:0.1;fill:#000000;fill-opacity:1;stroke:none;display:inline;font-family:sans;-inkscape-font-specification:Abandoned Bitplane Italic"
       id="path3964"
       d="m 51.625,29 c -1.997402,4e-5 -4.033512,0.227445 -6.15625,0.65625 -2.085393,0.404343 -4.312802,1.018327 -6.625,1.84375 -0.01013,0.0036 -0.02112,-0.0036 -0.03125,0 -0.03252,0.01275 -0.09306,0.03095 -0.09375,0.03125 -9.08e-4,3.9e-4 -0.124119,0.06205 -0.125,0.0625 -8.81e-4,4.47e-4 -0.124149,0.062 -0.125,0.0625 -8.51e-4,5.02e-4 -0.09293,0.06194 -0.09375,0.0625 -8.17e-4,5.56e-4 -0.09297,0.06189 -0.09375,0.0625 -7.8e-4,6.07e-4 -0.09301,0.0931 -0.09375,0.09375 -7.4e-4,6.55e-4 -0.09305,0.09305 -0.09375,0.09375 -6.97e-4,7.01e-4 -0.0931,0.09301 -0.09375,0.09375 -6.51e-4,7.44e-4 -0.09315,0.09297 -0.09375,0.09375 -6.02e-4,7.84e-4 -0.06195,0.09293 -0.0625,0.09375 -5.51e-4,8.21e-4 -0.062,0.124146 -0.0625,0.125 -4.98e-4,8.54e-4 -0.06206,0.09287 -0.0625,0.09375 -4.42e-4,8.84e-4 -0.06211,0.12409 -0.0625,0.125 -3.85e-4,9.1e-4 -0.03092,0.124067 -0.03125,0.125 -3.26e-4,9.33e-4 -0.06223,0.124048 -0.0625,0.125 -2.66e-4,9.52e-4 -0.03104,0.124033 -0.03125,0.125 l -1.0625,5.21875 c -2.12e-4,0.0011 1.39e-4,0.123937 0,0.125 -1.39e-4,0.0011 -0.03119,0.15518 -0.03125,0.15625 -6.5e-5,0.0011 -9e-6,0.123928 0,0.125 9e-6,0.0011 -8.3e-5,0.123931 0,0.125 8.3e-5,0.0011 0.03109,0.155189 0.03125,0.15625 1.56e-4,0.0011 0.03102,0.123953 0.03125,0.125 2.29e-4,0.001 0.03095,0.123971 0.03125,0.125 3.01e-4,0.001 0.03088,0.155244 0.03125,0.15625 3.71e-4,0.001 0.06206,0.124022 0.0625,0.125 4.4e-4,9.78e-4 0.06199,0.124055 0.0625,0.125 5.06e-4,9.45e-4 0.06193,0.09284 0.0625,0.09375 5.7e-4,9.08e-4 0.06187,0.124134 0.0625,0.125 6.32e-4,8.66e-4 0.09306,0.12418 0.09375,0.125 6.9e-4,8.2e-4 0.093,0.09298 0.09375,0.09375 7.45e-4,7.71e-4 0.09295,0.09303 0.09375,0.09375 7.97e-4,7.18e-4 0.124156,0.09309 0.125,0.09375 8.44e-4,6.61e-4 0.09286,0.0619 0.09375,0.0625 8.88e-4,6.01e-4 0.124073,0.09321 0.125,0.09375 9.27e-4,5.38e-4 0.124038,0.06203 0.125,0.0625 9.62e-4,4.73e-4 0.124007,0.06209 0.125,0.0625 9.93e-4,4.05e-4 0.123982,0.03091 0.125,0.03125 0.001,3.36e-4 0.123961,0.03099 0.125,0.03125 0.001,2.64e-4 0.155195,0.03106 0.15625,0.03125 0.0011,1.92e-4 0.123934,0.03113 0.125,0.03125 0.0011,1.19e-4 0.123929,-4.5e-5 0.125,0 0.0011,4.5e-5 0.155178,2.9e-5 0.15625,0 0.0011,-2.9e-5 0.123933,1.03e-4 0.125,0 0.0011,-1.03e-4 0.155193,-0.03107 0.15625,-0.03125 0.0011,-1.77e-4 0.123957,2.49e-4 0.125,0 0.001,-2.49e-4 0.123977,-0.06218 0.125,-0.0625 0.001,-3.21e-4 0.124002,-0.03086 0.125,-0.03125 9.98e-4,-3.91e-4 0.124031,-0.06204 0.125,-0.0625 a 0.97450643,0.97450643 0 0 0 0.03125,0 c 1.766874,-0.873916 3.584026,-1.535123 5.375,-1.96875 1.802733,-0.431886 3.593853,-0.624972 5.40625,-0.625 2.78374,2.8e-5 4.421565,0.62744 5.3125,1.53125 0.715517,0.705325 0.951654,1.714659 0.84375,3.15625 l -6.0625,0 c -5.378338,2.3e-5 -9.834574,1.035504 -13.25,3.28125 -3.395951,2.248366 -5.637877,5.712051 -6.5,10 -0.732297,3.707235 -0.148415,7.089314 1.96875,9.59375 C 34.532119,67.832585 37.828494,69 41.71875,69 c 3.010315,0 5.76357,-0.537522 8.1875,-1.65625 0.45241,-0.213157 0.849008,-0.553486 1.28125,-0.8125 -0.0025,0.0094 4.8e-5,0.03105 0,0.03125 -2.06e-4,8.73e-4 -0.0311,0.09287 -0.03125,0.09375 -1.55e-4,8.84e-4 1.04e-4,0.124109 0,0.125 -1.04e-4,8.91e-4 5.2e-5,0.124104 0,0.125 -5.2e-5,8.96e-4 -0.03125,0.09285 -0.03125,0.09375 0,8.97e-4 0.0312,0.124104 0.03125,0.125 5.1e-5,8.96e-4 -1.03e-4,0.124109 0,0.125 1.03e-4,8.91e-4 -1.54e-4,0.09287 0,0.09375 1.54e-4,8.84e-4 0.03104,0.124127 0.03125,0.125 2.05e-4,8.73e-4 0.03099,0.12414 0.03125,0.125 2.55e-4,8.6e-4 0.03095,0.09291 0.03125,0.09375 3.05e-4,8.44e-4 0.06215,0.09292 0.0625,0.09375 3.53e-4,8.25e-4 0.03085,0.124197 0.03125,0.125 4e-4,8.03e-4 0.06205,0.09297 0.0625,0.09375 4.46e-4,7.78e-4 0.06201,0.093 0.0625,0.09375 4.9e-4,7.51e-4 0.06197,0.09303 0.0625,0.09375 5.33e-4,7.22e-4 0.06193,0.09306 0.0625,0.09375 5.74e-4,6.9e-4 0.09314,0.0931 0.09375,0.09375 6.12e-4,6.55e-4 0.06185,0.09313 0.0625,0.09375 6.49e-4,6.19e-4 0.09307,0.06192 0.09375,0.0625 6.84e-4,5.8e-4 0.09303,0.06196 0.09375,0.0625 7.16e-4,5.4e-4 0.093,0.062 0.09375,0.0625 7.46e-4,4.98e-4 0.09298,0.06205 0.09375,0.0625 7.74e-4,4.54e-4 0.09295,0.06209 0.09375,0.0625 7.99e-4,4.08e-4 0.124179,0.06214 0.125,0.0625 8.21e-4,3.61e-4 0.09291,0.03094 0.09375,0.03125 8.41e-4,3.13e-4 0.124143,0.03099 0.125,0.03125 8.57e-4,2.64e-4 0.09288,0.03104 0.09375,0.03125 8.71e-4,2.14e-4 0.124118,0.03109 0.125,0.03125 8.82e-4,1.63e-4 0.09286,0.03114 0.09375,0.03125 8.9e-4,1.12e-4 0.124105,-6e-5 0.125,0 8.95e-4,6e-5 0.124103,-8e-6 0.125,0 l 5.625,0 c 0.0013,10e-7 0.154931,1.12e-4 0.15625,0 0.0013,-1.12e-4 0.186195,-0.03103 0.1875,-0.03125 0.0013,-2.24e-4 0.154969,-0.03091 0.15625,-0.03125 0.0013,-3.35e-4 0.155002,-0.03081 0.15625,-0.03125 0.0012,-4.43e-4 0.155045,-0.0932 0.15625,-0.09375 0.0012,-5.47e-4 0.155096,-0.06185 0.15625,-0.0625 0.0012,-6.48e-4 0.155155,-0.09301 0.15625,-0.09375 0.0011,-7.44e-4 0.123973,-0.09292 0.125,-0.09375 0.001,-8.35e-4 0.124048,-0.124081 0.125,-0.125 9.52e-4,-9.19e-4 0.124129,-0.124003 0.125,-0.125 8.71e-4,-9.97e-4 0.124218,-0.123932 0.125,-0.125 7.82e-4,-0.0011 0.09306,-0.123869 0.09375,-0.125 6.89e-4,-0.0011 0.06191,-0.155065 0.0625,-0.15625 5.9e-4,-0.0012 0.06201,-0.155019 0.0625,-0.15625 4.86e-4,-0.0012 0.06212,-0.154982 0.0625,-0.15625 3.04e-4,-0.001 0.02055,-0.11395 0.03125,-0.15625 0.0027,-0.01058 0.0312,-0.03099 0.03125,-0.03125 l -0.03125,0 L 65.25,47 a 0.97450643,0.97450643 0 0 0 0.03125,-0.0625 0.97450643,0.97450643 0 0 0 0,-0.125 C 66.349143,41.352088 65.976766,36.827178 63.5625,33.625 61.129341,30.397964 56.928759,29.000038 51.625,29 z m 0,21.875 2.96875,0 c -0.735083,2.737039 -1.899429,4.945218 -3.65625,6.625 -2.004233,1.883458 -4.112325,2.781256 -6.75,2.78125 -1.932122,6e-6 -2.956962,-0.442501 -3.5625,-1.09375 -0.637724,-0.697876 -0.829993,-1.414323 -0.5,-3.03125 a 0.97450643,0.97450643 0 0 0 0,-0.03125 c 0.409271,-2.097554 1.167111,-3.13174 2.625,-3.90625 1.393616,-0.73272 4.481492,-1.343735 8.875,-1.34375 z" />
    <path
       sodipodi:type="inkscape:offset"
       inkscape:radius="1.0208309"
       inkscape:original="M 51.625 31 C 49.788244 31.000036 47.864136 31.216871 45.84375 31.625 C 43.843733 32.012789 41.724475 32.579115 39.5 33.375 L 38.4375 38.59375 C 40.335445 37.655005 42.279959 36.938166 44.21875 36.46875 C 46.177913 35.999388 48.134546 35.78128 50.09375 35.78125 C 53.175356 35.78128 55.404309 36.477711 56.8125 37.90625 C 58.24104 39.314441 58.697653 41.314436 58.1875 43.90625 L 58.0625 44.46875 L 50.1875 44.46875 C 45.065034 44.468771 41.010827 45.447088 38.03125 47.40625 C 35.072058 49.36545 33.181754 52.26787 32.40625 56.125 C 31.753184 59.431129 32.264025 62.082914 33.9375 64.0625 C 35.61096 66.021683 38.208535 67 41.71875 67 C 44.494242 67 46.940033 66.510843 49.0625 65.53125 C 51.184925 64.531251 53.118596 62.987883 54.8125 60.90625 L 53.125 67 L 58.75 67 L 63.3125 46.5625 C 64.353278 41.338033 63.907488 37.415208 61.96875 34.84375 C 60.02994 32.272357 56.584152 31.000036 51.625 31 z M 51.625 48.875 L 57.21875 48.875 L 56.9375 50.125 C 56.202776 53.798482 54.670252 56.744268 52.34375 58.96875 C 50.017196 61.172834 47.309929 62.281256 44.1875 62.28125 C 41.922179 62.281256 40.237869 61.694517 39.15625 60.53125 C 38.074606 59.347582 37.748075 57.750007 38.15625 55.75 C 38.646034 53.23981 39.853303 51.478332 41.8125 50.4375 C 43.792074 49.396701 47.073961 48.875015 51.625 48.875 z "
       style="font-size:20.89795876000000163px;font-style:italic;font-variant:normal;font-weight:normal;font-stretch:normal;text-align:start;line-height:125%;writing-mode:lr-tb;text-anchor:start;opacity:0.15;fill:#000000;fill-opacity:1;stroke:none;display:inline;font-family:sans;-inkscape-font-specification:Abandoned Bitplane Italic"
       id="path3960"
       d="m 51.625,29.96875 c -1.917084,3.8e-5 -3.89385,0.237109 -5.96875,0.65625 -2.050053,0.397491 -4.226516,0.96783 -6.5,1.78125 A 1.020933,1.020933 0 0 0 38.5,33.15625 L 37.4375,38.375 A 1.020933,1.020933 0 0 0 38.875,39.5 c 1.834693,-0.90746 3.73425,-1.581032 5.59375,-2.03125 1.879087,-0.450178 3.741548,-0.656221 5.625,-0.65625 2.927808,2.9e-5 4.853436,0.649368 6,1.8125 1.107413,1.091639 1.463343,2.61649 1.09375,4.8125 l -7,0 c -5.25244,2.2e-5 -9.514337,1.018001 -12.71875,3.125 -3.179291,2.104922 -5.243315,5.300612 -6.0625,9.375 -0.692789,3.507225 -0.147523,6.536633 1.75,8.78125 1.903287,2.22825 4.862611,3.3125 8.5625,3.3125 2.895434,0 5.50526,-0.512051 7.78125,-1.5625 1.16123,-0.547124 2.272499,-1.281676 3.3125,-2.125 l -0.65625,2.375 a 1.020933,1.020933 0 0 0 0.96875,1.3125 l 5.625,0 a 1.020933,1.020933 0 0 0 1,-0.8125 l 4.5625,-20.4375 a 1.020933,1.020933 0 0 0 0,-0.03125 c 1.07082,-5.375269 0.662646,-9.621361 -1.53125,-12.53125 -2.191399,-2.906396 -6.022498,-4.249963 -11.15625,-4.25 z m 0,19.9375 4.3125,0 a 1.020933,1.020933 0 0 0 0,0.03125 c -0.701767,3.508703 -2.149517,6.213117 -4.3125,8.28125 -2.158314,2.03655 -4.565719,3.031256 -7.4375,3.03125 -2.08905,6e-6 -3.442934,-0.504652 -4.28125,-1.40625 -0.842103,-0.921533 -1.115547,-2.083864 -0.75,-3.875 a 1.020933,1.020933 0 0 0 0,-0.03125 c 0.446591,-2.288822 1.433779,-3.695281 3.125,-4.59375 1.692589,-0.889911 4.870721,-1.437485 9.34375,-1.4375 z" />
    <path
       d="m 51.614816,48.877551 c -4.551039,1.5e-5 -7.816343,0.520424 -9.795917,1.561223 -1.959197,1.040832 -3.183685,2.81634 -3.673469,5.32653 -0.408175,2.000007 -0.07144,3.591843 1.010204,4.775511 1.081619,1.163267 2.755086,1.744901 5.020407,1.744895 3.122429,6e-6 5.846915,-1.102035 8.173469,-3.306119 2.326502,-2.224482 3.857111,-5.173458 4.591835,-8.84694 l 0.27552,-1.2551 -5.60204,0 M 63.308701,46.551021 58.763515,67 l -5.632652,0 1.667636,-6.091838 c -1.693904,2.081633 -3.602066,3.622448 -5.724491,4.622447 -2.122467,0.979593 -4.571445,1.469388 -7.346937,1.469388 -3.510215,0 -6.102049,-0.979593 -7.775509,-2.938776 -1.673475,-1.979586 -2.183678,-4.622441 -1.530612,-7.92857 0.775504,-3.85713 2.642848,-6.765288 5.60204,-8.724488 2.979577,-1.959162 7.030593,-2.938755 12.153059,-2.938776 l 7.897958,0 0.12246,-0.551019 c 0.510153,-2.591814 0.05097,-4.591812 -1.37757,-6.000003 -1.408191,-1.428539 -3.653087,-2.142824 -6.734693,-2.142854 -1.959204,3e-5 -3.918387,0.23472 -5.87755,0.704082 -1.938791,0.469416 -3.857157,1.173497 -5.755102,2.112242 l 1.040816,-5.204081 c 2.224475,-0.795885 4.336718,-1.387719 6.336735,-1.775508 2.020386,-0.408129 3.948957,-0.61221 5.785713,-0.612246 4.959152,3.6e-5 8.408129,1.285749 10.346939,3.857142 1.938738,2.571458 2.387715,6.469412 1.346937,11.693879"
       style="font-size:20.89795876000000163px;font-style:italic;font-variant:normal;font-weight:normal;font-stretch:normal;text-align:start;line-height:125%;writing-mode:lr-tb;text-anchor:start;fill:#000000;fill-opacity:1;stroke:none;display:inline;font-family:sans;-inkscape-font-specification:Abandoned Bitplane Italic;opacity:0.3"
       id="path3954"
       sodipodi:nodetypes="cssssscccccccssssscccsssccsssc"
       inkscape:connector-curvature="0" />
    <rect
       style="color:#000000;fill:url(#linearGradient3905);fill-opacity:1;fill-rule:nonzero;stroke:none;stroke-width:2;marker:none;visibility:visible;display:inline;overflow:visible;enable-background:accumulate"
       id="rect3897"
       width="16"
       height="16"
       x="0"
       y="104"
       transform="matrix(0,1,1,0,0,0)" />
    <text
       xml:space="preserve"
       style="font-size:4px;font-style:normal;font-variant:normal;font-weight:normal;font-stretch:normal;text-align:start;line-height:125%;letter-spacing:0px;word-spacing:0px;writing-mode:lr-tb;text-anchor:start;fill:#000000;fill-opacity:1;stroke:none;font-family:Liberation Sans;-inkscape-font-specification:Liberation Sans"
       x="104"
       y="48"
       id="text3907"
       sodipodi:linespacing="125%"><tspan
         sodipodi:role="line"
         id="tspan3909"
         x="104"
         y="48">Shadow opacity : 30, 15, 10, (8)</tspan></text>
    <rect
       transform="matrix(0,-1,1,0,0,0)"
       y="104"
       x="-40"
       height="16"
       width="16"
       id="rect3911"
       style="color:#000000;fill:url(#linearGradient3913);fill-opacity:1;fill-rule:nonzero;stroke:none;stroke-width:2;marker:none;visibility:visible;display:inline;overflow:visible;enable-background:accumulate" />
    <text
       sodipodi:linespacing="125%"
       id="text3951"
       y="32"
       x="124"
       style="font-size:4px;font-style:normal;font-variant:normal;font-weight:normal;font-stretch:normal;text-align:start;line-height:125%;letter-spacing:0px;word-spacing:0px;writing-mode:lr-tb;text-anchor:start;fill:#000000;fill-opacity:1;stroke:none;font-family:Liberation Sans;-inkscape-font-specification:Liberation Sans"
       xml:space="preserve"><tspan
         y="32"
         x="124"
         id="tspan3953"
         sodipodi:role="line">Bevel opacity : 30 / 10</tspan></text>
    <text
       xml:space="preserve"
       style="font-size:4px;font-style:normal;font-variant:normal;font-weight:normal;font-stretch:normal;text-align:start;line-height:125%;letter-spacing:0px;word-spacing:0px;writing-mode:lr-tb;text-anchor:start;fill:#000000;fill-opacity:1;stroke:none;font-family:Liberation Sans;-inkscape-font-specification:Liberation Sans"
       x="124"
       y="8"
       id="text3955"
       sodipodi:linespacing="125%"><tspan
         sodipodi:role="line"
         id="tspan3957"
         x="124"
         y="8">Bevel opacity : 75 / 15</tspan></text>
    <path
       inkscape:connector-curvature="0"
       sodipodi:nodetypes="cssssscccccccssssscccsssccsssc"
       id="path2864"
       style="font-size:20.89795876000000163px;font-style:italic;font-variant:normal;font-weight:normal;font-stretch:normal;text-align:start;line-height:125%;writing-mode:lr-tb;text-anchor:start;fill:url(#linearGradient3047);fill-opacity:1;stroke:none;display:inline;font-family:sans;-inkscape-font-specification:Abandoned Bitplane Italic;opacity:1"
       d="m 51.614816,47.877551 c -4.551039,1.5e-5 -7.816343,0.520424 -9.795917,1.561223 -1.959197,1.040832 -3.183685,2.81634 -3.673469,5.32653 -0.408175,2.000007 -0.07144,3.591843 1.010204,4.775511 1.081619,1.163267 2.755086,1.744901 5.020407,1.744895 3.122429,6e-6 5.846915,-1.102035 8.173469,-3.306119 2.326502,-2.224482 3.857111,-5.173458 4.591835,-8.84694 l 0.27552,-1.2551 -5.60204,0 M 63.308701,45.551021 58.763515,66 l -5.632652,0 1.667636,-6.091838 c -1.693904,2.081633 -3.602066,3.622448 -5.724491,4.622447 -2.122467,0.979593 -4.571445,1.469388 -7.346937,1.469388 -3.510215,0 -6.102049,-0.979593 -7.775509,-2.938776 -1.673475,-1.979586 -2.183678,-4.622441 -1.530612,-7.92857 0.775504,-3.85713 2.642848,-6.765288 5.60204,-8.724488 2.979577,-1.959162 7.030593,-2.938755 12.153059,-2.938776 l 7.897958,0 0.12246,-0.551019 c 0.510153,-2.591814 0.05097,-4.591812 -1.37757,-6.000003 -1.408191,-1.428539 -3.653087,-2.142824 -6.734693,-2.142854 -1.959204,3e-5 -3.918387,0.23472 -5.87755,0.704082 -1.938791,0.469416 -3.857157,1.173497 -5.755102,2.112242 l 1.040816,-5.204081 c 2.224475,-0.795885 4.336718,-1.387719 6.336735,-1.775508 2.020386,-0.408129 3.948957,-0.61221 5.785713,-0.612246 4.959152,3.6e-5 8.408129,1.285749 10.346939,3.857142 1.938738,2.571458 2.387715,6.469412 1.346937,11.693879" />
    <path
       style="font-size:20.89795876000000163px;font-style:italic;font-variant:normal;font-weight:normal;font-stretch:normal;text-align:start;line-height:125%;writing-mode:lr-tb;text-anchor:start;fill:#ffffff;fill-opacity:1;stroke:none;display:inline;font-family:sans;-inkscape-font-specification:Abandoned Bitplane Italic;opacity:0.75"
       d="M 51.625 30 C 49.788244 30.000036 47.864136 30.216871 45.84375 30.625 C 43.843733 31.012789 41.724475 31.579115 39.5 32.375 L 38.4375 37.59375 C 38.508942 37.558414 38.58475 37.534671 38.65625 37.5 L 39.5 33.375 C 41.724475 32.579115 43.843733 32.012789 45.84375 31.625 C 47.864136 31.216871 49.788244 31.000036 51.625 31 C 56.584152 31.000036 60.02994 32.272357 61.96875 34.84375 C 63.145257 36.404218 63.764471 38.462545 63.84375 41 C 63.911513 38.000263 63.294733 35.602476 61.96875 33.84375 C 60.02994 31.272357 56.584152 30.000036 51.625 30 z M 58.375 41.4375 C 58.350737 41.910264 58.289951 42.385749 58.1875 42.90625 L 58.0625 43.46875 L 50.1875 43.46875 C 45.065034 43.468771 41.010827 44.447088 38.03125 46.40625 C 35.072058 48.36545 33.181754 51.26787 32.40625 55.125 C 32.192536 56.206921 32.152063 57.216389 32.1875 58.15625 C 32.22113 57.512876 32.267301 56.828425 32.40625 56.125 C 33.181754 52.26787 35.072058 49.36545 38.03125 47.40625 C 41.010827 45.447088 45.065034 44.468771 50.1875 44.46875 L 58.0625 44.46875 L 58.1875 43.90625 C 58.364656 43.006216 58.431629 42.194801 58.375 41.4375 z M 57 48.875 L 56.9375 49.125 C 56.202776 52.798482 54.670252 55.744268 52.34375 57.96875 C 50.017196 60.172834 47.309929 61.281256 44.1875 61.28125 C 41.922179 61.281256 40.237869 60.694517 39.15625 59.53125 C 38.480222 58.791457 38.094067 57.902424 38 56.84375 C 37.895323 58.344391 38.277414 59.56952 39.15625 60.53125 C 40.237869 61.694517 41.922179 62.281256 44.1875 62.28125 C 47.309929 62.281256 50.017196 61.172834 52.34375 58.96875 C 54.670252 56.744268 56.202776 53.798482 56.9375 50.125 L 57.21875 48.875 L 57 48.875 z M 54.8125 60.90625 C 54.684167 61.063957 54.537042 61.192251 54.40625 61.34375 L 53.125 66 L 53.40625 66 L 54.8125 60.90625 z "
       id="path3936" />
    <path
       style="font-size:20.89795876000000163px;font-style:italic;font-variant:normal;font-weight:normal;font-stretch:normal;text-align:start;line-height:125%;writing-mode:lr-tb;text-anchor:start;fill:#000000;fill-opacity:1;stroke:none;display:inline;font-family:sans;-inkscape-font-specification:Abandoned Bitplane Italic;opacity:0.15"
       d="M 50.09375 33.78125 C 48.134546 33.78128 46.177913 33.999388 44.21875 34.46875 C 42.352939 34.920496 40.484232 35.613592 38.65625 36.5 L 38.4375 37.59375 C 40.335445 36.655005 42.279959 35.938166 44.21875 35.46875 C 46.177913 34.999388 48.134546 34.78128 50.09375 34.78125 C 53.175356 34.78128 55.404309 35.477711 56.8125 36.90625 C 57.744965 37.825432 58.268556 39.014014 58.375 40.4375 C 58.471555 38.556153 57.954154 37.031641 56.8125 35.90625 C 55.404309 34.477711 53.175356 33.78128 50.09375 33.78125 z M 63.84375 40 C 63.812436 41.38622 63.641447 42.911262 63.3125 44.5625 L 58.75 65 L 53.40625 65 L 53.125 66 L 58.75 66 L 63.3125 45.5625 C 63.72169 43.508458 63.895113 41.643956 63.84375 40 z M 51.625 46.875 C 47.073961 46.875015 43.792074 47.396701 41.8125 48.4375 C 39.853303 49.478332 38.646034 51.23981 38.15625 53.75 C 38.003184 54.500003 37.94356 55.208545 38 55.84375 C 38.024156 55.497448 38.079717 55.125001 38.15625 54.75 C 38.646034 52.23981 39.853303 50.478332 41.8125 49.4375 C 43.792074 48.396701 47.073961 47.875015 51.625 47.875 L 57 47.875 L 57.21875 46.875 L 51.625 46.875 z M 32.1875 57.15625 C 32.063068 59.536763 32.62008 61.504099 33.9375 63.0625 C 35.61096 65.021683 38.208535 66 41.71875 66 C 44.494242 66 46.940033 65.510843 49.0625 64.53125 C 51.024127 63.607012 52.810673 62.191938 54.40625 60.34375 L 54.8125 58.90625 C 53.118596 60.987883 51.184925 62.531251 49.0625 63.53125 C 46.940033 64.510843 44.494242 65 41.71875 65 C 38.208535 65 35.61096 64.021683 33.9375 62.0625 C 32.811665 60.730728 32.260351 59.08841 32.1875 57.15625 z "
       id="path3945" />
  </g>
</svg>
