<?xml version="1.0" encoding="UTF-8" standalone="no"?>
<!-- Created with Inkscape (http://www.inkscape.org/) -->

<svg
   xmlns:dc="http://purl.org/dc/elements/1.1/"
   xmlns:cc="http://creativecommons.org/ns#"
   xmlns:rdf="http://www.w3.org/1999/02/22-rdf-syntax-ns#"
   xmlns:svg="http://www.w3.org/2000/svg"
   xmlns="http://www.w3.org/2000/svg"
   xmlns:xlink="http://www.w3.org/1999/xlink"
   xmlns:sodipodi="http://sodipodi.sourceforge.net/DTD/sodipodi-0.dtd"
   xmlns:inkscape="http://www.inkscape.org/namespaces/inkscape"
   width="96"
   height="96"
   id="svg2408"
   sodipodi:version="0.32"
   inkscape:version="0.48.0 r9654"
   version="1.0"
   sodipodi:docname="format-text-bold.svg"
   inkscape:output_extension="org.inkscape.output.svg.inkscape">
  <defs
     id="defs2410">
    <linearGradient
       id="linearGradient3637">
      <stop
         style="stop-color:#f0f0f0;stop-opacity:1;"
         offset="0"
         id="stop3639" />
      <stop
         style="stop-color:#aaaaaa;stop-opacity:1;"
         offset="1"
         id="stop3641" />
    </linearGradient>
    <linearGradient
       id="ButtonShadow"
       gradientTransform="scale(1.0058652,0.994169)"
       x1="45.447727"
       y1="92.539597"
       x2="45.447727"
       y2="7.0165396"
       gradientUnits="userSpaceOnUse">
      <stop
         style="stop-color:#000000;stop-opacity:1;"
         offset="0"
         id="stop3750" />
      <stop
         style="stop-color:#000000;stop-opacity:0.58823532;"
         offset="1"
         id="stop3752" />
    </linearGradient>
    <linearGradient
       inkscape:collect="always"
       id="linearGradient3737">
      <stop
         style="stop-color:#ffffff;stop-opacity:1;"
         offset="0"
         id="stop3739" />
      <stop
         style="stop-color:#ffffff;stop-opacity:0;"
         offset="1"
         id="stop3741" />
    </linearGradient>
    <linearGradient
       id="linearGradient3700">
      <stop
         style="stop-color:#2276c5;stop-opacity:1;"
         offset="0"
         id="stop3702" />
      <stop
         style="stop-color:#68baf4;stop-opacity:1;"
         offset="1"
         id="stop3704" />
    </linearGradient>
    <filter
       inkscape:collect="always"
       id="filter3174">
      <feGaussianBlur
         inkscape:collect="always"
         stdDeviation="1.71"
         id="feGaussianBlur3176" />
    </filter>
    <linearGradient
       inkscape:collect="always"
       xlink:href="#linearGradient3737"
       id="linearGradient3188"
       gradientUnits="userSpaceOnUse"
       x1="36.357143"
       y1="6"
       x2="36.357143"
       y2="63.893143" />
    <filter
       inkscape:collect="always"
       id="filter3794"
       x="-0.192"
       width="1.384"
       y="-0.192"
       height="1.384">
      <feGaussianBlur
         inkscape:collect="always"
         stdDeviation="5.28"
         id="feGaussianBlur3796" />
    </filter>
    <linearGradient
       inkscape:collect="always"
       xlink:href="#linearGradient3737"
       id="linearGradient3613"
       x1="48"
       y1="20.220806"
       x2="48"
       y2="138.66119"
       gradientUnits="userSpaceOnUse" />
    <radialGradient
       inkscape:collect="always"
       xlink:href="#linearGradient3737"
       id="radialGradient3619"
       cx="48"
       cy="90.171875"
       fx="48"
       fy="90.171875"
       r="42"
       gradientTransform="matrix(1.1573129,0,0,0.99590774,-7.5510206,0.19713193)"
       gradientUnits="userSpaceOnUse" />
    <clipPath
       clipPathUnits="userSpaceOnUse"
       id="clipPath3613">
      <rect
         ry="6"
         rx="6"
         y="6"
         x="6"
         height="84"
         width="84"
         id="rect3615"
         style="fill:#ffffff;fill-opacity:1;fill-rule:nonzero;stroke:none" />
    </clipPath>
    <linearGradient
       inkscape:collect="always"
       xlink:href="#linearGradient3700"
       id="linearGradient2843"
       gradientUnits="userSpaceOnUse"
       x1="48"
       y1="90"
       x2="48"
       y2="5.9877172"
       gradientTransform="translate(0,100)" />
    <clipPath
       clipPathUnits="userSpaceOnUse"
       id="clipPath3625">
      <path
         style="fill:#ffffff;fill-opacity:1;stroke:none"
         d="M 0,0 0,96 96,96 96,0 0,0 z m 12,6 72,0 c 3.324,0 6,2.676 6,6 l 0,72 c 0,3.324 -2.676,6 -6,6 L 12,90 C 8.676,90 6,87.324 6,84 L 6,12 C 6,8.676 8.676,6 12,6 z"
         id="path3627" />
    </clipPath>
    <linearGradient
       inkscape:collect="always"
       xlink:href="#linearGradient3637"
       id="linearGradient3643"
       x1="44.512066"
       y1="6"
       x2="44.512066"
       y2="90.015434"
       gradientUnits="userSpaceOnUse" />
    <clipPath
       clipPathUnits="userSpaceOnUse"
       id="clipPath3649">
      <rect
         style="fill:#ffffff;fill-opacity:1;fill-rule:nonzero;stroke:none"
         id="rect3651"
         width="76"
         height="76"
         x="10"
         y="10"
         rx="4"
         ry="4" />
    </clipPath>
    <filter
       inkscape:collect="always"
       id="filter3657">
      <feGaussianBlur
         inkscape:collect="always"
         stdDeviation="1.14"
         id="feGaussianBlur3659" />
    </filter>
    <linearGradient
       id="ButtonShadow-0"
       gradientTransform="matrix(1.0058652,0,0,0.994169,100,0)"
       x1="45.447727"
       y1="92.539597"
       x2="45.447727"
       y2="7.0165396"
       gradientUnits="userSpaceOnUse">
      <stop
         style="stop-color:#000000;stop-opacity:1;"
         offset="0"
         id="stop3750-8" />
      <stop
         style="stop-color:#000000;stop-opacity:0.58823532;"
         offset="1"
         id="stop3752-5" />
    </linearGradient>
    <linearGradient
       inkscape:collect="always"
       xlink:href="#ButtonShadow-0"
       id="linearGradient3780"
       gradientUnits="userSpaceOnUse"
       gradientTransform="matrix(1.0238095,0,0,-1.0119048,-1.1428571,98.071429)"
       x1="32.251034"
       y1="6.1317081"
       x2="32.251034"
       y2="90.238609" />
    <linearGradient
       inkscape:collect="always"
       xlink:href="#ButtonShadow-0"
       id="linearGradient3772"
       gradientUnits="userSpaceOnUse"
       gradientTransform="matrix(1.0238095,0,0,-1.0119048,-1.1428571,98.071429)"
       x1="32.251034"
       y1="6.1317081"
       x2="32.251034"
       y2="90.238609" />
    <linearGradient
       inkscape:collect="always"
       xlink:href="#ButtonShadow-0"
       id="linearGradient3725"
       gradientUnits="userSpaceOnUse"
       gradientTransform="matrix(1.0238095,0,0,-1.0119048,-1.1428571,98.071429)"
       x1="32.251034"
       y1="6.1317081"
       x2="32.251034"
       y2="90.238609" />
    <linearGradient
       inkscape:collect="always"
       xlink:href="#ButtonShadow-0"
       id="linearGradient3721"
       gradientUnits="userSpaceOnUse"
       gradientTransform="matrix(1,0,0,-1,0,97)"
       x1="32.251034"
       y1="6.1317081"
       x2="32.251034"
       y2="90.238609" />
    <linearGradient
       y2="90.238609"
       x2="32.251034"
       y1="6.1317081"
       x1="32.251034"
       gradientTransform="matrix(1.0238095,0,0,-1.0119048,-1.1428571,98.071429)"
       gradientUnits="userSpaceOnUse"
       id="linearGradient3199"
       xlink:href="#ButtonShadow-0"
       inkscape:collect="always" />
    <linearGradient
       inkscape:collect="always"
       xlink:href="#linearGradient3737-3"
       id="linearGradient3188-8"
       gradientUnits="userSpaceOnUse"
       x1="36.357143"
       y1="6"
       x2="36.357143"
       y2="63.893143" />
    <linearGradient
       inkscape:collect="always"
       id="linearGradient3737-3">
      <stop
         style="stop-color:#ffffff;stop-opacity:1;"
         offset="0"
         id="stop3739-6" />
      <stop
         style="stop-color:#ffffff;stop-opacity:0;"
         offset="1"
         id="stop3741-1" />
    </linearGradient>
    <radialGradient
       inkscape:collect="always"
       xlink:href="#linearGradient3737-3"
       id="radialGradient3619-3"
       cx="48"
       cy="90.171875"
       fx="48"
       fy="90.171875"
       r="42"
       gradientTransform="matrix(1.1573129,0,0,0.99590774,-7.551021,0.1971319)"
       gradientUnits="userSpaceOnUse" />
    <linearGradient
       inkscape:collect="always"
       xlink:href="#linearGradient3637"
       id="linearGradient3905"
       x1="104"
       y1="8"
       x2="120"
       y2="8"
       gradientUnits="userSpaceOnUse"
       gradientTransform="translate(-104,104)" />
    <linearGradient
       inkscape:collect="always"
       xlink:href="#linearGradient3183-0"
       id="linearGradient3913"
       gradientUnits="userSpaceOnUse"
       gradientTransform="translate(-144,104)"
       x1="104"
       y1="8"
       x2="120"
       y2="8" />
    <linearGradient
       y2="11.015625"
       x2="19"
       y1="11.015625"
       x1="11"
       gradientTransform="matrix(0,-3.0000004,2.9652505,0,33.335916,111.00001)"
       gradientUnits="userSpaceOnUse"
       id="linearGradient2927-4"
       xlink:href="#linearGradient3183-0"
       inkscape:collect="always" />
    <linearGradient
       id="linearGradient3183-0">
      <stop
         style="stop-color:#c80000;stop-opacity:1;"
         offset="0"
         id="stop3185-9" />
      <stop
         style="stop-color:#f3604d;stop-opacity:1;"
         offset="1"
         id="stop3187-6" />
    </linearGradient>
    <linearGradient
       inkscape:collect="always"
       xlink:href="#StandardGradient"
       id="linearGradient3660"
       gradientUnits="userSpaceOnUse"
       x1="12.028171"
       y1="4.5631547"
       x2="12.028171"
       y2="11.477665"
       gradientTransform="matrix(1.7414965,0,0,1.7414965,-8.9470177,-1.9467179)" />
    <linearGradient
       id="StandardGradient"
       gradientTransform="matrix(0.9984539,0,0,0.9984539,-0.0459776,0.05767558)"
       x1="10.710332"
       y1="1.9963325"
       x2="10.710332"
       y2="18.974037"
       gradientUnits="userSpaceOnUse">
      <stop
         style="stop-color:#000000;stop-opacity:0.86274511;"
         offset="0"
         id="stop3277" />
      <stop
         style="stop-color:#000000;stop-opacity:0.47058824;"
         offset="1"
         id="stop3279" />
    </linearGradient>
    <linearGradient
       y2="11.477665"
       x2="12.028171"
       y1="4.5631547"
       x1="12.028171"
       gradientTransform="matrix(5.2244895,0,0,5.2244895,-11.841054,6.159846)"
       gradientUnits="userSpaceOnUse"
       id="linearGradient3034"
       xlink:href="#linearGradient3637"
       inkscape:collect="always" />
  </defs>
  <sodipodi:namedview
     id="base"
     pagecolor="#ffffff"
     bordercolor="#666666"
     borderopacity="1.0"
     inkscape:pageopacity="0.0"
     inkscape:pageshadow="2"
     inkscape:zoom="12.914346"
     inkscape:cx="76.954413"
     inkscape:cy="54.628202"
     inkscape:document-units="px"
     inkscape:current-layer="layer6"
     showgrid="true"
     showborder="true"
     inkscape:showpageshadow="false"
     inkscape:window-width="1920"
     inkscape:window-height="1029"
     inkscape:window-x="0"
     inkscape:window-y="25"
     inkscape:window-maximized="1"
     inkscape:snap-global="true">
    <inkscape:grid
       type="xygrid"
       id="grid3732"
       visible="true"
       enabled="true" />
  </sodipodi:namedview>
  <metadata
     id="metadata2413">
    <rdf:RDF>
      <cc:Work
         rdf:about="">
        <dc:format>image/svg+xml</dc:format>
        <dc:type
           rdf:resource="http://purl.org/dc/dcmitype/StillImage" />
        <dc:title></dc:title>
      </cc:Work>
    </rdf:RDF>
  </metadata>
  <g
     inkscape:groupmode="layer"
     id="layer2"
     inkscape:label="Blur Shadow"
     style="display:none"
     sodipodi:insensitive="true">
    <rect
       style="opacity:0.9;fill:url(#ButtonShadow);fill-opacity:1;fill-rule:nonzero;stroke:none;filter:url(#filter3174)"
       id="rect3745"
       width="86"
       height="85"
       x="5"
       y="7"
       rx="6"
       ry="6"
       clip-path="url(#clipPath3625)" />
  </g>
  <g
     inkscape:groupmode="layer"
     id="layer3"
     inkscape:label="Shadow"
     sodipodi:insensitive="true">
    <path
       style="opacity:0.07999998;fill:url(#linearGradient3199);fill-opacity:1;fill-rule:nonzero;stroke:none;display:inline"
       d="M 12,3.96875 C 6.4889098,3.96875 1.96875,8.4889098 1.96875,14 l 0,71 c 0,5.51109 4.5201597,10.03125 10.03125,10.03125 l 72,0 c 5.51109,0 10.03125,-4.52016 10.03125,-10.03125 l 0,-71 C 94.03125,8.4889097 89.51109,3.96875 84,3.96875 l -72,0 z M 12,6 84,6 c 3.324,0 6,2.676 6,6 l 0,72 c 0,3.324 -2.676,6 -6,6 L 12,90 C 8.676,90 6,87.324 6,84 L 6,12 C 6,8.676 8.676,6 12,6 z"
       id="path3786"
       inkscape:connector-curvature="0" />
    <path
       style="opacity:0.1;fill:url(#linearGradient3780);fill-opacity:1;fill-rule:nonzero;stroke:none;display:inline"
       d="M 12,4.96875 C 7.0283671,4.96875 2.96875,9.0283671 2.96875,14 l 0,71 c 0,4.971633 4.059617,9.03125 9.03125,9.03125 l 72,0 c 4.971633,0 9.03125,-4.059617 9.03125,-9.03125 l 0,-71 C 93.03125,9.028367 88.971633,4.96875 84,4.96875 l -72,0 z M 12,6 84,6 c 3.324,0 6,2.676 6,6 l 0,72 c 0,3.324 -2.676,6 -6,6 L 12,90 C 8.676,90 6,87.324 6,84 L 6,12 C 6,8.676 8.676,6 12,6 z"
       id="path3778"
       inkscape:connector-curvature="0" />
    <path
       style="opacity:0.2;fill:url(#linearGradient3772);fill-opacity:1;fill-rule:nonzero;stroke:none;display:inline"
       d="M 11.1875,6.03125 C 7.159982,6.4419011 4,9.8664375 4,14 l 0,71 c 0,4.409133 3.590867,8 8,8 l 72,0 c 4.409133,0 8,-3.590867 8,-8 L 92,14 C 92,9.8029382 88.741028,6.3539584 84.625,6.03125 87.657886,6.337417 90,8.88375 90,12 l 0,72 c 0,3.324 -2.676,6 -6,6 L 12,90 C 8.676,90 6,87.324 6,84 L 6,12 c 0,-3.11625 2.342114,-5.662583 5.375,-5.96875 -0.06227,0.00488 -0.12563,-0.00631 -0.1875,0 z"
       id="path3770"
       inkscape:connector-curvature="0" />
    <path
       style="opacity:0.3;fill:url(#linearGradient3725);fill-opacity:1;fill-rule:nonzero;stroke:none;display:inline"
       d="M 6.4375,9.75 C 5.5380109,10.927446 5,12.397277 5,14 l 0,71 c 0,3.878 3.122,7 7,7 l 72,0 c 3.878,0 7,-3.122 7,-7 L 91,14 C 91,12.397277 90.461989,10.927446 89.5625,9.75 89.841816,10.444095 90,11.203625 90,12 l 0,72 c 0,3.324 -2.676,6 -6,6 L 12,90 C 8.676,90 6,87.324 6,84 L 6,12 C 6,11.203625 6.1581836,10.444095 6.4375,9.75 z"
       id="rect3723"
       inkscape:connector-curvature="0" />
    <path
       style="opacity:0.45;fill:url(#linearGradient3721);fill-opacity:1;fill-rule:nonzero;stroke:none;display:inline"
       d="m 6,84 0,1 c 0,3.324 2.676,6 6,6 l 72,0 c 3.324,0 6,-2.676 6,-6 l 0,-1 c 0,3.324 -2.676,6 -6,6 L 12,90 C 8.676,90 6,87.324 6,84 z"
       id="rect3716"
       inkscape:connector-curvature="0" />
  </g>
  <g
     inkscape:label="Button with border"
     inkscape:groupmode="layer"
     id="layer1"
     sodipodi:insensitive="true"
     style="display:none">
    <rect
       style="opacity:0.8;fill:#000000;fill-opacity:1;fill-rule:nonzero;stroke:none"
       id="rect2419"
       width="84"
       height="84"
       x="6"
       y="6"
       rx="6"
       ry="6" />
    <path
       style="opacity:0.07999998;fill:#000000;fill-opacity:1;fill-rule:nonzero;stroke:none"
       d="m 14,10 c -2.216,0 -4,1.784 -4,4 l 0,68 c 0,2.216 1.784,4 4,4 l 68,0 c 2.216,0 4,-1.784 4,-4 l 0,-68 c 0,-2.216 -1.784,-4 -4,-4 l -68,0 z m 0,3.0625 68,0 c 0.578769,0 0.9375,0.358731 0.9375,0.9375 l 0,68 c 0,0.578769 -0.358731,0.9375 -0.9375,0.9375 l -68,0 c -0.578769,0 -0.9375,-0.358731 -0.9375,-0.9375 l 0,-68 c 0,-0.578769 0.358731,-0.9375 0.9375,-0.9375 z"
       id="rect3726"
       inkscape:connector-curvature="0" />
    <path
       style="fill:url(#linearGradient3643);fill-opacity:1;fill-rule:nonzero;stroke:none"
       d="M 12,6 C 8.676,6 6,8.676 6,12 l 0,72 c 0,3.324 2.676,6 6,6 l 72,0 c 3.324,0 6,-2.676 6,-6 L 90,12 C 90,8.676 87.324,6 84,6 L 12,6 z m 2,4 68,0 c 2.216,0 4,1.784 4,4 l 0,68 c 0,2.216 -1.784,4 -4,4 l -68,0 c -2.216,0 -4,-1.784 -4,-4 l 0,-68 c 0,-2.216 1.784,-4 4,-4 z"
       id="rect3629"
       inkscape:connector-curvature="0" />
    <path
       style="fill:url(#linearGradient3188);fill-opacity:1;fill-rule:nonzero;stroke:none"
       d="M 12,6 C 8.676,6 6,8.676 6,12 l 0,2 0,68 0,2 c 0,0.334721 0.04135,0.6507 0.09375,0.96875 0.0487,0.295596 0.09704,0.596915 0.1875,0.875 0.00988,0.03038 0.020892,0.0636 0.03125,0.09375 0.098865,0.287771 0.2348802,0.547452 0.375,0.8125 0.1445918,0.273507 0.3156161,0.535615 0.5,0.78125 0.1843839,0.245635 0.3737765,0.473472 0.59375,0.6875 0.439947,0.428056 0.94291,0.814526 1.5,1.09375 0.278545,0.139612 0.5734731,0.246947 0.875,0.34375 -0.2562018,-0.100222 -0.4867109,-0.236272 -0.71875,-0.375 -0.00741,-0.0044 -0.023866,0.0045 -0.03125,0 -0.031933,-0.0193 -0.062293,-0.04251 -0.09375,-0.0625 -0.120395,-0.0767 -0.2310226,-0.163513 -0.34375,-0.25 -0.1061728,-0.0808 -0.2132809,-0.161112 -0.3125,-0.25 C 8.4783201,88.557317 8.3087904,88.373362 8.15625,88.1875 8.0486711,88.057245 7.9378561,87.922215 7.84375,87.78125 7.818661,87.74287 7.805304,87.69538 7.78125,87.65625 7.716487,87.553218 7.6510225,87.451733 7.59375,87.34375 7.4927417,87.149044 7.3880752,86.928049 7.3125,86.71875 7.30454,86.69694 7.288911,86.6782 7.28125,86.65625 7.2494249,86.5643 7.2454455,86.469419 7.21875,86.375 7.1884177,86.268382 7.1483606,86.171969 7.125,86.0625 7.0521214,85.720988 7,85.364295 7,85 L 7,83 7,15 7,13 C 7,10.218152 9.2181517,8 12,8 l 2,0 68,0 2,0 c 2.781848,0 5,2.218152 5,5 l 0,2 0,68 0,2 c 0,0.364295 -0.05212,0.720988 -0.125,1.0625 -0.04415,0.206893 -0.08838,0.397658 -0.15625,0.59375 -0.0077,0.02195 -0.0233,0.04069 -0.03125,0.0625 -0.06274,0.173739 -0.138383,0.367449 -0.21875,0.53125 -0.04158,0.0828 -0.07904,0.169954 -0.125,0.25 -0.0546,0.09721 -0.126774,0.18835 -0.1875,0.28125 -0.09411,0.140965 -0.204921,0.275995 -0.3125,0.40625 -0.143174,0.17445 -0.303141,0.346998 -0.46875,0.5 -0.01117,0.0102 -0.01998,0.02115 -0.03125,0.03125 -0.138386,0.125556 -0.285091,0.234436 -0.4375,0.34375 -0.102571,0.07315 -0.204318,0.153364 -0.3125,0.21875 -0.0074,0.0045 -0.02384,-0.0044 -0.03125,0 -0.232039,0.138728 -0.462548,0.274778 -0.71875,0.375 0.301527,-0.0968 0.596455,-0.204138 0.875,-0.34375 0.55709,-0.279224 1.060053,-0.665694 1.5,-1.09375 0.219973,-0.214028 0.409366,-0.441865 0.59375,-0.6875 0.184384,-0.245635 0.355408,-0.507743 0.5,-0.78125 0.14012,-0.265048 0.276135,-0.524729 0.375,-0.8125 0.01041,-0.03078 0.02133,-0.06274 0.03125,-0.09375 0.09046,-0.278085 0.1388,-0.579404 0.1875,-0.875 C 89.95865,84.6507 90,84.334721 90,84 l 0,-2 0,-68 0,-2 C 90,8.676 87.324,6 84,6 L 12,6 z"
       id="rect3728"
       inkscape:connector-curvature="0" />
    <path
       id="path3615"
       d="M 12,90 C 8.676,90 6,87.324 6,84 L 6,82 6,14 6,12 c 0,-0.334721 0.04135,-0.6507 0.09375,-0.96875 0.0487,-0.295596 0.09704,-0.596915 0.1875,-0.875 C 6.29113,10.12587 6.302142,10.09265 6.3125,10.0625 6.411365,9.774729 6.5473802,9.515048 6.6875,9.25 6.8320918,8.976493 7.0031161,8.714385 7.1875,8.46875 7.3718839,8.223115 7.5612765,7.995278 7.78125,7.78125 8.221197,7.353194 8.72416,6.966724 9.28125,6.6875 9.559795,6.547888 9.8547231,6.440553 10.15625,6.34375 9.9000482,6.443972 9.6695391,6.580022 9.4375,6.71875 c -0.00741,0.0044 -0.023866,-0.0045 -0.03125,0 -0.031933,0.0193 -0.062293,0.04251 -0.09375,0.0625 -0.120395,0.0767 -0.2310226,0.163513 -0.34375,0.25 -0.1061728,0.0808 -0.2132809,0.161112 -0.3125,0.25 C 8.4783201,7.442683 8.3087904,7.626638 8.15625,7.8125 8.0486711,7.942755 7.9378561,8.077785 7.84375,8.21875 7.818661,8.25713 7.805304,8.30462 7.78125,8.34375 7.716487,8.446782 7.6510225,8.548267 7.59375,8.65625 7.4927417,8.850956 7.3880752,9.071951 7.3125,9.28125 7.30454,9.30306 7.288911,9.3218 7.28125,9.34375 7.2494249,9.4357 7.2454455,9.530581 7.21875,9.625 7.1884177,9.731618 7.1483606,9.828031 7.125,9.9375 7.0521214,10.279012 7,10.635705 7,11 l 0,2 0,68 0,2 c 0,2.781848 2.2181517,5 5,5 l 2,0 68,0 2,0 c 2.781848,0 5,-2.218152 5,-5 l 0,-2 0,-68 0,-2 C 89,10.635705 88.94788,10.279012 88.875,9.9375 88.83085,9.730607 88.78662,9.539842 88.71875,9.34375 88.71105,9.3218 88.69545,9.30306 88.6875,9.28125 88.62476,9.107511 88.549117,8.913801 88.46875,8.75 88.42717,8.6672 88.38971,8.580046 88.34375,8.5 88.28915,8.40279 88.216976,8.31165 88.15625,8.21875 88.06214,8.077785 87.951329,7.942755 87.84375,7.8125 87.700576,7.63805 87.540609,7.465502 87.375,7.3125 87.36383,7.3023 87.35502,7.29135 87.34375,7.28125 87.205364,7.155694 87.058659,7.046814 86.90625,6.9375 86.803679,6.86435 86.701932,6.784136 86.59375,6.71875 c -0.0074,-0.0045 -0.02384,0.0044 -0.03125,0 -0.232039,-0.138728 -0.462548,-0.274778 -0.71875,-0.375 0.301527,0.0968 0.596455,0.204138 0.875,0.34375 0.55709,0.279224 1.060053,0.665694 1.5,1.09375 0.219973,0.214028 0.409366,0.441865 0.59375,0.6875 0.184384,0.245635 0.355408,0.507743 0.5,0.78125 0.14012,0.265048 0.276135,0.524729 0.375,0.8125 0.01041,0.03078 0.02133,0.06274 0.03125,0.09375 0.09046,0.278085 0.1388,0.579404 0.1875,0.875 C 89.95865,11.3493 90,11.665279 90,12 l 0,2 0,68 0,2 c 0,3.324 -2.676,6 -6,6 l -72,0 z"
       style="opacity:0.6;fill:url(#radialGradient3619);fill-opacity:1;fill-rule:nonzero;stroke:none"
       inkscape:connector-curvature="0" />
    <rect
       ry="6"
       rx="6"
       y="106"
       x="6"
       height="84"
       width="84"
       id="rect2841"
       style="fill:url(#linearGradient2843);fill-opacity:1;fill-rule:nonzero;stroke:none" />
    <rect
       ry="4"
       rx="4"
       y="110"
       x="10"
       height="76"
       width="76"
       id="rect3634"
       style="fill:#ff0000;fill-opacity:1;fill-rule:nonzero;stroke:none" />
    <path
       style="font-size:medium;font-style:normal;font-variant:normal;font-weight:normal;font-stretch:normal;text-indent:0;text-align:start;text-decoration:none;line-height:normal;letter-spacing:normal;word-spacing:normal;text-transform:none;direction:ltr;block-progression:tb;writing-mode:lr-tb;text-anchor:start;color:#000000;fill:#000000;fill-opacity:1;stroke:none;stroke-width:2;marker:none;visibility:visible;display:inline;overflow:visible;filter:url(#filter3657);enable-background:accumulate;font-family:Abandoned Bitplane;-inkscape-font-specification:Abandoned Bitplane"
       d="m 14,9 c -2.752703,0 -5,2.247297 -5,5 l 0,68 c 0,2.752703 2.247297,5 5,5 l 68,0 c 2.752703,0 5,-2.247297 5,-5 L 87,14 C 87,11.247297 84.752703,9 82,9 L 14,9 z m 0,2 68,0 c 1.679297,0 3,1.320703 3,3 l 0,68 c 0,1.679297 -1.320703,3 -3,3 l -68,0 c -1.679297,0 -3,-1.320703 -3,-3 l 0,-68 c 0,-1.679297 1.320703,-3 3,-3 z"
       clip-path="url(#clipPath3649)"
       id="rect3647"
       transform="translate(-110,0)"
       inkscape:connector-curvature="0" />
    <path
       style="opacity:0.16000001;fill:#000000;fill-opacity:1;fill-rule:nonzero;stroke:none"
       d="m 14.089286,10 c -2.216,0 -4,1.784 -4,4 l 0,68 c 0,2.216 1.784,4 4,4 l 68,0 c 2.216,0 4,-1.784 4,-4 l 0,-68 c 0,-2.216 -1.784,-4 -4,-4 l -68,0 z m 0,2 68,0 c 1.140301,0 2,0.859699 2,2 l 0,68 c 0,1.140301 -0.859699,2 -2,2 l -68,0 c -1.140301,0 -2,-0.859699 -2,-2 l 0,-68 c 0,-1.140301 0.859699,-2 2,-2 z"
       id="path3709"
       inkscape:connector-curvature="0" />
    <path
       style="opacity:0.36000001;fill:#000000;fill-opacity:1;fill-rule:nonzero;stroke:none"
       d="m 14,10 c -2.216,0 -4,1.784 -4,4 l 0,68 c 0,2.216 1.784,4 4,4 l 68,0 c 2.216,0 4,-1.784 4,-4 l 0,-68 c 0,-2.216 -1.784,-4 -4,-4 l -68,0 z m 0,1 68,0 c 1.673848,0 3,1.326152 3,3 l 0,68 c 0,1.673848 -1.326152,3 -3,3 l -68,0 c -1.673848,0 -3,-1.326152 -3,-3 l 0,-68 c 0,-1.673848 1.326152,-3 3,-3 z"
       id="path3707"
       inkscape:connector-curvature="0" />
  </g>
  <g
     inkscape:groupmode="layer"
     id="layer4"
     inkscape:label="Button"
     style="display:inline"
     sodipodi:insensitive="true">
    <rect
       style="opacity:0.6;fill:#000000;fill-opacity:1;fill-rule:nonzero;stroke:none;display:inline"
       id="rect2419-9"
       width="84"
       height="84"
       x="6"
       y="6"
       rx="6"
       ry="6" />
    <path
       style="opacity:0.01000001;fill:url(#linearGradient3188-8);fill-opacity:1;fill-rule:nonzero;stroke:none;display:inline"
       d="M 12,6 C 8.676,6 6,8.676 6,12 l 0,2 0,68 0,2 c 0,0.334721 0.04135,0.6507 0.09375,0.96875 0.0487,0.295596 0.09704,0.596915 0.1875,0.875 0.00988,0.03038 0.020892,0.0636 0.03125,0.09375 0.098865,0.287771 0.2348802,0.547452 0.375,0.8125 0.1445918,0.273507 0.3156161,0.535615 0.5,0.78125 0.1843839,0.245635 0.3737765,0.473472 0.59375,0.6875 0.439947,0.428056 0.94291,0.814526 1.5,1.09375 0.278545,0.139612 0.5734731,0.246947 0.875,0.34375 -0.2562018,-0.100222 -0.4867109,-0.236272 -0.71875,-0.375 -0.00741,-0.0044 -0.023866,0.0045 -0.03125,0 -0.031933,-0.0193 -0.062293,-0.04251 -0.09375,-0.0625 -0.120395,-0.0767 -0.2310226,-0.163513 -0.34375,-0.25 -0.1061728,-0.0808 -0.2132809,-0.161112 -0.3125,-0.25 C 8.4783201,88.557317 8.3087904,88.373362 8.15625,88.1875 8.0486711,88.057245 7.9378561,87.922215 7.84375,87.78125 7.818661,87.74287 7.805304,87.69538 7.78125,87.65625 7.716487,87.553218 7.6510225,87.451733 7.59375,87.34375 7.4927417,87.149044 7.3880752,86.928049 7.3125,86.71875 7.30454,86.69694 7.288911,86.6782 7.28125,86.65625 7.2494249,86.5643 7.2454455,86.469419 7.21875,86.375 7.1884177,86.268382 7.1483606,86.171969 7.125,86.0625 7.0521214,85.720988 7,85.364295 7,85 L 7,83 7,15 7,13 C 7,10.218152 9.2181517,8 12,8 l 2,0 68,0 2,0 c 2.781848,0 5,2.218152 5,5 l 0,2 0,68 0,2 c 0,0.364295 -0.05212,0.720988 -0.125,1.0625 -0.04415,0.206893 -0.08838,0.397658 -0.15625,0.59375 -0.0077,0.02195 -0.0233,0.04069 -0.03125,0.0625 -0.06274,0.173739 -0.138383,0.367449 -0.21875,0.53125 -0.04158,0.0828 -0.07904,0.169954 -0.125,0.25 -0.0546,0.09721 -0.126774,0.18835 -0.1875,0.28125 -0.09411,0.140965 -0.204921,0.275995 -0.3125,0.40625 -0.143174,0.17445 -0.303141,0.346998 -0.46875,0.5 -0.01117,0.0102 -0.01998,0.02115 -0.03125,0.03125 -0.138386,0.125556 -0.285091,0.234436 -0.4375,0.34375 -0.102571,0.07315 -0.204318,0.153364 -0.3125,0.21875 -0.0074,0.0045 -0.02384,-0.0044 -0.03125,0 -0.232039,0.138728 -0.462548,0.274778 -0.71875,0.375 0.301527,-0.0968 0.596455,-0.204138 0.875,-0.34375 0.55709,-0.279224 1.060053,-0.665694 1.5,-1.09375 0.219973,-0.214028 0.409366,-0.441865 0.59375,-0.6875 0.184384,-0.245635 0.355408,-0.507743 0.5,-0.78125 0.14012,-0.265048 0.276135,-0.524729 0.375,-0.8125 0.01041,-0.03078 0.02133,-0.06274 0.03125,-0.09375 0.09046,-0.278085 0.1388,-0.579404 0.1875,-0.875 C 89.95865,84.6507 90,84.334721 90,84 l 0,-2 0,-68 0,-2 C 90,8.676 87.324,6 84,6 L 12,6 z"
       id="rect3728-4"
       inkscape:connector-curvature="0" />
    <path
       id="path3615-6"
       d="M 12,90 C 8.676,90 6,87.324 6,84 L 6,82 6,14 6,12 c 0,-0.334721 0.04135,-0.6507 0.09375,-0.96875 0.0487,-0.295596 0.09704,-0.596915 0.1875,-0.875 C 6.29113,10.12587 6.302142,10.09265 6.3125,10.0625 6.411365,9.774729 6.5473802,9.515048 6.6875,9.25 6.8320918,8.976493 7.0031161,8.714385 7.1875,8.46875 7.3718839,8.223115 7.5612765,7.995278 7.78125,7.78125 8.221197,7.353194 8.72416,6.966724 9.28125,6.6875 9.559795,6.547888 9.8547231,6.440553 10.15625,6.34375 9.9000482,6.443972 9.6695391,6.580022 9.4375,6.71875 c -0.00741,0.0044 -0.023866,-0.0045 -0.03125,0 -0.031933,0.0193 -0.062293,0.04251 -0.09375,0.0625 -0.120395,0.0767 -0.2310226,0.163513 -0.34375,0.25 -0.1061728,0.0808 -0.2132809,0.161112 -0.3125,0.25 C 8.4783201,7.442683 8.3087904,7.626638 8.15625,7.8125 8.0486711,7.942755 7.9378561,8.077785 7.84375,8.21875 7.818661,8.25713 7.805304,8.30462 7.78125,8.34375 7.716487,8.446782 7.6510225,8.548267 7.59375,8.65625 7.4927417,8.850956 7.3880752,9.071951 7.3125,9.28125 7.30454,9.30306 7.288911,9.3218 7.28125,9.34375 7.2494249,9.4357 7.2454455,9.530581 7.21875,9.625 7.1884177,9.731618 7.1483606,9.828031 7.125,9.9375 7.0521214,10.279012 7,10.635705 7,11 l 0,2 0,68 0,2 c 0,2.781848 2.2181517,5 5,5 l 2,0 68,0 2,0 c 2.781848,0 5,-2.218152 5,-5 l 0,-2 0,-68 0,-2 C 89,10.635705 88.94788,10.279012 88.875,9.9375 88.83085,9.730607 88.78662,9.539842 88.71875,9.34375 88.71105,9.3218 88.69545,9.30306 88.6875,9.28125 88.62476,9.107511 88.549117,8.913801 88.46875,8.75 88.42717,8.6672 88.38971,8.580046 88.34375,8.5 88.28915,8.40279 88.216976,8.31165 88.15625,8.21875 88.06214,8.077785 87.951329,7.942755 87.84375,7.8125 87.700576,7.63805 87.540609,7.465502 87.375,7.3125 87.36383,7.3023 87.35502,7.29135 87.34375,7.28125 87.205364,7.155694 87.058659,7.046814 86.90625,6.9375 86.803679,6.86435 86.701932,6.784136 86.59375,6.71875 c -0.0074,-0.0045 -0.02384,0.0044 -0.03125,0 -0.232039,-0.138728 -0.462548,-0.274778 -0.71875,-0.375 0.301527,0.0968 0.596455,0.204138 0.875,0.34375 0.55709,0.279224 1.060053,0.665694 1.5,1.09375 0.219973,0.214028 0.409366,0.441865 0.59375,0.6875 0.184384,0.245635 0.355408,0.507743 0.5,0.78125 0.14012,0.265048 0.276135,0.524729 0.375,0.8125 0.01041,0.03078 0.02133,0.06274 0.03125,0.09375 0.09046,0.278085 0.1388,0.579404 0.1875,0.875 C 89.95865,11.3493 90,11.665279 90,12 l 0,2 0,68 0,2 c 0,3.324 -2.676,6 -6,6 l -72,0 z"
       style="opacity:0.15;fill:url(#radialGradient3619-3);fill-opacity:1;fill-rule:nonzero;stroke:none;display:inline"
       inkscape:connector-curvature="0" />
  </g>
  <g
     inkscape:groupmode="layer"
     id="layer5"
     inkscape:label="Highlight"
     sodipodi:insensitive="true"
     style="display:none">
    <rect
       style="opacity:0.1;fill:url(#linearGradient3613);fill-opacity:1;fill-rule:nonzero;stroke:#ffffff;stroke-width:0.5;stroke-linecap:round;stroke-linejoin:miter;stroke-miterlimit:4;stroke-opacity:1;stroke-dasharray:none;stroke-dashoffset:0;filter:url(#filter3794)"
       id="rect3171"
       width="66"
       height="66"
       x="15"
       y="15"
       rx="12"
       ry="12"
       clip-path="url(#clipPath3613)" />
  </g>
  <g
     inkscape:groupmode="layer"
     id="layer6"
     inkscape:label="Symbol"
     style="display:inline">
    <path
       style="font-size:12px;font-style:normal;font-variant:normal;font-weight:bold;font-stretch:normal;text-align:start;line-height:125%;writing-mode:lr-tb;text-anchor:start;opacity:0.1;fill:#000000;fill-opacity:1;stroke:none;display:inline;font-family:Sans;-inkscape-font-specification:Abandoned Bitplane Bold"
       d="m 47.84375,29 c -5.059376,0.01303 -10.126083,0.653749 -15.03125,1.875 -0.972612,0.462333 -1.295108,1.574675 -1.15625,2.574029 0.02147,2.67188 -0.04254,5.354282 0.03125,8.019721 0.199754,1.430834 2.082237,2.158667 3.200784,1.25027 4.387212,-2.179993 9.507349,-2.907628 14.337296,-2.133586 0.774798,-0.13097 3.844339,1.461204 2.169141,1.570816 -5.779416,0.0019 -11.903377,-0.229224 -17.098142,2.719 -4.60107,2.585117 -6.287559,8.378263 -5.44946,13.342637 0.713244,5.103792 4.854386,9.379547 9.894783,10.365512 3.920798,0.768132 8.237236,0.57214 11.818003,-1.338949 1.094014,-0.935408 2.049508,-2.052355 1.721345,-0.0257 0.12476,1.301034 1.471668,1.980721 2.667779,1.78125 3.599475,-0.02067 7.205802,0.04145 10.800971,-0.03125 1.272612,-0.237221 1.766001,-1.589957 1.59375,-2.747825 -0.02327,-7.069347 0.04804,-14.140274 -0.03845,-21.208571 C 67.139046,40.771001 65.807308,36.382344 62.698672,33.381872 58.762927,29.685056 53.003514,29.04288 47.84375,29 z m 0.75,23.6875 c 1.1875,0 2.375,0 3.5625,0 -0.06666,2.87591 -2.74214,5.425666 -5.661953,5.017489 -2.059721,0.263833 -3.673699,-2.185894 -2.352585,-3.850581 1.209291,-1.0378 2.935133,-1.127257 4.452038,-1.166908 z"
       id="path3896"
       inkscape:connector-curvature="0" />
    <path
       sodipodi:type="inkscape:offset"
       inkscape:radius="1.0146277"
       inkscape:original="M 47.84375 31 C 45.476384 31.000036 43.086082 31.162663 40.71875 31.46875 C 38.351392 31.754497 36.00318 32.178605 33.65625 32.75 L 33.65625 41.09375 C 35.390937 40.155002 37.260833 39.469413 39.28125 39 C 41.301643 38.530638 43.496799 38.281277 45.84375 38.28125 C 48.74169 38.281277 50.88263 38.683703 52.25 39.5 C 53.617322 40.295945 54.281223 41.577831 54.28125 43.3125 L 54.28125 44.15625 L 47.84375 44.15625 C 41.925371 44.156271 37.556751 45.091221 34.78125 46.96875 C 32.026145 48.846318 30.656247 51.792104 30.65625 55.8125 C 30.656247 59.118629 31.764664 61.824628 33.96875 63.90625 C 36.193231 65.967481 39.073969 67 42.625 67 C 45.257635 67 47.507 66.532522 49.34375 65.59375 C 51.180461 64.634563 52.811835 63.112887 54.28125 61.03125 L 54.28125 67 L 65.34375 67 L 65.34375 46.5625 C 65.343711 41.072731 63.973812 37.116099 61.21875 34.6875 C 58.484022 32.238555 54.027398 31.000036 47.84375 31 z M 48.59375 50.6875 L 54.28125 50.6875 L 54.28125 51.9375 C 54.281223 54.162003 53.595637 56.010215 52.1875 57.5 C 50.779312 58.969394 49.029951 59.718756 46.96875 59.71875 C 45.315675 59.718756 44.032507 59.338018 43.09375 58.5625 C 42.175379 57.766588 41.718735 56.669014 41.71875 55.28125 C 41.718735 53.771059 42.294627 52.619274 43.4375 51.84375 C 44.600748 51.068256 46.30802 50.687515 48.59375 50.6875 z "
       style="font-size:12px;font-style:normal;font-variant:normal;font-weight:bold;font-stretch:normal;text-align:start;line-height:125%;writing-mode:lr-tb;text-anchor:start;opacity:0.15;fill:#000000;fill-opacity:1;stroke:none;display:inline;font-family:Sans;-inkscape-font-specification:Abandoned Bitplane Bold"
       id="path3892"
       d="m 47.84375,30 c -2.413822,3.7e-5 -4.841856,0.157386 -7.25,0.46875 -2.406689,0.290494 -4.80155,0.700355 -7.1875,1.28125 a 1.0147292,1.0147292 0 0 0 -0.75,1 l 0,8.34375 A 1.0147292,1.0147292 0 0 0 34.125,42 c 1.648126,-0.891904 3.432289,-1.548641 5.375,-2 1.93976,-0.45063 4.06866,-0.718724 6.34375,-0.71875 2.804013,2.6e-5 4.781849,0.441157 5.875,1.09375 a 1.0147292,1.0147292 0 0 0 0.03125,0 c 1.03406,0.601946 1.462329,1.423257 1.5,2.78125 l -5.40625,0 c -6.025234,2.1e-5 -10.569715,0.901957 -13.625,2.96875 -3.033879,2.067549 -4.562503,5.436623 -4.5625,9.6875 -3e-6,3.532906 1.225251,6.577337 3.625,8.84375 C 35.702158,66.899493 38.87729,68 42.625,68 c 2.752747,0 5.173382,-0.470574 7.1875,-1.5 1.268559,-0.662481 2.394684,-1.65775 3.46875,-2.78125 l 0,3.28125 a 1.0147292,1.0147292 0 0 0 1,1 l 11.0625,0 a 1.0147292,1.0147292 0 0 0 1,-1 l 0,-20.4375 c -4e-5,-5.64762 -1.440862,-9.912933 -4.46875,-12.59375 l 0.03125,-0.03125 c -0.0062,-0.0056 -0.02499,0.0056 -0.03125,0 C 58.858037,31.248117 54.149795,30.000037 47.84375,30 z m 0.75,21.6875 4.6875,0 0,0.25 c -2.4e-5,2.016039 -0.610438,3.570177 -1.84375,4.875 -1.232651,1.277241 -2.662771,1.906255 -4.46875,1.90625 -1.49728,5e-6 -2.504282,-0.34727 -3.21875,-0.9375 -0.695292,-0.602579 -1.031263,-1.334817 -1.03125,-2.5 -1.2e-5,-1.252242 0.393568,-1.991392 1.28125,-2.59375 0.909537,-0.606355 2.42069,-0.999986 4.59375,-1 z" />
    <path
       sodipodi:nodetypes="cssssscccccccssssscccsssccsscc"
       d="m 48.596939,50.683675 c -2.28573,1.5e-5 -4.01022,0.387771 -5.173468,1.163265 -1.142873,0.775524 -1.714301,1.91838 -1.714286,3.428571 -1.5e-5,1.387764 0.459181,2.479599 1.377552,3.275511 0.938757,0.775518 2.234676,1.163271 3.887751,1.163265 2.061201,6e-6 3.795894,-0.734688 5.204082,-2.204082 1.408137,-1.489785 2.112219,-3.346926 2.112246,-5.571429 l 0,-1.255101 -5.693877,0 m 16.744896,-4.132653 0,20.448978 -11.051019,0 0,-5.969388 c -1.469415,2.081637 -3.122475,3.60204 -4.959186,4.561227 C 47.49488,66.530611 45.260186,67 42.627551,67 c -3.551031,0 -6.438783,-1.030608 -8.663264,-3.091839 -2.204086,-2.081622 -3.306125,-4.775499 -3.306122,-8.081628 -3e-6,-4.020396 1.377547,-6.969372 4.132652,-8.84694 2.775501,-1.877529 7.122437,-2.816304 13.040816,-2.816325 l 6.459183,0 0,-0.857145 c -2.7e-5,-1.734669 -0.683697,-2.999973 -2.051019,-3.795918 -1.36737,-0.816297 -3.500022,-1.224462 -6.397962,-1.224489 -2.346951,2.7e-5 -4.530625,0.23472 -6.551018,0.704082 -2.020417,0.469413 -3.897966,1.173495 -5.632653,2.112243 l 0,-8.357142 c 2.34693,-0.571395 4.704071,-0.999966 7.071429,-1.285713 2.367332,-0.306087 4.734674,-0.45915 7.10204,-0.459186 6.183648,3.6e-5 10.642824,1.224525 13.377552,3.67347 2.755062,2.428599 4.132611,6.38778 4.13265,11.877549"
       id="path3886"
       style="font-size:12px;font-style:normal;font-variant:normal;font-weight:bold;font-stretch:normal;text-align:start;line-height:125%;writing-mode:lr-tb;text-anchor:start;fill:#000000;fill-opacity:1;stroke:none;display:inline;font-family:Sans;-inkscape-font-specification:Abandoned Bitplane Bold;opacity:0.3"
       inkscape:connector-curvature="0" />
    <rect
       style="color:#000000;fill:url(#linearGradient3905);fill-opacity:1;fill-rule:nonzero;stroke:none;stroke-width:2;marker:none;visibility:visible;display:inline;overflow:visible;enable-background:accumulate"
       id="rect3897"
       width="16"
       height="16"
       x="0"
       y="104"
       transform="matrix(0,1,1,0,0,0)" />
    <text
       xml:space="preserve"
       style="font-size:4px;font-style:normal;font-variant:normal;font-weight:normal;font-stretch:normal;text-align:start;line-height:125%;letter-spacing:0px;word-spacing:0px;writing-mode:lr-tb;text-anchor:start;fill:#000000;fill-opacity:1;stroke:none;font-family:Liberation Sans;-inkscape-font-specification:Liberation Sans"
       x="104"
       y="48"
       id="text3907"
       sodipodi:linespacing="125%"><tspan
         sodipodi:role="line"
         id="tspan3909"
         x="104"
         y="48">Shadow opacity : 30, 15, 10, (8)</tspan></text>
    <rect
       transform="matrix(0,-1,1,0,0,0)"
       y="104"
       x="-40"
       height="16"
       width="16"
       id="rect3911"
       style="color:#000000;fill:url(#linearGradient3913);fill-opacity:1;fill-rule:nonzero;stroke:none;stroke-width:2;marker:none;visibility:visible;display:inline;overflow:visible;enable-background:accumulate" />
    <text
       sodipodi:linespacing="125%"
       id="text3951"
       y="32"
       x="124"
       style="font-size:4px;font-style:normal;font-variant:normal;font-weight:normal;font-stretch:normal;text-align:start;line-height:125%;letter-spacing:0px;word-spacing:0px;writing-mode:lr-tb;text-anchor:start;fill:#000000;fill-opacity:1;stroke:none;font-family:Liberation Sans;-inkscape-font-specification:Liberation Sans"
       xml:space="preserve"><tspan
         y="32"
         x="124"
         id="tspan3953"
         sodipodi:role="line">Bevel opacity : 30 / 10</tspan></text>
    <text
       xml:space="preserve"
       style="font-size:4px;font-style:normal;font-variant:normal;font-weight:normal;font-stretch:normal;text-align:start;line-height:125%;letter-spacing:0px;word-spacing:0px;writing-mode:lr-tb;text-anchor:start;fill:#000000;fill-opacity:1;stroke:none;font-family:Liberation Sans;-inkscape-font-specification:Liberation Sans"
       x="124"
       y="8"
       id="text3955"
       sodipodi:linespacing="125%"><tspan
         sodipodi:role="line"
         id="tspan3957"
         x="124"
         y="8">Bevel opacity : 75 / 15</tspan></text>
    <path
       inkscape:connector-curvature="0"
       style="font-size:12px;font-style:normal;font-variant:normal;font-weight:bold;font-stretch:normal;text-align:start;line-height:125%;writing-mode:lr-tb;text-anchor:start;fill:url(#linearGradient3034);fill-opacity:1.0;stroke:none;display:inline;font-family:Sans;-inkscape-font-specification:Abandoned Bitplane Bold"
       id="path2847"
       d="m 48.596939,49.683675 c -2.28573,1.5e-5 -4.01022,0.387771 -5.173468,1.163265 -1.142873,0.775524 -1.714301,1.91838 -1.714286,3.428571 -1.5e-5,1.387764 0.459181,2.479599 1.377552,3.275511 0.938757,0.775518 2.234676,1.163271 3.887751,1.163265 2.061201,6e-6 3.795894,-0.734688 5.204082,-2.204082 1.408137,-1.489785 2.112219,-3.346926 2.112246,-5.571429 l 0,-1.255101 -5.693877,0 m 16.744896,-4.132653 0,20.448978 -11.051019,0 0,-5.969388 c -1.469415,2.081637 -3.122475,3.60204 -4.959186,4.561227 C 47.49488,65.530611 45.260186,66 42.627551,66 c -3.551031,0 -6.438783,-1.030608 -8.663264,-3.091839 -2.204086,-2.081622 -3.306125,-4.775499 -3.306122,-8.081628 -3e-6,-4.020396 1.377547,-6.969372 4.132652,-8.84694 2.775501,-1.877529 7.122437,-2.816304 13.040816,-2.816325 l 6.459183,0 0,-0.857145 c -2.7e-5,-1.734669 -0.683697,-2.999973 -2.051019,-3.795918 -1.36737,-0.816297 -3.500022,-1.224462 -6.397962,-1.224489 -2.346951,2.7e-5 -4.530625,0.23472 -6.551018,0.704082 -2.020417,0.469413 -3.897966,1.173495 -5.632653,2.112243 l 0,-8.357142 c 2.34693,-0.571395 4.704071,-0.999966 7.071429,-1.285713 2.367332,-0.306087 4.734674,-0.45915 7.10204,-0.459186 6.183648,3.6e-5 10.642824,1.224525 13.377552,3.67347 2.755062,2.428599 4.132611,6.38778 4.13265,11.877549"
       sodipodi:nodetypes="cssssscccccccssssscccsssccsscc" />
    <path
       style="font-size:12px;font-style:normal;font-variant:normal;font-weight:bold;font-stretch:normal;text-align:start;line-height:125%;writing-mode:lr-tb;text-anchor:start;fill:#ffffff;fill-opacity:1;stroke:none;display:inline;font-family:Sans;-inkscape-font-specification:Abandoned Bitplane Bold;opacity:0.75"
       d="M 47.84375 30 C 45.476384 30.000036 43.086082 30.162663 40.71875 30.46875 C 38.351392 30.754497 36.00318 31.178605 33.65625 31.75 L 33.65625 32.75 C 36.00318 32.178605 38.351392 31.754497 40.71875 31.46875 C 43.086082 31.162663 45.476384 31.000036 47.84375 31 C 54.027398 31.000036 58.484022 32.238555 61.21875 34.6875 C 63.973812 37.116099 65.343711 41.072731 65.34375 46.5625 L 65.34375 45.5625 C 65.343711 40.072731 63.973812 36.116099 61.21875 33.6875 C 58.484022 31.238555 54.027398 30.000036 47.84375 30 z M 47.84375 43.15625 C 41.925371 43.156271 37.556751 44.091221 34.78125 45.96875 C 32.026145 47.846318 30.656247 50.792104 30.65625 54.8125 C 30.65625 54.971574 30.682398 55.125011 30.6875 55.28125 C 30.808968 51.541179 32.153504 48.759525 34.78125 46.96875 C 37.556751 45.091221 41.925371 44.156271 47.84375 44.15625 L 54.28125 44.15625 L 54.28125 43.3125 C 54.281249 43.258427 54.282579 43.209411 54.28125 43.15625 L 47.84375 43.15625 z M 54.28125 50.9375 C 54.281223 53.162003 53.595637 55.010215 52.1875 56.5 C 50.779312 57.969394 49.029951 58.718756 46.96875 58.71875 C 45.315675 58.718756 44.032507 58.338018 43.09375 57.5625 C 42.286488 56.862881 41.847658 55.906924 41.75 54.75 C 41.734067 54.918076 41.718748 55.102931 41.71875 55.28125 C 41.718735 56.669014 42.175379 57.766588 43.09375 58.5625 C 44.032507 59.338018 45.315675 59.718756 46.96875 59.71875 C 49.029951 59.718756 50.779312 58.969394 52.1875 57.5 C 53.595637 56.010215 54.281223 54.162003 54.28125 51.9375 L 54.28125 50.9375 z "
       id="path3868" />
    <path
       style="font-size:12px;font-style:normal;font-variant:normal;font-weight:bold;font-stretch:normal;text-align:start;line-height:125%;writing-mode:lr-tb;text-anchor:start;fill:#000000;fill-opacity:1;stroke:none;display:inline;font-family:Sans;-inkscape-font-specification:Abandoned Bitplane Bold;opacity:0.15"
       d="M 45.84375 36.28125 C 43.496799 36.281277 41.301643 36.530638 39.28125 37 C 37.260833 37.469413 35.390937 38.155002 33.65625 39.09375 L 33.65625 40.09375 C 35.390937 39.155002 37.260833 38.469413 39.28125 38 C 41.301643 37.530638 43.496799 37.281277 45.84375 37.28125 C 48.74169 37.281277 50.88263 37.683703 52.25 38.5 C 53.5747 39.271134 54.239931 40.504004 54.28125 42.15625 L 54.28125 41.3125 C 54.281223 39.577831 53.617322 38.295945 52.25 37.5 C 50.88263 36.683703 48.74169 36.281277 45.84375 36.28125 z M 48.59375 48.6875 C 46.30802 48.687515 44.600748 49.068256 43.4375 49.84375 C 42.294627 50.619274 41.718735 51.771059 41.71875 53.28125 C 41.718748 53.438003 41.738284 53.569549 41.75 53.71875 C 41.87499 52.477687 42.437486 51.522333 43.4375 50.84375 C 44.600748 50.068256 46.30802 49.687515 48.59375 49.6875 L 54.28125 49.6875 L 54.28125 48.6875 L 48.59375 48.6875 z M 30.6875 54.28125 C 30.681613 54.46252 30.65625 54.626652 30.65625 54.8125 C 30.656247 58.118629 31.764664 60.824628 33.96875 62.90625 C 36.193231 64.967481 39.073969 66 42.625 66 C 45.257635 66 47.507 65.532522 49.34375 64.59375 C 51.180461 63.634563 52.811835 62.112887 54.28125 60.03125 L 54.28125 59.03125 C 52.811835 61.112887 51.180461 62.634563 49.34375 63.59375 C 47.507 64.532522 45.257635 65 42.625 65 C 39.073969 65 36.193231 63.967481 33.96875 61.90625 C 31.870713 59.924785 30.788444 57.372223 30.6875 54.28125 z M 54.28125 65 L 54.28125 66 L 65.34375 66 L 65.34375 65 L 54.28125 65 z "
       id="path3877" />
  </g>
</svg>
